<?xml version="1.0" encoding="UTF-8"?>
<svg width="535px" height="424px" viewBox="0 0 535 424" version="1.1" xmlns="http://www.w3.org/2000/svg" xmlns:xlink="http://www.w3.org/1999/xlink">
    <!-- Generator: Sketch 52.6 (67491) - http://www.bohemiancoding.com/sketch -->
    <title>Espresso Mobile</title>
    <desc>Created with Sketch.</desc>
    <defs>
        <filter x="-3.8%" y="-4.7%" width="107.6%" height="109.5%" filterUnits="objectBoundingBox" id="filter-1">
            <feOffset dx="0" dy="2" in="SourceAlpha" result="shadowOffsetOuter1"></feOffset>
            <feGaussianBlur stdDeviation="2" in="shadowOffsetOuter1" result="shadowBlurOuter1"></feGaussianBlur>
            <feColorMatrix values="0 0 0 0 0   0 0 0 0 0   0 0 0 0 0  0 0 0 0.3 0" type="matrix" in="shadowBlurOuter1" result="shadowMatrixOuter1"></feColorMatrix>
            <feMerge>
                <feMergeNode in="shadowMatrixOuter1"></feMergeNode>
                <feMergeNode in="SourceGraphic"></feMergeNode>
            </feMerge>
        </filter>
        <path d="M28.0312154,35.6001323 L205.768225,21.2967144 C205.768225,21.2967144 214.152047,18.7725818 216.667193,28.4484233 C220.020721,35.6001323 225.889396,43.17253 239.30351,43.17253 C249.364096,43.17253 282.060998,37.2828873 293.798348,72.6207434 C297.151877,83.5586512 304.697316,119.737885 272.000413,134.88268 C261.101445,139.930945 224.212632,154.234363 218.343957,157.599873 C212.475282,160.965384 205.768225,164.330894 202.414697,177.792934 C195.70764,192.096352 187.323819,204.717015 183.97029,208.923903 C180.616762,213.13079 174.595501,219.020433 162.516092,219.86181 C148.758241,221.544565 84.2028176,226.592831 84.2028176,226.592831 C84.2028176,226.592831 75.8189964,229.958341 65.7584109,217.337678 C54.8594433,204.717015 23.0009227,173.586046 20.4857763,51.5863053 C20.4857763,43.17253 17.1356013,36.4768477 28.0312154,35.6001323 Z M235.125644,61.0567881 C215.543342,74.5287759 219.293144,108.208746 220.959723,116.628738 C224.709526,132.205724 245.958407,132.205724 250.124854,131.363725 C260.124328,130.521725 275.123538,116.207738 276.790117,113.260741 C293.455906,83.7907676 271.373736,66.5297831 266.373999,61.4777877 C250.958144,50.110798 235.125644,61.0567881 235.125644,61.0567881 Z" id="path-2"></path>
        <filter x="-2.5%" y="-2.4%" width="105.1%" height="106.8%" filterUnits="objectBoundingBox" id="filter-3">
            <feOffset dx="0" dy="2" in="SourceAlpha" result="shadowOffsetOuter1"></feOffset>
            <feGaussianBlur stdDeviation="2" in="shadowOffsetOuter1" result="shadowBlurOuter1"></feGaussianBlur>
            <feColorMatrix values="0 0 0 0 0   0 0 0 0 0   0 0 0 0 0  0 0 0 0.3 0" type="matrix" in="shadowBlurOuter1"></feColorMatrix>
        </filter>
    </defs>
    <g id="Mobile" stroke="none" stroke-width="1" fill="none" fill-rule="evenodd">
        <g id="Core-Coffees-Espresso-Mobile" transform="translate(-55.000000, -1342.000000)">
            <g id="Espresso" transform="translate(0.000000, 992.000000)">
                <g id="Espresso-Mobile" transform="translate(21.000000, 352.000000)">
                    <g id="Page-1-Copy" filter="url(#filter-1)" transform="translate(173.000000, 132.000000)">
                        <g id="Combined-Shape">
                            <use fill="black" fill-opacity="1" filter="url(#filter-3)" xlink:href="#path-2"></use>
                            <use fill="#6D1F37" fill-rule="evenodd" xlink:href="#path-2"></use>
                        </g>
                        <path d="M37,112.558748 C37,112.558748 41.194787,167.817238 69.719339,204.656232 C73.914126,209.679731 83.1426575,218.052229 109.989295,215.54048 C119.217826,214.70323 133.480102,211.35423 145.225506,211.35423 C151.937165,211.35423 177.105887,210.516981 183.817547,191.260234 C190.529206,176.189737 203.952525,141.862493 206.469397,112.558748 C207.308354,109.209748 208.147312,106.697999 200.596695,103.348999 C195.56295,100.83725 182.978589,94.9765009 151.937165,109.209748 C137.085941,111.934159 117.513065,114.244969 98.2438909,109.209748 C85.6595298,103.348999 73.914126,99.1627501 55.457063,105.860749 C47.0674889,108.372499 37,112.558748 37,112.558748" id="Fill-3" fill="#B51144"></path>
                        <path d="M100,12.5 C100,14.432 98.432,16 96.5,16 C94.568,16 93,14.432 93,12.5 C93,10.568 94.568,9 96.5,9 C98.432,9 100,10.568 100,12.5" id="Fill-5" fill="#B51144"></path>
                        <path d="M16,22.5 C16,24.432 14.432,26 12.5,26 C10.568,26 9,24.432 9,22.5 C9,20.568 10.568,19 12.5,19 C14.432,19 16,20.568 16,22.5" id="Fill-7" fill="#B51144"></path>
                        <path d="M16,141.5 C16,143.432 14.432,145 12.5,145 C10.568,145 9,143.432 9,141.5 C9,139.568 10.568,138 12.5,138 C14.432,138 16,139.568 16,141.5" id="Fill-9" fill="#B51144"></path>
                        <path d="M26,180.5 C26,182.432 24.432,184 22.5,184 C20.568,184 19,182.432 19,180.5 C19,178.568 20.568,177 22.5,177 C24.432,177 26,178.568 26,180.5" id="Fill-11" fill="#B51144"></path>
                        <path d="M38,211.5 C38,213.432 36.432,215 34.5,215 C32.568,215 31,213.432 31,211.5 C31,209.568 32.568,208 34.5,208 C36.432,208 38,209.568 38,211.5" id="Fill-13" fill="#B51144"></path>
                        <path d="M55,238.5 C55,240.432 53.432,242 51.5,242 C49.568,242 48,240.432 48,238.5 C48,236.568 49.568,235 51.5,235 C53.432,235 55,236.568 55,238.5" id="Fill-15" fill="#B51144"></path>
                        <path d="M80,14.5 C80,16.432 78.432,18 76.5,18 C74.568,18 73,16.432 73,14.5 C73,12.568 74.568,11 76.5,11 C78.432,11 80,12.568 80,14.5" id="Fill-17" fill="#B51144"></path>
                        <path d="M35,19.5 C35,21.432 33.432,23 31.5,23 C29.568,23 28,21.432 28,19.5 C28,17.568 29.568,16 31.5,16 C33.432,16 35,17.568 35,19.5" id="Fill-19" fill="#B51144"></path>
                        <path d="M7,54.5 C7,56.432 5.432,58 3.5,58 C1.568,58 0,56.432 0,54.5 C0,52.568 1.568,51 3.5,51 C5.432,51 7,52.568 7,54.5" id="Fill-21" fill="#B51144"></path>
                        <path d="M14,123.5 C14,125.432 12.432,127 10.5,127 C8.568,127 7,125.432 7,123.5 C7,121.568 8.568,120 10.5,120 C12.432,120 14,121.568 14,123.5" id="Fill-23" fill="#B51144"></path>
                        <path d="M14.2793143,159.221405 C16.0904902,158.545912 18.1046578,159.468153 18.7783803,161.279386 C19.4538527,163.08887 18.5333903,165.104851 16.7222144,165.778595 C14.9092885,166.454088 12.8951209,165.531847 12.2213984,163.720614 C11.5459261,161.91113 12.4681383,159.895149 14.2793143,159.221405" id="Fill-25" fill="#B51144"></path>
                        <path d="M40.2793143,222.221405 C42.0904902,221.545912 44.1046578,222.468153 44.7783803,224.279386 C45.4538527,226.08887 44.5333903,228.104851 42.7222144,228.778595 C40.9092885,229.454088 38.8951209,228.531847 38.2213984,226.720614 C37.5459261,224.91113 38.4681383,222.895149 40.2793143,222.221405" id="Fill-27" fill="#B51144"></path>
                        <path d="M27.2793143,193.221405 C29.0904902,192.545912 31.1046578,193.468153 31.7783803,195.279386 C32.4538527,197.08887 31.5333903,199.104851 29.7222144,199.778595 C27.9092885,200.454088 25.8951209,199.531847 25.2213984,197.720614 C24.5459261,195.91113 25.4681383,193.895149 27.2793143,193.221405" id="Fill-29" fill="#B51144"></path>
                        <path d="M7,90.5 C7,92.432 5.432,94 3.5,94 C1.568,94 0,92.432 0,90.5 C0,88.568 1.568,87 3.5,87 C5.432,87 7,88.568 7,90.5" id="Fill-31" fill="#B51144"></path>
                        <path d="M9,37.5 C9,39.432 7.432,41 5.5,41 C3.568,41 2,39.432 2,37.5 C2,35.568 3.568,34 5.5,34 C7.432,34 9,35.568 9,37.5" id="Fill-33" fill="#B51144"></path>
                        <path d="M8,73.5 C8,75.432 6.432,77 4.5,77 C2.568,77 1,75.432 1,73.5 C1,71.568 2.568,70 4.5,70 C6.432,70 8,71.568 8,73.5" id="Fill-35" fill="#B51144"></path>
                        <path d="M10,104.5 C10,106.432 8.432,108 6.5,108 C4.568,108 3,106.432 3,104.5 C3,102.568 4.568,101 6.5,101 C8.432,101 10,102.568 10,104.5" id="Fill-37" fill="#B51144"></path>
                        <path d="M141,9.5 C141,11.432 139.432,13 137.5,13 C135.568,13 134,11.432 134,9.5 C134,7.568 135.568,6 137.5,6 C139.432,6 141,7.568 141,9.5" id="Fill-39" fill="#B51144"></path>
                        <path d="M163,8.5 C163,10.432 161.432,12 159.5,12 C157.568,12 156,10.432 156,8.5 C156,6.568 157.568,5 159.5,5 C161.432,5 163,6.568 163,8.5" id="Fill-41" fill="#B51144"></path>
                        <path d="M294,42.5 C294,44.432 292.432,46 290.5,46 C288.568,46 287,44.432 287,42.5 C287,40.568 288.568,39 290.5,39 C292.432,39 294,40.568 294,42.5" id="Fill-43" fill="#B51144"></path>
                        <path d="M315,110.5 C315,112.432 313.432,114 311.5,114 C309.568,114 308,112.432 308,110.5 C308,108.568 309.568,107 311.5,107 C313.432,107 315,108.568 315,110.5" id="Fill-45" fill="#B51144"></path>
                        <path d="M290,147.5 C290,149.432 288.432,151 286.5,151 C284.568,151 283,149.432 283,147.5 C283,145.568 284.568,144 286.5,144 C288.432,144 290,145.568 290,147.5" id="Fill-47" fill="#B51144"></path>
                        <path d="M259,161.5 C259,163.432 257.432,165 255.5,165 C253.568,165 252,163.432 252,161.5 C252,159.568 253.568,158 255.5,158 C257.432,158 259,159.568 259,161.5" id="Fill-49" fill="#B51144"></path>
                        <path d="M214,204.5 C214,206.432 212.432,208 210.5,208 C208.568,208 207,206.432 207,204.5 C207,202.56625 208.568,201 210.5,201 C212.432,201 214,202.56625 214,204.5" id="Fill-51" fill="#B51144"></path>
                        <path d="M303,137.5 C303,139.432 301.432,141 299.5,141 C297.568,141 296,139.432 296,137.5 C296,135.568 297.568,134 299.5,134 C301.432,134 303,135.568 303,137.5" id="Fill-53" fill="#B51144"></path>
                        <path d="M228,175.5 C228,177.432 226.432,179 224.5,179 C222.568,179 221,177.432 221,175.5 C221,173.568 222.568,172 224.5,172 C226.432,172 228,173.568 228,175.5" id="Fill-55" fill="#B51144"></path>
                        <path d="M201,231.5 C201,233.432 199.432,235 197.5,235 C195.568,235 194,233.432 194,231.5 C194,229.568 195.568,228 197.5,228 C199.432,228 201,229.568 201,231.5" id="Fill-57" fill="#B51144"></path>
                        <path d="M188,237.5 C188,239.432 186.432,241 184.5,241 C182.568,241 181,239.432 181,237.5 C181,235.568 182.568,234 184.5,234 C186.432,234 188,235.568 188,237.5" id="Fill-59" fill="#B51144"></path>
                        <path d="M241,168.5 C241,170.432 239.432,172 237.5,172 C235.568,172 234,170.432 234,168.5 C234,166.568 235.568,165 237.5,165 C239.432,165 241,166.568 241,168.5" id="Fill-61" fill="#B51144"></path>
                        <path d="M310,65.5 C310,67.432 308.432,69 306.5,69 C304.568,69 303,67.432 303,65.5 C303,63.568 304.568,62 306.5,62 C308.432,62 310,63.568 310,65.5" id="Fill-63" fill="#B51144"></path>
                        <path d="M313,82.5 C313,84.432 311.432,86 309.5,86 C307.568,86 306,84.432 306,82.5 C306,80.56625 307.568,79 309.5,79 C311.432,79 313,80.56625 313,82.5" id="Fill-65" fill="#B51144"></path>
                        <path d="M200,5.5 C200,7.432 198.432,9 196.5,9 C194.568,9 193,7.432 193,5.5 C193,3.568 194.568,2 196.5,2 C198.432,2 200,3.568 200,5.5" id="Fill-67" fill="#B51144"></path>
                        <path d="M304,52.5 C304,54.432 302.432,56 300.5,56 C298.568,56 297,54.432 297,52.5 C297,50.56625 298.568,49 300.5,49 C302.432,49 304,50.56625 304,52.5" id="Fill-69" fill="#B51144"></path>
                        <path d="M280,36.5 C280,38.432 278.432,40 276.5,40 C274.568,40 273,38.432 273,36.5 C273,34.568 274.568,33 276.5,33 C278.432,33 280,34.568 280,36.5" id="Fill-71" fill="#B51144"></path>
                        <path d="M310,124.5 C310,126.432 308.432,128 306.5,128 C304.568,128 303,126.432 303,124.5 C303,122.568 304.568,121 306.5,121 C308.432,121 310,122.568 310,124.5" id="Fill-73" fill="#B51144"></path>
                        <path d="M220,189.5 C220,191.432 218.432,193 216.5,193 C214.568,193 213,191.432 213,189.5 C213,187.568 214.568,186 216.5,186 C218.432,186 220,187.568 220,189.5" id="Fill-75" fill="#B51144"></path>
                        <path d="M207,216.5 C207,218.432 205.432,220 203.5,220 C201.568,220 200,218.432 200,216.5 C200,214.56625 201.568,213 203.5,213 C205.432,213 207,214.56625 207,216.5" id="Fill-77" fill="#B51144"></path>
                        <path d="M170,238.5 C170,240.432 168.432,242 166.5,242 C164.568,242 163,240.432 163,238.5 C163,236.568 164.568,235 166.5,235 C168.432,235 170,236.568 170,238.5" id="Fill-79" fill="#B51144"></path>
                        <path d="M139,242.5 C139,244.432 137.432,246 135.5,246 C133.568,246 132,244.432 132,242.5 C132,240.568 133.568,239 135.5,239 C137.432,239 139,240.568 139,242.5" id="Fill-81" fill="#B51144"></path>
                        <path d="M101,247.5 C101,249.432 99.432,251 97.5,251 C95.568,251 94,249.432 94,247.5 C94,245.568 95.568,244 97.5,244 C99.432,244 101,245.568 101,247.5" id="Fill-83" fill="#B51144"></path>
                        <path d="M67,247.5 C67,249.432 65.432,251 63.5,251 C61.568,251 60,249.432 60,247.5 C60,245.568 61.568,244 63.5,244 C65.432,244 67,245.568 67,247.5" id="Fill-85" fill="#B51144"></path>
                        <path d="M155,241.5 C155,243.432 153.432,245 151.5,245 C149.568,245 148,243.432 148,241.5 C148,239.568 149.568,238 151.5,238 C153.432,238 155,239.568 155,241.5" id="Fill-87" fill="#B51144"></path>
                        <path d="M120,243.5 C120,245.432 118.432,247 116.5,247 C114.568,247 113,245.432 113,243.5 C113,241.568 114.568,240 116.5,240 C118.432,240 120,241.568 120,243.5" id="Fill-89" fill="#B51144"></path>
                        <path d="M82,249.5 C82,251.432 80.432,253 78.5,253 C76.568,253 75,251.432 75,249.5 C75,247.568 76.568,246 78.5,246 C80.432,246 82,247.568 82,249.5" id="Fill-91" fill="#B51144"></path>
                        <path d="M274,154.5 C274,156.432 272.432,158 270.5,158 C268.568,158 267,156.432 267,154.5 C267,152.568 268.568,151 270.5,151 C272.432,151 274,152.568 274,154.5" id="Fill-93" fill="#B51144"></path>
                        <path d="M229,8.5 C229,10.432 227.432,12 225.5,12 C223.568,12 222,10.432 222,8.5 C222,6.568 223.568,5 225.5,5 C227.432,5 229,6.568 229,8.5" id="Fill-95" fill="#B51144"></path>
                        <path d="M235,22.5 C235,24.432 233.432,26 231.5,26 C229.568,26 228,24.432 228,22.5 C228,20.56625 229.568,19 231.5,19 C233.432,19 235,20.56625 235,22.5" id="Fill-97" fill="#B51144"></path>
                        <path d="M315,96.5 C315,98.432 313.432,100 311.5,100 C309.568,100 308,98.432 308,96.5 C308,94.568 309.568,93 311.5,93 C313.432,93 315,94.568 315,96.5" id="Fill-99" fill="#B51144"></path>
                        <path d="M122,10.5 C122,12.432 120.432,14 118.5,14 C116.568,14 115,12.432 115,10.5 C115,8.568 116.568,7 118.5,7 C120.432,7 122,8.568 122,10.5" id="Fill-101" fill="#B51144"></path>
                        <path d="M58,16.5 C58,18.432 56.432,20 54.5,20 C52.568,20 51,18.432 51,16.5 C51,14.568 52.568,13 54.5,13 C56.432,13 58,14.568 58,16.5" id="Fill-103" fill="#B51144"></path>
                        <path d="M182,8.5 C182,10.432 180.432,12 178.5,12 C176.568,12 175,10.432 175,8.5 C175,6.568 176.568,5 178.5,5 C180.432,5 182,6.568 182,8.5" id="Fill-105" fill="#B51144"></path>
                        <path d="M215,3.5 C215,5.432 213.432,7 211.5,7 C209.568,7 208,5.432 208,3.5 C208,1.568 209.568,0 211.5,0 C213.432,0 215,1.568 215,3.5" id="Fill-107" fill="#B51144"></path>
                        <path d="M264,31.5 C264,33.432 262.432,35 260.5,35 C258.568,35 257,33.432 257,31.5 C257,29.568 258.568,28 260.5,28 C262.432,28 264,29.568 264,31.5" id="Fill-109" fill="#B51144"></path>
                        <path d="M248,30.5 C248,32.432 246.432,34 244.5,34 C242.568,34 241,32.432 241,30.5 C241,28.568 242.568,27 244.5,27 C246.432,27 248,28.568 248,30.5" id="Fill-111" fill="#B51144"></path>
                    </g>
                    <g id="Page-1-Copy-12" transform="translate(323.712879, 76.342623) rotate(-254.000000) translate(-323.712879, -76.342623) translate(290.712879, 43.842623)" fill="#6D1F37">
                        <path d="M52.1678329,62.8741265 C52.7420823,61.6242396 53.1249153,60.3791462 53.7936766,59.1340528 C53.9850931,58.6535115 53.7003611,58.2724338 53.4108437,58.1741685 C53.4108437,57.8889594 53.2182308,57.6984206 52.9334988,57.6001553 C30.0580327,53.764213 11.4918302,38.13883 4.60322949,16.9530683 C9.09912414,25.2900412 15.9913139,32.5784513 22.786599,38.7152399 C27.7634276,43.2198656 33.0261846,47.24395 38.7686791,50.6005493 C43.2645737,53.1890014 48.914949,55.5857164 54.0831941,53.9583469 C53.7936766,54.7240973 54.9433719,55.1099684 55.3262049,54.5323601 C56.5692156,52.9049907 57.8122264,51.3674981 59.1533382,49.9306675 C60.4944499,52.9049907 61.9300735,55.8757189 62.9816678,58.9423156 C59.444052,60.2856744 55.9016507,62.007714 52.1678329,62.8741265 M64.9903446,59.0357875 C63.7473338,55.2034403 61.836758,51.561632 60.2049325,47.9198236 C60.013516,47.4356872 59.2514391,47.4356872 58.9619217,47.7256897 C57.3360779,49.4489278 55.5176213,51.1757609 54.466027,53.2872667 L54.3679261,53.2872667 C42.6951097,54.1488858 31.3991444,44.1773533 23.3608485,36.8889431 C14.0759527,28.5519702 5.65482379,18.3898989 2.30383898,6.21458701 C2.1124225,4.67949109 1.92100601,3.04972494 1.92100601,1.42115714 C1.92100601,0.653009999 0.86941171,0.653009999 0.771310762,1.42115714 L0.771310762,2.28277616 C0.387281442,2.28277616 0.102549423,2.57277866 0.102549423,3.04972494 C0.195864959,4.10308115 0.48538239,5.1612308 0.676798873,6.21458701 C1.44366116,32.1937786 27.2824937,57.2142842 52.5506659,58.8452487 C51.690488,60.3791462 50.9236257,62.007714 49.9665433,63.5452067 C49.4891985,64.2126918 50.2560608,64.8885654 50.9236257,64.7903001 C55.7090378,64.1192199 60.013516,61.8159768 64.4208805,60.0951355 C64.7989281,59.9968702 65.181761,59.6109991 64.9903446,59.0357875" id="Fill-1"></path>
                    </g>
                    <g id="Page-1-Copy-15" transform="translate(117.484655, 250.185819) scale(-1, 1) rotate(-185.000000) translate(-117.484655, -250.185819) translate(84.984655, 218.185819)" fill="#6D1F37">
                        <path d="M52.0652835,62.0290797 C52.6395329,60.7791929 53.0223659,59.5340995 53.6911272,58.289006 C53.8825437,57.8084647 53.5978117,57.427387 53.3082942,57.3291217 C53.3082942,57.0439126 53.1156814,56.8533738 52.8309494,56.7551085 C29.9554833,52.9191662 11.3892808,37.2937832 4.50068006,16.1080215 C8.99657472,24.4449944 15.8887645,31.7334045 22.6840496,37.8701931 C27.6608782,42.3748189 32.9236351,46.3989032 38.6661296,49.7555025 C43.1620243,52.3439546 48.8123996,54.7406696 53.9806446,53.1133001 C53.6911272,53.8790506 54.8408225,54.2649217 55.2236554,53.6873134 C56.4666662,52.0599439 57.709677,50.5224513 59.0507887,49.0856207 C60.3919005,52.0599439 61.8275241,55.0306721 62.8791184,58.0972689 C59.3415025,59.4406276 55.7991012,61.1626673 52.0652835,62.0290797 M64.8877951,58.1907407 C63.6447843,54.3583935 61.7342086,50.7165852 60.1023831,47.0747769 C59.9109666,46.5906404 59.1488897,46.5906404 58.8593723,46.8806429 C57.2335285,48.603881 55.4150719,50.3307141 54.3634776,52.44222 L54.2653767,52.44222 C42.5925602,53.303839 31.296595,43.3323065 23.2582991,36.0438964 C13.9734033,27.7069234 5.55227437,17.5448521 2.20128956,5.36954023 C2.00987307,3.83444431 1.81845659,2.20467815 1.81845659,0.576110353 C1.81845659,-0.192036784 0.766862286,-0.192036784 0.668761339,0.576110353 L0.668761339,1.43772937 C0.284732019,1.43772937 0,1.72773188 0,2.20467815 C0.0933155356,3.25803437 0.382832967,4.31618401 0.57424945,5.36954023 C1.34111174,31.3487318 27.1799443,56.3692374 52.4481164,58.0002019 C51.5879386,59.5340995 50.8210763,61.1626673 49.8639939,62.7001599 C49.386649,63.367645 50.1535113,64.0435186 50.8210763,63.9452533 C55.6064884,63.2741731 59.9109666,60.9709301 64.3183311,59.2500887 C64.6963787,59.1518234 65.0792116,58.7659523 64.8877951,58.1907407" id="Fill-1"></path>
                    </g>
                    <path d="M66.625,325.85 C66.625,326.2 66.375,327.2 66.175,327.95 C66.125,328.1 66.125,328.2 66.175,328.3 C65.575,330.45 63.975,333.3 61.825,335.3 C59.225,337.55 56.025,339.65 54.075,340.4 C53.725,340.55 53.075,340.3 52.725,340.3 C52.325,340.3 51.575,340.75 51.325,340.75 C50.975,340.75 50.775,340.65 50.725,340.5 L50.725,340.4 C50.325,340.6 50.175,341 50.125,341.35 C49.775,342.15 49.675,343.55 49.275,344.75 C49.075,345.4 48.475,346.55 48.325,347.35 C48.125,348.55 48.275,349.45 47.425,351 L46.975,351.6 C46.825,351.6 46.775,351.7 46.425,351.7 C46.225,351.7 45.975,351.4 45.725,351.4 C45.375,351.4 45.425,351.6 45.225,351.6 C45.075,351.35 45.175,350.95 44.825,350.95 C44.475,350.95 44.675,351 44.525,351 C44.525,350.85 44.625,351.05 44.625,350.7 C44.625,350.35 44.125,349.95 43.725,349.3 C43.875,349.1 43.675,349 43.675,348.65 C43.675,347.7 44.775,346.15 44.925,345.4 C45.725,342.35 46.675,339.25 47.425,336.25 C48.675,331 50.075,325.55 51.425,320.3 C51.575,319.65 51.575,318.55 51.725,317.6 C50.125,316.95 49.575,314.75 49.725,313.5 C49.975,313.35 50.275,313.15 50.525,313.1 C50.975,312.95 51.575,312.85 52.325,312.85 C53.075,312.8 53.475,312.8 53.625,312.8 C53.975,312.8 53.675,312.9 53.825,312.95 C54.625,312.95 55.925,313.65 56.775,314.05 C56.925,314.2 57.575,314.3 57.775,314.45 C62.725,317.65 66.625,321.6 66.625,325.85 Z M62.925,322.8 C62.925,321 58.075,317.15 55.975,317.15 C55.825,317.15 56.075,317.05 55.825,317.05 C55.575,317.05 55.325,317.15 55.125,317.15 L55.125,317.75 C55.125,318.15 55.575,319.4 55.525,320.05 C55.325,321.65 55.025,323.35 54.775,324.7 C54.225,327.05 53.425,329.95 53.025,331.6 C52.825,332.75 52.125,334.5 52.075,335.65 C52.525,335.65 53.325,335.45 53.725,335.3 C53.325,334.65 54.275,334.6 54.625,334.25 C54.675,334.35 54.675,334.4 54.675,334.4 L54.675,334.45 C54.475,334.6 54.725,334.6 54.925,334.6 C55.175,334.4 56.075,333.7 56.225,333.5 C56.175,333.5 56.175,333.55 56.025,333.55 L55.925,333.55 C55.775,333.35 55.975,333.45 55.975,333.3 C59.525,331.6 62.925,326.35 62.925,322.8 Z M85.225,344.3 L85.575,344.6 C85.425,344.7 85.125,344.95 84.775,345.3 C84.975,345.55 85.075,345.85 85.325,346.1 C85.075,346.45 84.825,346.85 84.575,347.3 C84.475,347.45 84.475,347.6 84.575,347.65 C84.425,347.85 84.175,348.1 83.825,348.45 C84.025,348.65 84.175,348.6 84.375,348.4 C84.375,348.6 84.325,348.8 83.975,348.8 C83.575,348.8 83.925,348.7 83.775,348.55 C83.625,348.7 83.675,348.95 83.475,349.15 C83.325,349.35 83.075,349.7 82.625,349.95 C82.075,350.4 80.825,351.1 80.475,351.1 C79.275,351.1 77.925,350.65 76.875,350.25 C76.675,350.1 76.125,349.65 75.925,349.3 C75.325,348.1 74.825,346.75 74.375,345.7 C74.175,345.35 74.325,344.65 74.325,344.3 C74.325,344.05 74.275,343.75 74.125,343.5 C72.325,345.7 70.225,347.9 68.775,350.65 C68.575,350.8 68.225,351.05 67.775,351.25 L67.675,351.3 C67.675,351.35 67.725,351.4 67.825,351.45 C67.375,351.45 66.775,351.3 66.225,351.3 C66.025,350.85 65.375,350.55 64.925,350.1 C64.675,349.85 64.175,349.3 64.125,348.9 C63.925,348.45 63.775,347.5 63.775,347.1 C63.775,344.75 64.375,343.35 64.775,341.1 C65.225,340.65 65.475,340 65.625,339.4 C65.625,339.15 65.475,338.75 65.525,338.5 C65.725,338.05 66.075,337.7 66.275,337.55 C66.525,337.3 66.475,336.7 66.625,336.25 C66.675,336.05 66.925,336.05 67.075,335.85 C67.075,335.65 66.975,335.65 67.025,335.45 C68.075,333.6 68.725,330.45 71.025,330.45 C71.375,330.45 71.625,330.75 72.025,330.6 C72.075,331 72.575,331.45 72.825,331.85 C72.825,332.05 72.975,332.25 72.975,332.6 C72.975,333.85 71.675,336 70.925,337.75 C70.525,338.6 69.975,339.7 69.575,340.65 C69.175,341.65 68.575,342.75 68.025,344 C68.025,344.15 67.975,344.35 68.125,344.6 C67.725,345.2 67.625,345.9 67.375,346.65 L67.375,347 L67.475,347 C70.825,343.2 73.925,340 75.975,336 C76.325,335.35 76.875,334.3 77.425,333.55 C77.625,333.75 77.975,333.85 78.225,334.1 C78.425,334.1 78.275,333.85 78.275,333.7 C78.475,333.85 78.475,334.1 78.825,334.1 C79.075,334.1 78.775,333.95 79.025,333.95 C79.175,333.95 79.525,334.65 80.475,334.9 C80.825,335.35 81.175,336.4 81.175,336.8 C81.175,337 80.425,338.2 80.175,338.95 C79.725,340 79.275,341.4 79.025,342.65 L78.975,342.75 C78.875,342.8 78.825,342.9 78.825,342.95 C78.625,344 78.425,345.65 78.425,346.05 C78.425,346.3 78.525,346.45 78.775,346.5 C78.875,346.55 78.975,346.6 79.125,346.6 C79.275,346.6 79.725,346.5 80.475,346.35 L82.275,345.85 C83.275,345.6 84.275,344.85 85.225,344.3 Z M99.625,335.65 C99.425,336.1 98.675,336.5 98.875,336.95 C98.325,336.95 97.725,336.75 96.775,336.95 C96.725,336.6 96.675,336.15 96.525,335.5 C94.525,336.25 92.875,338.6 91.625,340.55 C91.625,340.4 91.575,340.3 91.425,340.3 C91.275,340.6 91.225,340.8 91.325,340.9 C91.275,340.9 91.225,340.9 91.175,340.95 C91.075,341.1 91.025,341.15 91.025,341.15 C90.975,341.3 91.175,341.35 91.175,341.55 C91.025,341.55 91.025,341.65 90.825,341.65 L90.775,341.65 C90.675,341.65 90.625,341.7 90.625,341.75 C90.475,341.95 90.825,342.05 90.825,342.1 C90.525,342.65 90.125,343.3 89.625,343.95 C89.625,344.15 89.775,344.25 89.725,344.3 C89.525,344.75 89.225,345 88.875,345.35 C88.625,345.7 88.675,346.2 88.475,346.6 C87.825,347.95 87.175,349.6 87.625,351 C87.325,351.2 87.025,351.3 86.675,351.3 C86.475,351.3 85.725,350.95 85.275,350.75 C85.075,350.55 85.275,349.9 84.725,350.05 C84.375,349 83.875,348.25 83.875,347.45 C83.875,347.15 84.675,344.4 84.775,343.05 C85.225,341.2 85.575,339.35 85.725,337.4 C85.875,336.25 86.075,334.75 86.225,333.3 C86.375,332.35 86.425,331.25 86.675,330.3 L87.275,330.3 C87.825,330.3 88.825,331.05 89.075,331.7 C89.325,332.45 89.525,333.15 89.575,333.9 C89.625,334.45 89.425,334.9 89.425,335.65 C89.925,334.4 92.675,332.3 94.275,332.3 C95.725,332.3 97.925,333.15 99.075,334.55 C99.275,334.8 99.375,335.25 99.625,335.65 Z M105.615632,329.836494 C105.549496,329.815492 105.525,329.769994 105.525,329.7 C105.525,329.65 105.575,329.65 105.625,329.6 C105.648062,329.684559 105.642759,329.763209 105.615632,329.836494 Z M105.615632,329.836494 C105.643985,329.845498 105.679991,329.85 105.725,329.85 C106.125,329.85 105.625,329.7 106.025,329.7 C106.275,329.7 106.975,330.15 107.425,330.3 C107.575,330.75 107.425,331.25 107.775,331.25 C108.175,331.25 107.775,331.1 108.125,331.1 C108.375,331.1 108.525,331.35 108.725,331.55 C108.725,333.65 109.725,332.55 109.725,333.85 C109.725,334.15 109.175,336.65 108.775,337.9 C108.375,338.7 107.325,340.2 106.475,341.25 C105.025,343 102.175,345.85 102.175,346.3 C102.175,346.7 103.075,347.3 103.675,347.55 C104.025,347.75 104.775,347.7 105.125,347.7 C105.675,347.7 106.075,347.2 106.875,347.55 C108.225,347.15 109.475,346.7 110.475,346.45 C110.625,346.6 110.825,346.65 110.975,346.65 C110.425,346.85 110.175,347.2 109.725,347.35 C109.725,347.6 109.925,347.75 110.275,347.85 C110.075,348.1 109.925,348.6 109.725,349.05 C108.875,348.85 108.425,349.95 108.425,350.75 C107.825,350.95 107.225,351.05 106.475,351.05 C106.229068,351.197559 106.466997,351.248346 106.6652,351.24996 C106.124753,351.300148 105.37491,351.750008 104.825,351.8 L104.825,351.95 C104.825,352 104.775,352.05 104.625,352.05 C104.025,352.05 102.575,351.05 102.425,352.05 L101.875,351.3 C100.425,350.95 100.025,350.6 98.775,349.25 C97.875,348.45 98.325,349.7 97.375,345.7 C97.125,343.7 97.575,342.65 97.775,341.85 C97.975,340.9 98.725,338.95 99.475,337.4 C99.875,336.6 100.375,335.45 101.125,334.25 C101.475,333.8 102.075,333.05 102.425,332.4 C103.175,331.75 103.275,331.25 104.275,330.65 C104.655815,330.480749 105.46632,330.239883 105.615632,329.836494 Z M105.875,334.7 C104.525,335.45 104.075,336.45 102.825,338.65 C102.225,339.75 101.875,340.4 101.825,340.6 L101.525,341.95 C102.275,341 103.025,340.1 103.675,339.15 C104.425,338.15 105.625,336.7 105.875,334.7 Z M39.0570126,388.944374 C39.0294706,388.980838 39.002133,389.016084 38.975,389.05 C38.975,389.026923 38.9856508,389.003846 39.011868,388.970938 L39.0570126,388.944374 Z M39.0570126,388.944374 C39.6385149,388.174504 40.3111774,386.861562 41.075,386.05 C41.275,385.7 41.825,385.75 42.225,385.55 C42.575,385.35 42.675,385 43.075,385 C43.325,385 44.625,385.25 45.175,385.5 C45.725,385.85 46.775,386.65 47.125,387.45 C47.375,388 47.625,388.95 47.625,389.35 C47.625,389.85 47.075,392.8 46.525,393.1 C46.375,393.2 46.125,393.25 45.775,393.25 C44.975,393.25 44.575,392.65 44.375,391.9 C44.175,391.35 43.725,390.9 43.925,390.35 L43.925,390.3 L43.775,390.3 C41.925,392.65 40.475,395.25 39.625,397.1 C39.125,398.25 38.275,401.15 38.275,401.4 L38.275,402.1 C38.725,402.3 39.475,402.45 39.725,402.45 C39.975,402.45 41.125,401.9 41.925,401.55 C43.725,400.8 46.025,400.05 48.375,398.85 C48.975,398.5 50.575,397.6 51.775,397.05 C51.525,397.3 51.375,398.05 50.975,398.05 C50.625,398.05 50.825,397.85 50.675,398.05 C50.675,398.25 50.475,398.3 50.725,398.3 C51.075,398.3 50.875,398.25 51.075,398.25 C50.875,398.45 50.625,399 50.775,399.2 C50.175,399.75 49.375,400.25 48.825,400.8 C48.825,400.95 48.925,401 49.075,401 L49.075,401.5 C47.875,402.15 46.575,403.05 44.775,404.1 C44.575,404.3 44.425,404.75 44.175,404.95 C43.625,405.25 41.025,406.15 39.925,406.15 C37.325,406.15 35.075,403.4 34.925,401.2 C34.925,400.8 34.875,400.3 34.875,399.95 C34.875,399.2 34.975,398.2 35.225,396.95 C35.475,395.65 35.825,394.55 36.325,393.7 C36.475,393.65 36.425,393.3 36.475,393.05 C36.925,392.05 37.425,391.1 38.075,390.3 C38.525,389.85 38.975,389.5 39.225,388.95 C39.225,388.9 39.225,388.85 39.175,388.8 C39.0942303,388.88077 39.0424551,388.932545 39.011868,388.970938 L39.0570126,388.944374 Z M54.6248306,388.982464 C54.6201721,388.745313 54.5190706,388.65 54.275,388.65 L54.375,388.6 C54.425,388.6 54.475,388.55 54.575,388.45 C54.325,386.55 57.725,385.9 58.275,385.35 C58.525,385.9 58.925,385.55 59.475,385.8 C59.725,386 60.575,386.85 61.025,387.3 C61.025,387.35 61.075,387.4 61.125,387.5 C61.175,387.65 61.275,387.8 61.325,387.85 C61.475,387.9 61.675,387.85 61.825,388 C63.375,390.15 64.425,392.1 64.425,394.25 C64.425,397.9 61.525,401.6 57.875,404.8 C57.675,404.95 57.625,405.35 57.475,405.55 C56.325,406.25 55.325,406.6 54.375,406.6 C52.825,406.6 52.025,405.65 51.025,404.85 C50.675,404.6 50.475,403.35 49.875,403.35 C49.725,402.75 49.475,401.6 49.475,401.35 C49.475,399.15 51.425,395 51.875,394.3 C52.025,394.15 51.925,393.7 52.125,393.5 C52.475,392.9 53.025,392.3 53.275,391.7 C53.475,391.55 53.475,391.6 53.675,391.55 C53.875,391.5 53.775,391.2 53.975,390.95 C54.225,390.5 54.875,390.25 55.225,389.8 C55.425,389.55 55.325,389.15 55.525,388.8 C55.375,388.8 55.075,388.55 54.875,388.9 C54.875,388.75 54.825,388.65 54.775,388.6 C54.6838708,388.645565 54.6342642,388.774175 54.6261804,388.947991 L54.6248306,388.982464 Z M58.875,390.4 L59.125,390.4 L59.125,389.65 L58.875,389.65 L58.875,390.4 Z M60.275,392.65 C60.275,392.25 59.925,391.35 59.675,390.8 C59.125,391.85 57.975,393.15 57.525,393.9 C56.425,395.9 54.375,399.95 54.375,400.35 L54.375,400.8 C55.025,400.35 56.125,399.3 56.375,399.3 C56.725,399.3 56.125,399.6 56.525,399.6 C56.975,399.6 59.025,396.35 59.125,396.1 C59.425,395.65 60.275,392.75 60.275,392.65 Z M95.275,377.9 C95.275,377.95 95.175,378.1 94.975,378.3 C95.125,378.3 95.325,378.05 95.275,377.9 Z M102.225,388.7 L101.575,388.7 L101.575,389 L102.225,389 L102.225,388.7 Z M101.305145,389.053443 C101.093662,389.026746 100.834331,389.013556 100.575,389.1 C100.725,389.3 100.875,389.25 101.075,389.25 L100.075,389.75 L99.725,390.1 C99.875,390.3 100.025,390.15 100.225,390.15 C100.175,390.2 100.125,390.25 100.125,390.3 L100.125,390.4 C99.975,390.55 99.375,390.85 98.825,390.9 C98.675,390.95 98.775,391.15 98.625,391.35 C97.625,391.35 96.625,391.4 95.625,391.75 C95.225,391.95 94.525,392.3 94.275,392.3 C93.925,392.3 94.225,392.2 93.975,392.2 C93.725,392.2 91.225,392.95 89.975,393.25 C88.825,394 87.375,393.65 85.725,394.45 C85.325,395.85 85.075,397.5 84.325,399.3 C84.175,399.65 83.875,400 83.675,400.4 C83.075,402.65 82.575,405.15 82.025,407.5 L82.025,407.45 C82.025,407.4 81.975,407.35 81.925,407.25 C81.675,407.5 81.575,407.9 81.525,408.05 C80.975,411.25 80.525,417.3 80.525,417.7 C80.525,418.1 80.925,419.05 81.075,419.3 C81.225,419.7 81.725,420.3 81.725,420.65 C81.725,420.85 81.475,421.15 81.325,421.55 L80.725,421 C80.525,421.2 80.375,421.2 80.175,421.4 C79.725,421 79.125,420 78.725,419.6 L78.825,419.5 C78.675,419.3 78.425,419.3 78.625,419.3 C78.675,419.05 78.625,418.75 78.425,418.5 C78.225,417.65 78.225,416.3 78.275,415.1 C78.325,414.95 78.275,414.9 78.425,414.75 C78.225,413.7 78.075,414 78.075,413.95 C78.075,413.6 78.275,412.45 78.325,411.7 C78.875,406.1 81.025,398.65 81.825,395 C81.425,394.8 80.525,395.1 79.925,395.1 C79.875,395.1 79.775,395.15 79.725,395.3 C77.375,395.75 74.875,396.4 72.475,397.05 C72.275,397.25 72.125,397.5 72.075,397.75 C71.625,399.15 71.175,401.25 70.925,402.65 C70.525,405.05 69.925,407.65 69.575,410.1 C69.425,409.95 69.525,409.75 69.375,409.6 C69.225,409.95 69.175,410.2 69.175,410.4 C68.975,411.05 68.825,412.35 68.825,412.7 L68.825,415.7 C69.825,416.15 69.275,417.25 69.425,418 C69.975,418.4 69.525,419.25 69.375,419.7 C69.025,419.7 68.825,419.75 68.775,419.9 C68.125,419.45 67.175,418.9 66.925,418.15 C66.525,416.9 66.425,414.2 66.425,413.95 L67.575,403.3 C67.575,403.1 68.725,398.6 68.725,398.3 L68.725,397.8 C68.425,397.75 68.175,397.8 68.025,397.95 C67.675,397.75 67.375,397.8 67.125,397.8 C66.775,397.8 67.225,397.55 66.875,397.55 C66.475,397.55 66.975,397.7 66.575,397.7 C66.325,397.7 65.425,397.05 65.025,396.65 C64.875,396.5 63.925,394.25 63.925,393.65 C63.925,393.5 64.525,393.55 64.275,392.95 C64.475,393.1 64.425,393.2 64.675,393.2 C65.025,393.2 65.475,393.3 65.725,393.3 C66.075,393.3 66.325,392.95 66.675,392.95 C67.025,392.95 66.825,393.05 67.175,393.05 C67.425,393.05 67.925,392.7 68.275,392.7 C68.625,392.7 68.325,392.8 68.575,392.8 C68.825,392.8 69.375,392.6 69.775,392.4 C70.625,388.75 71.425,385.05 72.425,381.45 C72.825,379.5 74.425,376.15 75.225,373.4 C75.775,371.85 77.025,368.65 78.925,367.3 C78.975,367.3 79.025,367.3 79.025,367.25 C79.025,367.15 78.975,367.1 78.925,367.05 C80.425,367.2 84.225,368.85 84.625,370.95 C84.675,371.3 85.125,371.6 85.125,372 C85.125,372.35 84.725,373.85 84.275,374.5 C84.025,374.95 83.325,375.5 82.975,375.5 C82.725,375.5 82.625,375.35 81.975,375.5 L81.975,375.25 C81.975,375.05 81.625,375.1 81.425,374.9 C81.025,374.5 80.925,373.75 80.725,373.3 C80.875,373.15 80.925,373 80.875,372.95 C81.025,372.95 81.175,373 81.325,373.1 C81.525,372.95 81.625,372.65 81.625,372.25 C81.625,372 81.525,371.75 81.525,371.5 L81.425,371.5 C81.375,371.5 81.375,371.4 81.325,371.4 C80.425,371.4 79.275,375.3 78.875,376.15 C78.525,377.4 77.375,379.5 76.775,381.45 C75.775,384.3 75.175,387.4 74.375,390.25 C74.325,390.4 74.125,390.3 73.975,390.45 C73.875,390.6 73.925,390.75 74.175,390.9 C74.025,391.15 73.875,391.45 73.725,391.45 L73.725,391.6 C74.075,392 74.325,391.95 74.575,391.95 C74.825,391.95 80.275,391.45 82.975,390.95 C83.575,389.8 83.875,388.25 84.475,386.85 C84.525,386.7 84.525,386.6 84.475,386.55 C84.425,386.6 84.375,386.6 84.325,386.6 L84.175,386.6 C86.375,380.55 88.125,374.05 91.725,368.45 C91.975,368 92.975,367.85 93.425,367.65 C93.625,367.6 94.025,367.85 94.275,367.7 C94.425,367.65 94.425,367.55 94.775,367.55 C95.875,367.55 98.325,369.45 99.025,370.55 C99.425,371.3 99.725,372.7 99.725,372.95 C99.725,373.25 99.025,375.25 98.725,376.25 C98.475,376.8 98.075,377.75 97.625,378.4 C97.4059675,378.794259 97.0334141,379.073377 96.7763484,379.405484 C96.8542508,379.274798 96.8961035,379.121104 96.775,379 C96.525,379 96.175,379.5 95.925,379.65 C95.725,379.5 95.575,379.25 95.525,379.25 C95.525,379.05 95.325,378.75 95.325,378.4 C95.325,378.15 96.425,373.5 96.425,373.25 C96.425,372.95 96.325,372.45 96.175,371.75 C96.025,371.05 95.775,370.6 95.525,370.45 C94.925,370.85 94.175,372.2 93.975,372.8 C93.825,372.85 93.725,373.05 93.525,373.25 C92.475,375.45 90.875,379.3 89.775,381.9 C89.525,382.65 89.575,383.35 89.325,384.15 C88.675,386 87.925,387.85 87.325,389.65 C88.225,389.8 90.575,389.65 90.875,389.65 C91.125,389.65 91.325,389.55 91.475,389.35 C92.225,389.4 93.075,389.4 93.975,389.35 C94.725,389.3 95.775,389.1 96.775,389.25 C96.925,389.1 96.875,389.05 97.225,389.05 C97.475,389.05 97.575,389.3 97.825,389.3 C98.625,389.3 98.025,389 100.275,389 C100.547593,389.034074 100.91307,388.998485 101.244833,389.019831 L101.305145,389.053443 Z M96.7763484,379.405484 C96.7400037,379.452439 96.7059675,379.500452 96.675,379.55 C96.7038965,379.511471 96.7309374,379.472943 96.7546928,379.434772 L96.7763484,379.405484 Z M101.244833,389.019831 C101.399895,389.029808 101.547593,389.052222 101.675,389.1 C101.590258,389.1 101.460634,389.073071 101.305145,389.053443 L101.244833,389.019831 Z M68.375,412.5 L68.525,411.65 L68.375,411.65 L68.175,412.5 L68.375,412.5 Z M68.175,414.05 L68.375,414.05 L68.375,413.75 L68.175,413.75 L68.175,414.05 Z M123.025,399.6 L123.025,399.9 C122.275,400.85 121.825,401.7 121.025,402.45 C121.025,402.6 121.075,402.65 121.225,402.65 C121.025,402.8 120.625,403.2 120.425,403.55 C119.875,404.1 119.225,404.35 118.575,404.9 C118.575,405 118.675,405.15 118.825,405.35 C118.625,405.5 118.425,405.5 118.275,405.7 C117.925,405.85 117.725,406.15 117.575,406.4 C117.125,406.45 116.625,406.65 116.225,406.85 L115.875,407.15 C115.425,407.1 114.375,407.1 113.925,406.9 C113.675,406.85 113.175,406.55 112.725,406.4 C112.475,406.2 112.225,406.45 112.025,406.25 C110.625,405.85 108.725,404.1 108.525,404.1 C108.275,404.1 107.375,405.05 106.625,405.4 C105.225,406.05 103.775,407 102.425,407.15 C101.825,407.2 100.425,407.5 100.175,407.5 C99.925,407.5 100.075,407.4 99.875,407.4 C97.925,407.4 95.825,405.45 95.425,404.3 C95.225,403.9 95.175,403.35 94.825,402.9 C94.675,402.65 94.425,402.5 94.375,402.35 C94.175,401.75 94.175,400.65 94.175,400.4 C94.175,400.15 94.275,399.05 94.425,398.3 L94.425,398.35 C94.425,398.45 94.425,398.5 94.475,398.5 C94.625,398.15 94.525,397.9 94.675,397.7 C94.675,397.6 94.675,397.5 94.625,397.45 C94.625,397.25 94.775,397.2 94.825,397.05 C94.875,396.7 94.775,396.45 94.925,396.1 C95.325,394.45 96.525,391.5 97.825,389.65 C97.975,389.6 97.975,389.1 98.225,388.85 C98.275,388.6 98.675,388.25 98.725,387.85 C98.875,387.8 98.975,387.8 99.025,387.75 C99.125,387.3 99.325,386.95 99.575,386.75 C99.575,386.2 100.175,385.65 100.775,385 C101.125,384.6 101.925,384.8 101.925,384.25 C102.075,384.4 102.075,384.65 102.325,384.65 C102.575,384.65 102.325,384.55 102.675,384.55 C102.875,384.55 103.125,384.75 103.375,384.75 C103.625,384.75 103.475,385 103.525,385 L103.775,384.75 C103.925,384.95 104.075,385.4 104.125,385.55 C104.275,385.8 104.525,385.95 104.525,386.35 C104.725,387.1 104.825,388.55 104.825,388.75 C104.825,392.5 102.925,394.85 100.475,398.55 L99.925,399.25 C99.475,400 99.225,400.85 97.875,401.85 C98.225,402.7 98.675,403.25 99.325,403.45 C99.875,403.7 100.175,403.85 100.425,403.8 C101.775,403.85 103.425,402.85 104.825,402.25 C105.175,402.05 105.725,401.65 106.325,401.3 C106.525,401.15 106.975,400.85 107.025,400.4 C107.225,399.65 107.175,399 107.175,397.95 C107.175,395.75 107.925,394.35 108.275,392.8 C108.275,392.75 108.525,392.35 108.675,392.1 C109.125,390.95 109.725,389.6 111.325,388.15 C111.775,387.75 112.075,386.95 112.425,386.5 C112.775,386.15 113.675,386.2 113.625,385.65 C113.975,385.9 114.425,386.25 114.675,386.25 C114.925,386.25 114.725,386.15 114.925,386.15 C115.975,386.15 116.675,387.6 117.025,388.1 C117.175,388.25 117.375,388.8 117.225,389.15 L117.275,389.15 C117.325,389.15 117.375,389.2 117.375,389.3 C117.375,390.25 116.675,392.25 116.525,392.75 C116.275,393.4 115.625,394.35 115.175,395.1 C114.575,396.15 113.925,397.75 113.125,398.8 C112.775,399.35 111.675,400.75 111.675,400.85 C111.675,401.05 111.725,401.3 111.925,401.45 C112.325,402.3 113.875,403.5 114.875,403.5 L115.725,403.5 C116.675,403.5 119.575,402.2 119.625,402.15 C119.875,402.15 119.575,402.25 119.825,402.25 C120.525,402.1 122.475,400.15 123.025,399.6 Z M101.225,390.15 C101.075,390.4 100.575,391.35 99.775,393 C99.025,394.65 98.625,395.5 98.625,395.6 C98.625,395.85 98.875,395.95 98.925,395.95 C99.075,395.55 99.575,394.6 100.325,393.1 C101.125,391.55 101.425,390.6 101.225,390.15 Z M113.625,390.1 L112.725,391.55 C112.575,391.85 112.225,392.65 111.775,393.9 C111.325,395.15 111.025,395.9 110.875,396.25 C110.725,396.55 110.675,397 110.675,397.65 C111.125,396.9 111.725,395.4 112.275,394.25 C112.825,393.1 113.375,391.95 113.625,390.1 Z" id="Pure-coffee" fill="#6D1F37"></path>
                    <path d="M418.949994,36.800002 C418.199994,37.0500042 417.049999,37.85 416.8,37.85 C416.45,37.85 416.75,37.7 416.4,37.7 C416.2,37.7 414.35,38.3 413.55,38.45 C410.1,38.8 406.55,40 403.5,40 C403.25,40 401.3,39.75 400.2,39.35 C399.6,39 398.5,37.85 397.95,37 C397.55,36.35 397.45,35.45 397.3,34.7 C397.15,34.55 397.1,34.3 397.1,33.95 C397.1,31.55 399.3,26.8 400.1,24.6 C400.55,23.15 401.05,21.3 401.65,19.7 C401.7,19.55 401.9,19.25 401.95,19 C402.6,16.65 403.85,13.4 404.1,10.6 C404.45,10.05 404.55,9.35 404.6,8.75 C404.75,7.9 405.05,6.85 405.2,5.9 C405.25,5.65 405.25,5.05 405.25,4.65 L406,4.65 C406.25,4.65 406.45,4.65 406.6,4.7 C408.75,5.65 408.9,7.2 408.9,8.4 C408.9,8.65 408.75,9.25 408.75,9.6 C408.55,11.25 408.5,12.05 408.15,13.1 C406.85,17.7 406.4,20.85 404.8,25.2 C403.75,28 402.5,31.6 401.5,34.95 L401.5,35.25 L411.8,34.3 L416.2,34.3 C416.4,34.3 417.95,34 418.7,33.95 L418.7,34 C418.95,34.25 419.15,34.75 419.5,34.95 C419.55,35.2 419.5,35.55 419.65,35.8 C419.45,35.95 419.1,36.1 418.7,36.5 C418.7,36.6993664 418.799367,36.7993654 418.948576,36.799997 L418.949994,36.800002 Z M439.45,34.55 C439.3,34.95 438.7,35.15 438.55,35.5 C438.3,35.75 438.2,35.95 438.35,36.2 C437.95,36.65 437.2,37.3 436.45,37.85 C436.45,37.9 436.7,38.2 436.85,38.2 C435.8,38.35 434.1,39.9 433.65,39.9 L431.55,39.9 C429.5,39.9 427.65,35.75 427.65,35.4 C427.65,34.8 427.65,33.8 427.5,32.85 C426.95,33.8 426.4,34.5 425.8,35.5 C425.25,36.3 422.7,40.05 421.2,40.05 C420.95,40.05 420.4,40.25 420.15,40.25 C418.5,40.25 417.95,39.2 417,38.4 C416.95,38 416.6,37.15 416.6,36.9 C416.6,33.85 420.65,27 422.35,24.75 C422.7,24.3 423.7,23.3 424.35,22.85 C424.8,22.65 425.35,22 425.8,21.6 C425.95,21.45 425.75,21.3 425.9,21.15 C426.35,20.95 426.7,21.05 426.95,20.85 C427.2,20.7 427.4,20.45 427.55,20.15 L427.95,20.15 C428.3,20.45 428.55,20.6 428.8,20.6 C429.05,20.6 429.35,20.7 429.6,20.7 C430.2,20.05 429.8,19.7 430.45,19.7 C430.8,19.7 430.55,20.1 430.9,20.1 C431.3,20.1 430.95,19.95 431.2,19.95 C431.8,19.95 433,20.5 433.4,20.95 C433.55,21.2 433.8,21.9 433.6,22.1 C433.6,22.3 433.75,21.9 433.75,22.3 C433.75,22.65 432.7,25.95 432.3,27.85 C431.75,30.5 431.2,35.5 431.2,35.8 C431.2,36.05 431.35,36.9 431.35,37.35 C431.9,37.55 432.45,37.3 432.85,37.3 C433.6,37.3 439.15,34.7 439.45,34.55 Z M427.4,25.85 L427.1,26.15 C426.9,25.95 427.1,25.75 427.1,25.6 C425.45,27.6 423.9,30.3 422.7,32.65 L423,33 C424.6,31.05 425.95,28.25 427.4,25.85 Z M455.35,23.45 C455.4,23.7 455.3,25.35 454.9,26.2 C455.1,26.75 454.9,27.35 454.85,27.8 C454.7,28.55 454.25,29.35 454.1,30.2 C454.1,30.4 454.2,30.75 454.05,31 C453.6,33.25 452.9,35.75 452.45,37.95 L452.1,38.3 C451.45,41.25 450.7,44.1 450.25,47.05 C450.1,47.4 450.3,48.2 450.25,48.65 C450.05,49 449.9,49.35 449.85,49.6 C449.85,51.1 449.4,53.55 449.5,53.9 L449.55,54.65 C449.75,54.8 449.55,54.9 449.95,54.9 C450.75,54.75 451.35,54.15 452.1,53.7 L452.3,55.4 C451.2,55.8 451.95,56.95 451.45,57.1 C451.1,57.1 451.35,57 451.1,57 C450.7,57.05 450.35,57.5 450,57.55 C449.75,57.55 448.9,57.15 448.55,57 C448.2,56.85 447.85,56.2 447.65,55.85 C447.1,55.2 446.15,53.75 446,52.55 C445.4,45.85 449.55,29.35 450.15,27.1 L450.1,27.05 C450.1,27 450.1,26.95 450.05,26.9 C447.3,30.15 444.95,33.1 441.95,36.3 C441.7,36.55 441.25,36.9 440.6,37.3 C439.95,37.7 439.45,37.9 439.1,37.95 C437,38.2 436.1,35.75 435.95,34.25 C435.7,31.85 439.25,23.95 439.75,23 C440.35,22.15 441,20.9 441.65,19.9 C442.8,19.5 444.3,20.7 444.3,21.55 C444.35,21.9 444.35,22.1 444.35,22.15 C443.95,22.7 443.5,23.8 443.1,24.65 C442.35,26.25 441.5,28.55 440.55,30.7 C440.35,30.95 440.2,31.1 440.05,31.45 C439.9,31.8 439.95,32.1 440,32.65 L451.05,19.45 C454.3,20.6 455.2,21.1 455.35,23.45 Z M464.790632,18.8364944 C464.724496,18.8154919 464.7,18.7699938 464.7,18.7 C464.7,18.65 464.75,18.65 464.8,18.6 C464.823062,18.684559 464.817759,18.7632088 464.790632,18.8364944 Z M464.790632,18.8364944 C464.818985,18.8454981 464.854991,18.85 464.9,18.85 C465.3,18.85 464.8,18.7 465.2,18.7 C465.45,18.7 466.15,19.15 466.6,19.3 C466.75,19.75 466.6,20.25 466.95,20.25 C467.35,20.25 466.95,20.1 467.3,20.1 C467.55,20.1 467.7,20.35 467.9,20.55 C467.9,22.65 468.9,21.55 468.9,22.85 C468.9,23.15 468.35,25.65 467.95,26.9 C467.55,27.7 466.5,29.2 465.65,30.25 C464.2,32 461.35,34.85 461.35,35.3 C461.35,35.7 462.25,36.3 462.85,36.55 C463.2,36.75 463.95,36.7 464.3,36.7 C464.85,36.7 465.25,36.2 466.05,36.55 C467.4,36.15 468.65,35.7 469.65,35.45 C469.8,35.6 470,35.65 470.15,35.65 C469.6,35.85 469.35,36.2 468.9,36.35 C468.9,36.6 469.1,36.75 469.45,36.85 C469.25,37.1 469.1,37.6 468.9,38.05 C468.05,37.85 467.6,38.95 467.6,39.75 C467,39.95 466.4,40.05 465.65,40.05 C465.404068,40.1975594 465.641997,40.2483465 465.8402,40.2499601 C465.299753,40.300148 464.54991,40.7500082 464,40.8 L464,40.95 C464,41 463.95,41.05 463.8,41.05 C463.2,41.05 461.75,40.05 461.6,41.05 L461.05,40.3 C459.6,39.95 459.2,39.6 457.95,38.25 C457.05,37.45 457.5,38.7 456.55,34.7 C456.3,32.7 456.75,31.65 456.95,30.85 C457.15,29.9 457.9,27.95 458.65,26.4 C459.05,25.6 459.55,24.45 460.3,23.25 C460.65,22.8 461.25,22.05 461.6,21.4 C462.35,20.75 462.45,20.25 463.45,19.65 C463.830815,19.4807487 464.64132,19.2398825 464.790632,18.8364944 Z M465.05,23.7 C463.7,24.45 463.25,25.45 462,27.65 C461.4,28.75 461.05,29.4 461,29.6 L460.7,30.95 C461.45,30 462.2,29.1 462.85,28.15 C463.6,27.15 464.8,25.7 465.05,23.7 Z M485.5,24.65 C485.3,25.1 484.55,25.5 484.75,25.95 C484.2,25.95 483.6,25.75 482.65,25.95 C482.6,25.6 482.55,25.15 482.4,24.5 C480.4,25.25 478.75,27.6 477.5,29.55 C477.5,29.4 477.45,29.3 477.3,29.3 C477.15,29.6 477.1,29.8 477.2,29.9 C477.15,29.9 477.1,29.9 477.05,29.95 C476.95,30.1 476.9,30.15 476.9,30.15 C476.85,30.3 477.05,30.35 477.05,30.55 C476.9,30.55 476.9,30.65 476.7,30.65 L476.65,30.65 C476.55,30.65 476.5,30.7 476.5,30.75 C476.35,30.95 476.7,31.05 476.7,31.1 C476.4,31.65 476,32.3 475.5,32.95 C475.5,33.15 475.65,33.25 475.6,33.3 C475.4,33.75 475.1,34 474.75,34.35 C474.5,34.7 474.55,35.2 474.35,35.6 C473.7,36.95 473.05,38.6 473.5,40 C473.2,40.2 472.9,40.3 472.55,40.3 C472.35,40.3 471.6,39.95 471.15,39.75 C470.95,39.55 471.15,38.9 470.6,39.05 C470.25,38 469.75,37.25 469.75,36.45 C469.75,36.15 470.55,33.4 470.65,32.05 C471.1,30.2 471.45,28.35 471.6,26.4 C471.75,25.25 471.95,23.75 472.1,22.3 C472.25,21.35 472.3,20.25 472.55,19.3 L473.15,19.3 C473.7,19.3 474.7,20.05 474.95,20.7 C475.2,21.45 475.4,22.15 475.45,22.9 C475.5,23.45 475.3,23.9 475.3,24.65 C475.8,23.4 478.55,21.3 480.15,21.3 C481.6,21.3 483.8,22.15 484.95,23.55 C485.15,23.8 485.25,24.25 485.5,24.65 Z M498.149831,22.9824643 C498.145172,22.7453128 498.044071,22.65 497.8,22.65 L497.9,22.6 C497.95,22.6 498,22.55 498.1,22.45 C497.85,20.55 501.25,19.9 501.8,19.35 C502.05,19.9 502.45,19.55 503,19.8 C503.25,20 504.1,20.85 504.55,21.3 C504.55,21.35 504.6,21.4 504.65,21.5 C504.7,21.65 504.8,21.8 504.85,21.85 C505,21.9 505.2,21.85 505.35,22 C506.9,24.15 507.95,26.1 507.95,28.25 C507.95,31.9 505.05,35.6 501.4,38.8 C501.2,38.95 501.15,39.35 501,39.55 C499.85,40.25 498.85,40.6 497.9,40.6 C496.35,40.6 495.55,39.65 494.55,38.85 C494.2,38.6 494,37.35 493.4,37.35 C493.25,36.75 493,35.6 493,35.35 C493,33.15 494.95,29 495.4,28.3 C495.55,28.15 495.45,27.7 495.65,27.5 C496,26.9 496.55,26.3 496.8,25.7 C497,25.55 497,25.6 497.2,25.55 C497.4,25.5 497.3,25.2 497.5,24.95 C497.75,24.5 498.4,24.25 498.75,23.8 C498.95,23.55 498.85,23.15 499.05,22.8 C498.9,22.8 498.6,22.55 498.4,22.9 C498.4,22.75 498.35,22.65 498.3,22.6 C498.208871,22.6455646 498.159264,22.7741745 498.15118,22.9479905 L498.149831,22.9824643 Z M502.4,24.4 L502.65,24.4 L502.65,23.65 L502.4,23.65 L502.4,24.4 Z M503.8,26.65 C503.8,26.25 503.45,25.35 503.2,24.8 C502.65,25.85 501.5,27.15 501.05,27.9 C499.95,29.9 497.9,33.95 497.9,34.35 L497.9,34.8 C498.55,34.35 499.65,33.3 499.9,33.3 C500.25,33.3 499.65,33.6 500.05,33.6 C500.5,33.6 502.55,30.35 502.65,30.1 C502.95,29.65 503.8,26.75 503.8,26.65 Z M537.75,24.7 C537.3,24.7 536.85,25 536.1,25.45 L535.85,25.75 C536.05,25.9 536.25,26 536.25,26.25 C535.8,26.4 535.2,26.7 534.75,26.75 C534.65,27.6 533.15,27.25 532.4,27.4 C531.6,27.6 530.2,28.3 529.85,28.3 C529.45,28.3 529.8,28.15 529.45,28.15 C529.1,28.15 527,29.05 525.7,29.3 C522.95,30.1 519.75,30.65 516.9,31.45 C516.7,31.65 516.4,32.05 516.4,32.2 C515.45,35.75 514.4,41.7 513.75,45.65 C513.7,45.65 513.65,45.5 513.5,45.15 C513.35,45.35 513.25,45.65 513.15,46.05 C513.1,46.8 512.9,48.2 512.9,48.55 L512.9,51.85 C513.95,52.4 513.4,53.5 513.5,54.35 L513.75,54.1 C513.6,54.75 514,54.55 514,54.75 C514,55.15 513.7,55.75 513.5,56.2 L513.35,56.2 C513.3,56.2 513.25,56.15 513.15,56.05 C513,56.05 512.95,56.25 512.95,56.45 C512.2,56 511.3,55.25 510.75,54.5 C510.5,53.2 510.25,50.6 510.25,50.25 L511.15,40.45 C511.15,40.05 512.5,35.05 512.75,32.35 C512.5,32.25 512.25,32.3 512,32.55 C511.85,32.3 511.45,32.15 511.05,32.15 C510.7,32.15 511,32.25 511,32.4 C510.85,32.25 510.65,32.15 510.45,32.15 C510.1,32.15 509.85,32 509.6,31.8 L508.7,31 C508.55,30.85 507.55,28.4 507.55,27.75 C507.55,27.55 508.2,27.7 507.85,26.95 C509.15,27.85 509.05,27.2 510.15,27.2 C510.5,27.2 510.2,26.95 510.45,26.95 C510.9,26.95 511.5,27.05 512.3,26.8 C512.65,26.65 513.25,26.55 514,26.55 C514.55,24 515.05,21.15 515.65,18.8 C516.05,17.4 516.35,15.75 516.8,14.4 C518.15,10.2 519.7,4.65 522.1,0.8 C522.35,0.25 523.85,-1.35 524.3,-1.35 C524.65,-1.35 524.8,-1.2 525.05,-1 C525.4,-0.8 525.95,-0.85 526.4,-0.8 C526.85,-0.6 527.45,-0.3 527.7,-0.1 C528.35,0.45 529.25,1.2 529.7,1.75 C530.05,2.5 530.7,3.7 530.7,4.05 C530.7,4.45 530.1,6.1 529.85,6.95 C529.4,6.95 528.95,7.5 528.55,8.05 C528.35,8.05 528.15,7.8 528.1,7.8 L527.7,8.05 C527.5,7.85 527.3,7.9 527.15,7.9 L527.4,7.65 C527.05,7.45 526.65,7.3 526.45,7.1 C526.2,6.65 525.9,5.85 525.9,5.5 C525.9,5.1 526.1,5.05 526.25,4.9 C526.45,5.05 526.35,5.1 526.55,5.3 C526.75,4.95 526.85,4.5 526.85,4.05 C526.85,3.8 526.9,3.45 526.55,3.45 C525.8,3.45 524.05,7.9 523.9,8.65 C523.75,9.1 523.4,9.95 522.85,11.1 C522.35,12.25 521.95,13.35 521.6,14.4 C521.15,16 520.4,18.5 520,20.55 C519.75,21.55 519.4,22.75 518.95,24 C518.8,24.15 518.7,24.05 518.5,24.25 C518.5,24.4 518.55,24.55 518.7,24.7 C518.75,24.9 518.55,25.2 518.35,25.45 L518.35,25.8 C519.35,26.15 520.95,25.7 522,25.55 C523.25,25.35 524.75,25.45 526.15,25.25 C526.45,25.25 526.7,25.15 526.85,25 C528.3,25.05 530.55,24.9 532.35,24.9 C532.5,24.85 532.75,24.9 532.8,24.7 C533.55,24.9 534.45,24.7 535.25,24.65 L535.3,24.6 C535.4,24.5 535.5,24.45 535.6,24.45 C535.95,24.45 535.4,24.7 535.8,24.7 C536.05,24.7 536.85,24.45 537.2,24.45 C537.55,24.45 537.55,24.7 537.75,24.7 Z M513.45,47.65 L513.45,48.5 L513.25,48.5 L513.25,47.65 L513.45,47.65 Z M536.7,24.85 L536.7,24.65 L537.2,24.65 L537.2,24.85 L536.7,24.85 Z M512.3,48.2 L512.55,48.2 L512.55,47.4 L512.3,47.4 L512.3,48.2 Z M372,86.75 L372.15,86.75 L371.1,88.1 L370.95,87.95 L372,86.75 Z M370.7,88.25 L370.8,88.35 L370.25,88.9 L370.2,88.8 L370.7,88.25 Z M378.35,79.55 C378.35,79.75 378.1,81.8 377.85,83 C376.1,91.4 375.65,94.7 374.3,99.7 C373.9,101.45 373.55,104.05 372.8,106.05 C372.25,107.8 371.15,110.15 370.6,112.1 C370.55,112.45 370.15,112.65 370,112.85 C369.6,113.45 369.35,114.85 368.8,115.45 C368.35,116.1 367.5,117 366.9,117.6 C366.65,118 365.75,118.5 365.5,118.5 C365.15,118.5 364.85,118.65 364.5,118.65 C364.3,118.65 363.35,118.6 362.75,118.45 C362.6,118.4 362.7,118.35 362.55,118.15 C361.85,117.9 361.25,117.6 360.75,117.2 C360.35,116.95 359.65,116.2 359.05,115.65 C358.9,115.5 358.9,115.1 358.65,114.75 C358.4,114.3 356.55,111.65 356.55,110.8 L356.35,106.6 C356.35,106.45 356.8,105.1 356.95,104.45 L357.2,104.8 C357.25,104.6 357.6,104.15 357.25,103.9 C357.85,103.25 358.4,101.95 359.05,101.1 C359.25,100.7 359.85,100.3 360.25,99.9 C359.85,100.3 359.8,100.8 359.4,101.45 L359.4,101.5 L359.6,101.5 C359.75,101.5 359.85,101.35 360,101 C360.05,101.15 360.25,101 360.25,101.35 C360.25,101.65 359.15,103.25 359,104 L359,104.05 C359,104.1 359,104.15 359.05,104.15 C359.25,104 359.4,103.65 359.4,103.5 C359.4,103.95 359.05,104.5 359,104.9 L358.7,104.7 L358.7,104.8 C358.65,104.95 358.75,105.1 359,105.2 C358.95,105.35 358.8,105.45 358.75,105.6 C358.75,106.4 358.45,107.8 358.5,108.15 C358.5,108.4 358.75,109.65 358.9,110.4 C358.9,110.75 361.05,115.4 361.85,115.4 C362.05,115.35 362.1,115.45 362.45,115.45 C362.65,115.45 363.3,115.4 363.7,115.15 C364.1,115.1 364.55,113.95 365,113.5 C366.65,111.65 366.95,110.55 367.5,109.15 C367.65,108.8 367.7,108.45 367.9,108.1 C370.7,101.6 371.95,91.6 372.75,86.6 C372.6,86.45 372.95,86 373,85.75 L373,85.65 C372.75,85.8 372.55,86.15 372.2,86.55 C372.35,86.35 372.45,86.05 372.4,85.8 C371.6,86.95 370.5,88.1 370.1,88.75 C369.95,88.9 370,89.35 370,89.5 C369.15,90.75 367.85,92.2 366.7,93.25 C366.35,93.8 365.45,94.6 364.9,95.2 C364.9,95.35 365,95.45 365,95.6 C364.6,95.8 364,95.95 363.8,96 C363.55,96 362.4,95.7 361.75,95.35 C361.6,95.15 361.4,94.85 361.15,94.6 C361.15,94.5 361.15,94.4 361.1,94.35 C360.35,93.5 360.55,93.15 360.4,92.3 C360.4,89.8 362.4,85.9 363.65,84.1 C367.4,78.75 369.15,74.45 373.5,74.2 C373.75,74.2 374.3,75.2 374.65,75.55 C374.5,75.75 374.6,76.2 374.8,76.4 C375.65,76.95 376.5,77.2 377.25,77.65 C377.25,77.85 378.3,78.7 378.35,79.55 Z M373.25,84.95 C373,85.15 372.7,85.65 372.5,85.8 C372.9,85.6 373.3,85.5 373.25,84.95 Z M372.5,80.25 L372.5,79.85 C372.35,79.85 372.4,80.05 372.2,80.2 C372.05,80.05 371.95,80 371.8,80.05 L371.75,79.45 L371.55,79.7 C371.4,79.45 371.35,79.15 371.5,78.85 C370.95,79.4 370.05,80.7 369.65,81.5 C369.25,82.3 368.5,83.1 368.1,83.65 C367.1,85.6 365.95,88.25 365.1,90.1 C366.45,88.7 368,86.9 368.95,85.75 C369.15,85.55 372.5,81.15 372.5,80.25 Z M384.849831,77.9824643 C384.845172,77.7453128 384.744071,77.65 384.5,77.65 L384.6,77.6 C384.65,77.6 384.7,77.55 384.8,77.45 C384.55,75.55 387.95,74.9 388.5,74.35 C388.75,74.9 389.15,74.55 389.7,74.8 C389.95,75 390.8,75.85 391.25,76.3 C391.25,76.35 391.3,76.4 391.35,76.5 C391.4,76.65 391.5,76.8 391.55,76.85 C391.7,76.9 391.9,76.85 392.05,77 C393.6,79.15 394.65,81.1 394.65,83.25 C394.65,86.9 391.75,90.6 388.1,93.8 C387.9,93.95 387.85,94.35 387.7,94.55 C386.55,95.25 385.55,95.6 384.6,95.6 C383.05,95.6 382.25,94.65 381.25,93.85 C380.9,93.6 380.7,92.35 380.1,92.35 C379.95,91.75 379.7,90.6 379.7,90.35 C379.7,88.15 381.65,84 382.1,83.3 C382.25,83.15 382.15,82.7 382.35,82.5 C382.7,81.9 383.25,81.3 383.5,80.7 C383.7,80.55 383.7,80.6 383.9,80.55 C384.1,80.5 384,80.2 384.2,79.95 C384.45,79.5 385.1,79.25 385.45,78.8 C385.65,78.55 385.55,78.15 385.75,77.8 C385.6,77.8 385.3,77.55 385.1,77.9 C385.1,77.75 385.05,77.65 385,77.6 C384.908871,77.6455646 384.859264,77.7741745 384.85118,77.9479905 L384.849831,77.9824643 Z M389.1,79.4 L389.35,79.4 L389.35,78.65 L389.1,78.65 L389.1,79.4 Z M390.5,81.65 C390.5,81.25 390.15,80.35 389.9,79.8 C389.35,80.85 388.2,82.15 387.75,82.9 C386.65,84.9 384.6,88.95 384.6,89.35 L384.6,89.8 C385.25,89.35 386.35,88.3 386.6,88.3 C386.95,88.3 386.35,88.6 386.75,88.6 C387.2,88.6 389.25,85.35 389.35,85.1 C389.65,84.65 390.5,81.75 390.5,81.65 Z M408.896755,90.6016583 C408.800012,90.6521931 408.801094,90.7516403 408.9,90.9 C408.95,90.75 408.9,90.65 409.15,90.65 C409.5,90.65 410.45,90.2 410.9,89.95 C410.55,90.35 410.45,90.85 410,91 C410,91.05 410,91.1 410.05,91.2 L410.606044,90.9775822 C410.442874,91.0743257 410.457526,91.2075258 410.65,91.4 C410.1,91.65 409.5,92.8 410.25,92.85 C409.85,93.05 409.7,93.7 409.55,93.9 C409,94.3 408.15,94.7 407.6,95.15 C407.25,95.4 406.9,95.95 406.35,96.1 C405.9,96.3 405.25,96.45 404.7,96.6 L404.4,96.3 C403.8,96.75 403.65,96.5 403.3,96.5 C402.9,96.5 403.25,96.7 402.9,96.7 C402.7,96.7 401.45,96.15 401,96 C397.7,94.75 396.35,90.15 396.35,87.7 C396.35,83.55 397.45,80.1 398.4,76.45 C398.45,76 398.9,75.65 398.95,75.3 C399.15,74.15 399.5,72.5 399.9,71.1 C400.3,69.7 401.15,67.4 402,64.95 C402.2,64.5 402.7,64.05 402.85,63.5 C403.45,61.65 404.3,61 404.25,59.8 C404.4,59.8 404.65,59.7 404.9,59.7 C405.25,59.7 405.65,60.2 406.1,60.25 C406.15,60.25 406.2,60.25 406.2,60.2 L406.6,60.2 C406.8,60.65 407.15,61.4 407.3,61.85 C407.5,62.2 407.3,62.85 407.5,63.2 L402.6,79.1 C402.15,80.25 401.7,81.45 401.5,82.6 C401.1,84.25 400.4,88.25 400.4,89.75 C400.4,90 400.45,91.25 400.5,91.85 C400.55,92.1 400.85,92.45 401.05,92.65 C401.5,92.9 401.9,93.05 402.25,93.05 C402.65,93.05 402.7,92.8 402.9,92.8 C403.25,92.8 403.3,92.95 403.7,92.95 C403.9,92.95 404.25,92.75 405.45,92.35 C405.7,92.15 405.95,91.9 406.15,91.9 C406.55,91.9 406.25,92.05 406.6,92.05 C406.849766,92.05 407.748313,91.2015932 408.896766,90.6016884 L408.896755,90.6016583 Z M414.582302,94.4983082 C412.952466,95.6740913 413.034516,96.5513465 411.9,96.65 C411.65,96.65 410.8,96.5 410.25,96.5 C408.5,94.95 407.9,94.05 407.75,92.6 C407.35,88.8 410.7,82.15 412.4,79.15 C412.8,78.5 413.35,77.75 414,77.1 C414.15,76.9 414.7,76.6 414.95,76.45 C415.15,76.3 415.65,76.25 416.05,76.25 C416.3,76.2 416.2,76.65 416.6,76.65 C416.95,76.6 416.8,76.5 416.8,76.3 C417.25,76.7 418.15,76.75 418.7,77.1 C418.95,77.35 419.3,77.9 419.85,78.3 C420,78.1 419.95,78.2 420.1,78.05 C422.05,72 423.4,67.7 426.35,62.1 C427.15,62.1 429.85,62.35 430,64.05 C430,64.3 429.85,64.95 429.7,65.3 C429.5,65.55 429,66.2 429,66.45 C428.95,68.3 427.8,69.85 426.6,73.25 C426.45,73.45 426.65,74 426.5,74.35 L425.85,76.75 C425.7,77.3 425.4,78.05 425.25,78.5 C425,79.55 424.75,80.55 424.45,81.6 C424.2,82.6 423.95,84.3 423.7,86.65 C423.85,86.9 424.05,87.2 423.9,87.4 C423.9,88.55 423.4,90.6 423.4,90.95 L423.5,91.8 C423.95,92 424.9,92.2 425.3,92.15 C427.3,91.9 431.7,89.5 432.15,89.05 C432,89.6 431.95,90.25 431.9,90.7 C431.75,91.25 431,91.95 430.6,92.3 C430.4,92.45 430.3,92.75 430.15,93.2 C429.55,93.45 428.65,93.75 428.5,94.2 C427.65,94.55 426,95 425.75,95 L424.5,95.15 C424.15,95.2 424.55,95 424.2,95.05 C423.75,95.05 422.3,94.25 421.6,93.85 C421.35,93.45 420.7,92.7 420.15,91.85 C419.9,91.4 419.65,90.6 419.4,89.45 C419.2,88.3 419.05,87.55 419,87.1 C418.55,87.7 418,88.6 417.55,89.65 C416.95,90.7 416.15,92.05 415.3,93 C414.95,93.35 414.35,93.95 414.2,94.35 C414.32143,94.5119066 414.44286,94.5755116 414.56429,94.5142891 L414.582302,94.4983082 Z M417.45,81.9 C417.4,81.55 417.4,81 417.15,80.55 C416.9,80.8 416.4,81.25 416.2,81.2 C416.25,81.4 416.3,81.55 416.1,81.75 C415.7,82.4 414.9,83.35 414.55,84.1 C413.95,85.15 413.6,86.3 413.25,87.3 C413.25,87.45 413.4,87.5 413.4,87.7 C413.2,88.15 413,88.8 412.95,89.15 C413.4,88.35 414.25,87.25 414.7,87.05 C414.75,86.7 414.9,86 415.15,86 C415.35,85.95 415.55,86.2 415.5,86 L415.5,85.7 C416.1,85.45 415.95,85.1 416.2,84.35 C416.4,84.55 416,84.7 416.4,84.65 C416.65,84.65 416.8,84.05 416.65,83.8 C416.85,83.6 417.35,83.45 417.5,82.8 C417.3,82.55 417.45,82.15 417.45,81.9 Z M437.940632,73.8364944 C437.874496,73.8154919 437.85,73.7699938 437.85,73.7 C437.85,73.65 437.9,73.65 437.95,73.6 C437.973062,73.684559 437.967759,73.7632088 437.940632,73.8364944 Z M437.940632,73.8364944 C437.968985,73.8454981 438.004991,73.85 438.05,73.85 C438.45,73.85 437.95,73.7 438.35,73.7 C438.6,73.7 439.3,74.15 439.75,74.3 C439.9,74.75 439.75,75.25 440.1,75.25 C440.5,75.25 440.1,75.1 440.45,75.1 C440.7,75.1 440.85,75.35 441.05,75.55 C441.05,77.65 442.05,76.55 442.05,77.85 C442.05,78.15 441.5,80.65 441.1,81.9 C440.7,82.7 439.65,84.2 438.8,85.25 C437.35,87 434.5,89.85 434.5,90.3 C434.5,90.7 435.4,91.3 436,91.55 C436.35,91.75 437.1,91.7 437.45,91.7 C438,91.7 438.4,91.2 439.2,91.55 C440.55,91.15 441.8,90.7 442.8,90.45 C442.95,90.6 443.15,90.65 443.3,90.65 C442.75,90.85 442.5,91.2 442.05,91.35 C442.05,91.6 442.25,91.75 442.6,91.85 C442.4,92.1 442.25,92.6 442.05,93.05 C441.2,92.85 440.75,93.95 440.75,94.75 C440.15,94.95 439.55,95.05 438.8,95.05 C438.554068,95.1975594 438.791997,95.2483465 438.9902,95.2499601 C438.449753,95.300148 437.69991,95.7500082 437.15,95.8 L437.15,95.95 C437.15,96 437.1,96.05 436.95,96.05 C436.35,96.05 434.9,95.05 434.75,96.05 L434.2,95.3 C432.75,94.95 432.35,94.6 431.1,93.25 C430.2,92.45 430.65,93.7 429.7,89.7 C429.45,87.7 429.9,86.65 430.1,85.85 C430.3,84.9 431.05,82.95 431.8,81.4 C432.2,80.6 432.7,79.45 433.45,78.25 C433.8,77.8 434.4,77.05 434.75,76.4 C435.5,75.75 435.6,75.25 436.6,74.65 C436.980815,74.4807487 437.79132,74.2398825 437.940632,73.8364944 Z M438.2,78.7 C436.85,79.45 436.4,80.45 435.15,82.65 C434.55,83.75 434.2,84.4 434.15,84.6 L433.85,85.95 C434.6,85 435.35,84.1 436,83.15 C436.75,82.15 437.95,80.7 438.2,78.7 Z M462.933366,89.9759268 C462.917501,89.9351204 462.96619,89.9 463.05,89.9 L463.1,89.9 C463.04772,89.9215269 462.992036,89.9470258 462.933366,89.9759268 Z M462.933366,89.9759268 C462.936431,89.9838097 462.941905,89.9919049 462.95,90 L462.9,90.1 L463.1,90.1 C463.45,90.05 464.2,89.3 464.95,88.9 C464.75,89.25 464.65,89.6 464.6,89.95 C464.45,90.1 464.7,90.35 464.65,90.4 C464.5,90.55 464.35,90.65 464.2,90.85 C464.3,90.9 464.45,90.95 464.6,90.95 L464.55,91 C464.45,91.1 464.4,91.15 464.35,91.1 C464.15,91.3 464.3,91.7 463.95,91.95 C464.1,92.2 463.95,92.5 464.15,92.75 C463.9,93 463.5,93.2 463.45,93.6 C463.2,94.05 462.3,94.4 461.9,94.85 C461.55,95 461.15,95.7 461,95.95 C460.35,96 459.35,95.85 459,95.85 C458.45,95.85 456.1,94.65 455.95,94.15 C455.2,92.7 454.5,91.05 454.3,89.5 C454.05,88.5 454.05,86.55 454,85.1 C453.85,85.05 454.05,84.9 453.9,84.85 C452.55,86.4 450.95,88.7 449.55,90.35 C449.5,90.4 449.5,90.5 449.55,90.7 C449.1,91.55 448.6,92.45 447.95,93.25 C447.5,93.85 446.4,94.95 446.15,95 C445.8,95 445.55,94.5 445.3,94.55 C444.9,94.55 445.35,94.7 445,94.7 C443.75,94.85 443.55,92.35 443.35,92.15 C443.15,92 442.9,91.7 442.85,91.25 C442.85,91 443.25,89.35 443.3,88.35 C443.55,87.9 443.8,87.25 443.95,86.8 C444.15,86.05 444.1,85.15 444.3,84.4 C445.25,81.65 446.65,77.65 448,74.1 C448,73.9 447.95,73.45 447.95,73.05 C448.4,72.65 448.95,72.1 449.35,71.95 C449.6,72.3 449.9,72.6 450.25,73.05 C450.45,72.85 450.45,72.45 450.4,72.2 C450.75,72.45 451.1,72.75 451.65,72.9 C451.65,73.15 451.45,73.5 451.65,73.75 L451.7,73.75 C451.85,73.75 451.8,73.7 452,73.65 L452.05,74.2 C452.1,74.55 451.8,74.9 451.65,75.35 C451.5,76.2 451.4,77.5 451.2,78.5 C451.2,78.85 451.05,79 450.9,79.2 C450.65,79.95 450.55,80.7 450.6,81.4 C451.35,80.65 452.55,78.6 453.55,78.2 C454,78 454.55,78.15 455.15,77.8 C455.5,78.05 455.6,78.3 455.75,78.55 C456,78.4 456.1,78.25 456.45,78.2 C456.7,78.2 457.35,78.85 457.75,79.2 L457.75,79.25 C457.75,79.3 457.7,79.35 457.65,79.4 C457.65,79.55 457.9,79.6 457.95,79.6 C459.15,81.95 458.85,81.05 459,82.4 C459.15,82.75 458.75,86.75 458.9,88.8 C458.75,89.6 458.95,90.55 459,91.55 C459.15,91.65 459.4,91.7 459.65,91.65 C460.44772,91.65 462.038136,90.416919 462.933366,89.9759268 Z M456.3,78.85 L456.65,78.8 L456.6,78.55 L456.25,78.6 L456.3,78.85 Z M477.732013,77.9443743 C477.704471,77.9808381 477.677133,78.0160837 477.65,78.05 C477.65,78.0269232 477.660651,78.0038464 477.686868,77.9709382 L477.732013,77.9443743 Z M477.732013,77.9443743 C478.313515,77.1745039 478.986177,75.8615615 479.75,75.05 C479.95,74.7 480.5,74.75 480.9,74.55 C481.25,74.35 481.35,74 481.75,74 C482,74 483.3,74.25 483.85,74.5 C484.4,74.85 485.45,75.65 485.8,76.45 C486.05,77 486.3,77.95 486.3,78.35 C486.3,78.85 485.75,81.8 485.2,82.1 C485.05,82.2 484.8,82.25 484.45,82.25 C483.65,82.25 483.25,81.65 483.05,80.9 C482.85,80.35 482.4,79.9 482.6,79.35 L482.6,79.3 L482.45,79.3 C480.6,81.65 479.15,84.25 478.3,86.1 C477.8,87.25 476.95,90.15 476.95,90.4 L476.95,91.1 C477.4,91.3 478.15,91.45 478.4,91.45 C478.65,91.45 479.8,90.9 480.6,90.55 C482.4,89.8 484.7,89.05 487.05,87.85 C487.65,87.5 489.25,86.6 490.45,86.05 C490.2,86.3 490.05,87.05 489.65,87.05 C489.3,87.05 489.5,86.85 489.35,87.05 C489.35,87.25 489.15,87.3 489.4,87.3 C489.75,87.3 489.55,87.25 489.75,87.25 C489.55,87.45 489.3,88 489.45,88.2 C488.85,88.75 488.05,89.25 487.5,89.8 C487.5,89.95 487.6,90 487.75,90 L487.75,90.5 C486.55,91.15 485.25,92.05 483.45,93.1 C483.25,93.3 483.1,93.75 482.85,93.95 C482.3,94.25 479.7,95.15 478.6,95.15 C476,95.15 473.75,92.4 473.6,90.2 C473.6,89.8 473.55,89.3 473.55,88.95 C473.55,88.2 473.65,87.2 473.9,85.95 C474.15,84.65 474.5,83.55 475,82.7 C475.15,82.65 475.1,82.3 475.15,82.05 C475.6,81.05 476.1,80.1 476.75,79.3 C477.2,78.85 477.65,78.5 477.9,77.95 C477.9,77.9 477.9,77.85 477.85,77.8 C477.76923,77.8807697 477.717455,77.9325449 477.686868,77.9709382 L477.732013,77.9443743 Z M503.9,79.65 C503.7,80.1 502.95,80.5 503.15,80.95 C502.6,80.95 502,80.75 501.05,80.95 C501,80.6 500.95,80.15 500.8,79.5 C498.8,80.25 497.15,82.6 495.9,84.55 C495.9,84.4 495.85,84.3 495.7,84.3 C495.55,84.6 495.5,84.8 495.6,84.9 C495.55,84.9 495.5,84.9 495.45,84.95 C495.35,85.1 495.3,85.15 495.3,85.15 C495.25,85.3 495.45,85.35 495.45,85.55 C495.3,85.55 495.3,85.65 495.1,85.65 L495.05,85.65 C494.95,85.65 494.9,85.7 494.9,85.75 C494.75,85.95 495.1,86.05 495.1,86.1 C494.8,86.65 494.4,87.3 493.9,87.95 C493.9,88.15 494.05,88.25 494,88.3 C493.8,88.75 493.5,89 493.15,89.35 C492.9,89.7 492.95,90.2 492.75,90.6 C492.1,91.95 491.45,93.6 491.9,95 C491.6,95.2 491.3,95.3 490.95,95.3 C490.75,95.3 490,94.95 489.55,94.75 C489.35,94.55 489.55,93.9 489,94.05 C488.65,93 488.15,92.25 488.15,91.45 C488.15,91.15 488.95,88.4 489.05,87.05 C489.5,85.2 489.85,83.35 490,81.4 C490.15,80.25 490.35,78.75 490.5,77.3 C490.65,76.35 490.7,75.25 490.95,74.3 L491.55,74.3 C492.1,74.3 493.1,75.05 493.35,75.7 C493.6,76.45 493.8,77.15 493.85,77.9 C493.9,78.45 493.7,78.9 493.7,79.65 C494.2,78.4 496.95,76.3 498.55,76.3 C500,76.3 502.2,77.15 503.35,78.55 C503.55,78.8 503.65,79.25 503.9,79.65 Z M509.890632,73.8364944 C509.824496,73.8154919 509.8,73.7699938 509.8,73.7 C509.8,73.65 509.85,73.65 509.9,73.6 C509.923062,73.684559 509.917759,73.7632088 509.890632,73.8364944 Z M509.890632,73.8364944 C509.918985,73.8454981 509.954991,73.85 510,73.85 C510.4,73.85 509.9,73.7 510.3,73.7 C510.55,73.7 511.25,74.15 511.7,74.3 C511.85,74.75 511.7,75.25 512.05,75.25 C512.45,75.25 512.05,75.1 512.4,75.1 C512.65,75.1 512.8,75.35 513,75.55 C513,77.65 514,76.55 514,77.85 C514,78.15 513.45,80.65 513.05,81.9 C512.65,82.7 511.6,84.2 510.75,85.25 C509.3,87 506.45,89.85 506.45,90.3 C506.45,90.7 507.35,91.3 507.95,91.55 C508.3,91.75 509.05,91.7 509.4,91.7 C509.95,91.7 510.35,91.2 511.15,91.55 C512.5,91.15 513.75,90.7 514.75,90.45 C514.9,90.6 515.1,90.65 515.25,90.65 C514.7,90.85 514.45,91.2 514,91.35 C514,91.6 514.2,91.75 514.55,91.85 C514.35,92.1 514.2,92.6 514,93.05 C513.15,92.85 512.7,93.95 512.7,94.75 C512.1,94.95 511.5,95.05 510.75,95.05 C510.504068,95.1975594 510.741997,95.2483465 510.9402,95.2499601 C510.399753,95.300148 509.64991,95.7500082 509.1,95.8 L509.1,95.95 C509.1,96 509.05,96.05 508.9,96.05 C508.3,96.05 506.85,95.05 506.7,96.05 L506.15,95.3 C504.7,94.95 504.3,94.6 503.05,93.25 C502.15,92.45 502.6,93.7 501.65,89.7 C501.4,87.7 501.85,86.65 502.05,85.85 C502.25,84.9 503,82.95 503.75,81.4 C504.15,80.6 504.65,79.45 505.4,78.25 C505.75,77.8 506.35,77.05 506.7,76.4 C507.45,75.75 507.55,75.25 508.55,74.65 C508.930815,74.4807487 509.74132,74.2398825 509.890632,73.8364944 Z M510.15,78.7 C508.8,79.45 508.35,80.45 507.1,82.65 C506.5,83.75 506.15,84.4 506.1,84.6 L505.8,85.95 C506.55,85 507.3,84.1 507.95,83.15 C508.7,82.15 509.9,80.7 510.15,78.7 Z M546.5,90.6 C546.75,91.05 546.35,91.55 546.3,91.9 C546.2,92.15 546.3,92.3 546.55,92.4 C546.4,92.65 546.15,92.8 545.95,93 C546,93.2 545.95,93.35 545.85,93.45 C545.1,93.8 544.25,94.3 543.85,94.35 C543.5,94.35 542.5,93.9 542.15,93.9 C541.9,93.95 542.35,94.1 542,94.15 C541.75,94.15 540.35,93.15 539.7,92.5 C538.65,91.35 538.5,89.4 538.1,87.55 C538.05,87.1 538.15,86.55 537.8,85.9 C537.4,86.35 537.25,86.8 536.85,87.35 C536.3,88.15 534.55,90 533.55,91.45 C532.9,92.25 532.25,93.25 531.3,93.8 C531.15,94 531.35,94.1 531.15,94.15 C530.6,94.5 529.75,94.95 529.4,94.95 C528.35,95.1 525.75,93.4 525.6,92.5 C525.35,90.2 526.65,86.4 526.75,84.9 C526.9,84.65 526.65,84.65 526.65,84.5 L526.8,84.3 C526.75,84.1 526.6,84 526.6,83.75 C525,85.4 523.2,87.95 521.6,90 C521.55,90.15 521.5,90.45 521.35,90.7 L520.25,92 L520.25,92.4 C519.6,93 519.05,94.1 518.45,94.7 C518.2,94.9 517.4,95.45 517,95.45 C516.75,95.5 515.9,94.9 515.5,94.5 C514.95,94.15 514.9,93.35 514.85,92.6 C514.65,91 515.45,88.1 516.25,85.55 C517.05,83 517.9,80.8 518.05,80 C518.2,79.45 518.55,78.45 518.7,77.7 C518.75,77.65 518.9,77.6 518.95,77.4 C518.95,75.95 519.2,75.2 520.05,73.25 C520.4,73.2 520.85,72.95 521.2,72.95 C521.55,72.9 521.85,73 522.1,73.2 C522.15,73.35 522.2,73.4 522.25,73.45 C523,73.6 523.5,74.95 523.5,75.2 C523.55,75.4 523.45,75.95 523.3,76.85 C523.15,77.7 523,78.45 522.8,79 C522.65,80 521.5,82.25 521.6,83.1 C521.65,83.1 521.75,82.8 522.15,82.75 C522.4,82.75 525.5,78.6 526.95,76.5 C527.3,76.35 528.05,76.35 528.85,76.5 C529.4,76.65 530.75,77.15 531.4,77.9 C531.65,78.35 532.1,79.45 532.15,79.9 C532.15,80.25 531.65,83.55 531.5,85.35 C530.95,85.5 531,86.35 530.95,86.95 L530.95,87 C530.95,87.05 530.95,87.1 531,87.15 C531.35,86.8 531.3,86.55 531.9,86.55 L538.4,78.65 C538.55,78.7 539.05,78.55 539.5,78.7 C539.75,78.75 540.2,79.2 540.4,79.35 C540.45,79.4 540.85,79.3 541.05,79.5 C541.3,79.65 541.55,79.85 541.9,80.25 C542.25,80.65 542.15,81.15 542.6,81.5 C542.45,81.55 542.65,81.8 542.7,82.05 C542.7,82.35 542.15,85.3 542.15,86.7 C542.1,87.05 542.1,87.6 542.1,88.3 C542.1,89 542.1,89.45 542.15,89.65 C542.3,91 542.45,91.6 544.2,91.4 C544.45,91.4 545.85,90.95 546.5,90.6 Z M536.4,88 L536.15,87.85 L536.45,87.4 L536.6,87.4 L536.4,88 Z M568.3,89.55 C568.15,89.95 567.55,90.15 567.4,90.5 C567.15,90.75 567.05,90.95 567.2,91.2 C566.8,91.65 566.05,92.3 565.3,92.85 C565.3,92.9 565.55,93.2 565.7,93.2 C564.65,93.35 562.95,94.9 562.5,94.9 L560.4,94.9 C558.35,94.9 556.5,90.75 556.5,90.4 C556.5,89.8 556.5,88.8 556.35,87.85 C555.8,88.8 555.25,89.5 554.65,90.5 C554.1,91.3 551.55,95.05 550.05,95.05 C549.8,95.05 549.25,95.25 549,95.25 C547.35,95.25 546.8,94.2 545.85,93.4 C545.8,93 545.45,92.15 545.45,91.9 C545.45,88.85 549.5,82 551.2,79.75 C551.55,79.3 552.55,78.3 553.2,77.85 C553.65,77.65 554.2,77 554.65,76.6 C554.8,76.45 554.6,76.3 554.75,76.15 C555.2,75.95 555.55,76.05 555.8,75.85 C556.05,75.7 556.25,75.45 556.4,75.15 L556.8,75.15 C557.15,75.45 557.4,75.6 557.65,75.6 C557.9,75.6 558.2,75.7 558.45,75.7 C559.05,75.05 558.65,74.7 559.3,74.7 C559.65,74.7 559.4,75.1 559.75,75.1 C560.15,75.1 559.8,74.95 560.05,74.95 C560.65,74.95 561.85,75.5 562.25,75.95 C562.4,76.2 562.65,76.9 562.45,77.1 C562.45,77.3 562.6,76.9 562.6,77.3 C562.6,77.65 561.55,80.95 561.15,82.85 C560.6,85.5 560.05,90.5 560.05,90.8 C560.05,91.05 560.2,91.9 560.2,92.35 C560.75,92.55 561.3,92.3 561.7,92.3 C562.45,92.3 568,89.7 568.3,89.55 Z M556.25,80.85 L555.95,81.15 C555.75,80.95 555.95,80.75 555.95,80.6 C554.3,82.6 552.75,85.3 551.55,87.65 L551.85,88 C553.45,86.05 554.8,83.25 556.25,80.85 Z" id="Layer-of-golden-crem" fill="#6D1F37"></path>
                </g>
            </g>
        </g>
    </g>
</svg>