<?xml version="1.0" encoding="UTF-8"?>
<svg width="125px" height="189px" viewBox="0 0 125 189" version="1.1" xmlns="http://www.w3.org/2000/svg" xmlns:xlink="http://www.w3.org/1999/xlink">
    <!-- Generator: Sketch 52.6 (67491) - http://www.bohemiancoding.com/sketch -->
    <title>Latte Tab Mobile</title>
    <desc>Created with Sketch.</desc>
    <defs>
        <filter x="-10.3%" y="-6.6%" width="120.5%" height="113.2%" filterUnits="objectBoundingBox" id="filter-1">
            <feOffset dx="0" dy="2" in="SourceAlpha" result="shadowOffsetOuter1"></feOffset>
            <feGaussianBlur stdDeviation="2" in="shadowOffsetOuter1" result="shadowBlurOuter1"></feGaussianBlur>
            <feColorMatrix values="0 0 0 0 0   0 0 0 0 0   0 0 0 0 0  0 0 0 0.3 0" type="matrix" in="shadowBlurOuter1" result="shadowMatrixOuter1"></feColorMatrix>
            <feMerge>
                <feMergeNode in="shadowMatrixOuter1"></feMergeNode>
                <feMergeNode in="SourceGraphic"></feMergeNode>
            </feMerge>
        </filter>
        <polygon id="path-2" points="0 0.293473288 116.821157 0.293473288 116.821157 176.022099 0 176.022099"></polygon>
    </defs>
    <g id="Mobile" stroke="none" stroke-width="1" fill="none" fill-rule="evenodd">
        <g id="Core-Coffees-Mobile" transform="translate(-98.000000, -1396.000000)">
            <g id="Coffee" transform="translate(0.000000, 992.000000)">
                <g id="Latte-Tab-Mobile">
                    <g filter="url(#filter-1)" transform="translate(102.000000, 406.000000)">
                        <g id="Group-3" transform="translate(0.000000, 5.000000)">
                            <mask id="mask-3" fill="white">
                                <use xlink:href="#path-2"></use>
                            </mask>
                            <g id="Clip-2"></g>
                            <path d="M105.796303,120.64427 C104.960589,121.754819 98.36736,129.34376 92.9820171,129.806303 C87.59556,130.268847 85.1820171,130.731946 82.8598457,129.158298 C81.74556,128.23321 76.7312743,126.474655 80.9098457,109.261137 C80.9098457,109.261137 84.8098457,94.4536251 87.59556,92.6956253 C88.2463029,91.9548887 90.56736,88.6232401 96.0463029,88.0679654 C97.1605886,88.0679654 102.916989,87.1428776 108.766989,98.9885541 C109.417731,101.116922 112.760589,111.482236 105.796303,120.64427 M113.131646,91.029801 C105.331646,78.9986627 97.1605886,80.4795805 95.1169886,80.664487 C88.8034457,81.2197618 88.0602171,78.6282944 86.7598457,76.9624702 C85.4605886,75.2966459 87.1320171,70.6695413 87.1320171,70.6695413 C87.1320171,70.6695413 98.8320171,20.8802745 100.874503,13.6617026 C102.916989,6.4431307 96.41736,6.81294369 96.41736,6.81294369 L17.1169886,0.335108319 C11.54556,-0.220166443 12.6598457,4.96221291 12.6598457,4.96221291 C12.6598457,4.96221291 17.3030743,145.816541 17.48916,152.850206 C18.0463029,159.328597 13.9602171,160.068778 13.9602171,160.068778 C13.9602171,160.068778 7.08841714,162.474783 3.74556,163.21552 C0.402702857,163.955701 -0.15444,166.916982 0.0316457143,168.397899 C0.217731429,169.878817 3.74556,170.618998 3.74556,170.618998 C3.74556,170.618998 70.6027029,175.801378 76.1741314,175.98684 C80.4463029,176.171746 80.2602171,175.616471 80.81736,174.690828 C81.9316457,171.544641 77.6605886,169.878817 77.6605886,169.878817 C77.6605886,169.878817 68.18916,164.140608 66.5177314,162.845152 C63.7320171,153.405481 73.5745029,144.891453 74.8748743,143.780903 C80.6312743,139.708518 91.58916,136.932144 94.0027029,136.37687 C106.074874,134.341232 112.388417,122.680462 113.317731,121.199545 C120.931646,104.91167 113.874874,92.5101635 113.131646,91.029801" id="Fill-1" fill="#6D1F37" mask="url(#mask-3)"></path>
                        </g>
                        <path d="M95.646911,18.2587612 L70.7559158,133.366572 C70.7559158,133.366572 65.7404912,152.704715 62.2107468,157.124862 C59.6105277,160.255984 57.1953221,165.965156 42.7063176,164.860119 C40.663368,164.860119 28.7745825,165.412638 25.0598246,154.914789 C23.9452858,152.704715 21.1589388,145.889954 20.7872401,131.893005 C20.4155414,117.896057 18.0008931,13.4700844 18.0008931,13.4700844 C18.0008931,13.4700844 17.8994701,10.7190954 19.858272,8.31343042 C22.4590483,4.6297904 27.474473,-1.63190035 36.3907834,0.394184534 C40.1902462,1.18815344 45.4926646,7.20839367 48.8362811,9.23447855 C52.5515962,11.0760223 57.7525915,14.2071439 74.6568016,12.3650477 C77.8142901,11.8125293 80.9723358,10.7074925 81.9013039,10.3395153 C82.8297147,9.97098554 87.1022992,4.6297904 94.7185002,10.5235039 C95.4613403,11.6285407 96.5758791,14.0226028 95.646911,18.2587612" id="Fill-4" fill="#FFFFFF"></path>
                        <path d="M38.9557321,99.9209591 C38.9557321,99.9209591 45.181142,104.107922 52.3216333,104.290344 C56.7157818,104.654095 64.7713545,104.47222 68.2504216,101.741354 L70.2640401,100.28471 C70.2640401,100.28471 72.4611143,99.374786 71.9118458,101.741354 C71.3625772,104.107922 65.6869852,133.055096 65.6869852,133.055096 C65.6869852,133.055096 61.4757431,148.894116 58.7294003,152.353577 C55.9830575,155.812491 52.3216333,159.635703 44.9976863,160 C42.4347992,160 37.6742885,159.635703 32.9137779,157.086713 C29.6181666,154.538269 25.7732866,148.166067 25.2240181,141.61199 C24.6747495,135.057913 24.1254809,102.105652 24.1254809,102.105652 C24.1254809,102.105652 23.2103995,99.1923642 26.3225552,98.2824398 C29.4352601,97.5538449 33.8294086,98.2824398 38.9557321,99.9209591" id="Fill-6" fill="#B51144"></path>
                        <path d="M38,45 C38,46.1046868 37.1044449,47 36,47 C34.8955551,47 34,46.1046868 34,45 C34,43.8953132 34.8955551,43 36,43 C37.1044449,43 38,43.8953132 38,45" id="Fill-8" fill="#F3F2EE"></path>
                        <path d="M48,67 C48,68.1046868 47.1047848,69 46.000219,69 C44.8952152,69 44,68.1046868 44,67 C44,65.8953132 44.8952152,65 46.000219,65 C47.1047848,65 48,65.8953132 48,67" id="Fill-10" fill="#F3F2EE"></path>
                        <path d="M64,75.999781 C64,77.1043469 63.1044449,78 62.0004379,78 C60.8955551,78 60,77.1043469 60,75.999781 C60,74.8956531 60.8955551,74 62.0004379,74 C63.1044449,74 64,74.8956531 64,75.999781" id="Fill-12" fill="#F3F2EE"></path>
                        <path d="M79,81.999781 C79,83.1043469 78.1047848,84 77.000219,84 C75.8952152,84 75,83.1043469 75,81.999781 C75,80.8956531 75.8952152,80 77.000219,80 C78.1047848,80 79,80.8956531 79,81.999781" id="Fill-14" fill="#F3F2EE"></path>
                        <path d="M57,89.999781 C57,91.1043469 56.1044449,92 55,92 C53.8955551,92 53,91.1043469 53,89.999781 C53,88.8956531 53.8955551,88 55,88 C56.1044449,88 57,88.8956531 57,89.999781" id="Fill-16" fill="#F3F2EE"></path>
                        <path d="M69,58.000219 C69,59.1043469 68.1044449,60 67.0004379,60 C65.8955551,60 65,59.1043469 65,58.000219 C65,56.8956531 65.8955551,56 67.0004379,56 C68.1044449,56 69,56.8956531 69,58.000219" id="Fill-18" fill="#F3F2EE"></path>
                        <path d="M55,53.999781 C55,55.1043469 54.1044449,56 53.0004379,56 C51.8955551,56 51,55.1043469 51,53.999781 C51,52.8956531 51.8955551,52 53.0004379,52 C54.1044449,52 55,52.8956531 55,53.999781" id="Fill-20" fill="#F3F2EE"></path>
                        <path d="M43,28.999781 C43,30.1043469 42.1047848,31 41.000219,31 C39.8952152,31 39,30.1043469 39,28.999781 C39,27.8952152 39.8952152,27 41.000219,27 C42.1047848,27 43,27.8952152 43,28.999781" id="Fill-22" fill="#F3F2EE"></path>
                        <path d="M61,38.000219 C61,39.1047848 60.1044449,40 59,40 C57.8955551,40 57,39.1047848 57,38.000219 C57,36.8956531 57.8955551,36 59,36 C60.1044449,36 61,36.8956531 61,38.000219" id="Fill-24" fill="#F3F2EE"></path>
                        <path d="M51,13.999781 C51,15.1043469 50.1044449,16 49,16 C47.8955551,16 47,15.1043469 47,13.999781 C47,12.8952152 47.8955551,12 49,12 C50.1044449,12 51,12.8952152 51,13.999781" id="Fill-26" fill="#F3F2EE"></path>
                        <path d="M79,43 C79,44.1044449 78.1044449,45 77,45 C75.8955551,45 75,44.1044449 75,43 C75,41.8955551 75.8955551,41 77,41 C78.1044449,41 79,41.8955551 79,43" id="Fill-28" fill="#F3F2EE"></path>
                        <path d="M67,21.999781 C67,23.1043469 66.1047848,24 65.000219,24 C63.8952152,24 63,23.1043469 63,21.999781 C63,20.8952152 63.8952152,20 65.000219,20 C66.1047848,20 67,20.8952152 67,21.999781" id="Fill-30" fill="#F3F2EE"></path>
                        <path d="M89,14.000219 C89,15.1047848 88.1044449,16 87,16 C85.8955551,16 85,15.1047848 85,14.000219 C85,12.8956531 85.8955551,12 87,12 C88.1044449,12 89,12.8956531 89,14.000219" id="Fill-32" fill="#F3F2EE"></path>
                        <path d="M84,26.999781 C84,28.1043469 83.1044449,29 82,29 C80.8955551,29 80,28.1043469 80,26.999781 C80,25.8952152 80.8955551,25 82,25 C83.1044449,25 84,25.8952152 84,26.999781" id="Fill-34" fill="#F3F2EE"></path>
                        <path d="M35,6 C35,7.10468682 34.1044449,8 33.0004379,8 C31.8955551,8 31,7.10468682 31,6 C31,4.89531318 31.8955551,4 33.0004379,4 C34.1044449,4 35,4.89531318 35,6" id="Fill-36" fill="#F3F2EE"></path>
                        <path d="M27,23 C27,24.1046868 26.1044449,25 25.0004379,25 C23.8955551,25 23,24.1046868 23,23 C23,21.8953132 23.8955551,21 25.0004379,21 C26.1044449,21 27,21.8953132 27,23" id="Fill-38" fill="#F3F2EE"></path>
                        <path d="M30,61.000219 C30,62.1043469 29.1047848,63 28.000219,63 C26.8952152,63 26,62.1043469 26,61.000219 C26,59.8956531 26.8952152,59 28.000219,59 C29.1047848,59 30,59.8956531 30,61.000219" id="Fill-40" fill="#F3F2EE"></path>
                        <path d="M41,82 C41,83.1046868 40.1044449,84 39,84 C37.8955551,84 37,83.1046868 37,82 C37,80.8953132 37.8955551,80 39,80 C40.1044449,80 41,80.8953132 41,82" id="Fill-42" fill="#F3F2EE"></path>
                        <path d="M26,76.999781 C26,78.1043469 25.1047848,79 24.000219,79 C22.8952152,79 22,78.1043469 22,76.999781 C22,75.8956531 22.8952152,75 24.000219,75 C25.1047848,75 26,75.8956531 26,76.999781" id="Fill-44" fill="#F3F2EE"></path>
                    </g>
                </g>
            </g>
        </g>
    </g>
</svg>