<?xml version="1.0" encoding="UTF-8"?>
<svg width="220px" height="166px" viewBox="0 0 220 166" version="1.1" xmlns="http://www.w3.org/2000/svg" xmlns:xlink="http://www.w3.org/1999/xlink">
    <!-- Generator: Sketch 52.6 (67491) - http://www.bohemiancoding.com/sketch -->
    <title>Americano Tab Mobile</title>
    <desc>Created with Sketch.</desc>
    <defs>
        <filter x="-5.6%" y="-7.7%" width="111.2%" height="115.5%" filterUnits="objectBoundingBox" id="filter-1">
            <feOffset dx="0" dy="2" in="SourceAlpha" result="shadowOffsetOuter1"></feOffset>
            <feGaussianBlur stdDeviation="2" in="shadowOffsetOuter1" result="shadowBlurOuter1"></feGaussianBlur>
            <feColorMatrix values="0 0 0 0 0   0 0 0 0 0   0 0 0 0 0  0 0 0 0.3 0" type="matrix" in="shadowBlurOuter1" result="shadowMatrixOuter1"></feColorMatrix>
            <feMerge>
                <feMergeNode in="shadowMatrixOuter1"></feMergeNode>
                <feMergeNode in="SourceGraphic"></feMergeNode>
            </feMerge>
        </filter>
        <polygon id="path-2" points="0.194618242 0.0215821056 96.8214687 0.0215821056 96.8214687 115.869423 0.194618242 115.869423"></polygon>
    </defs>
    <g id="Mobile" stroke="none" stroke-width="1" fill="none" fill-rule="evenodd">
        <g id="Core-Coffees-Mobile" transform="translate(-383.000000, -1048.000000)">
            <g id="Coffee" transform="translate(0.000000, 992.000000)">
                <g id="Americano-Tab-Mobile">
                    <g filter="url(#filter-1)" transform="translate(492.373284, 138.233610) rotate(5.000000) translate(-492.373284, -138.233610) translate(384.873284, 60.733610)">
                        <path d="M174.845071,72.3556642 C190.334338,54.3267454 204.000968,74.3593136 204.730023,75.997878 C209.285828,83.6466054 205.276028,93.8446469 203.818705,96.2125962 C195.25467,110.235001 180.493672,110.599301 178.854085,110.780666 C166.827042,111.692201 167.556097,99.3083601 167.373833,97.1233459 C166.644778,87.653119 174.845071,72.3556642 174.845071,72.3556642 M49.5914559,154.210081 C115.57325,153.978468 123.843462,154.153551 123.843462,154.153551 C123.843462,154.153551 143.421091,138.305721 144.920838,134.229331 C146.421371,132.351302 149.988082,129.264175 153.073208,128.431153 C156.158334,127.597346 165.760957,123.835792 183.090144,119.210597 C185.263166,118.967207 210.50668,112.968821 214.485055,87.3579105 C214.778877,85.614924 214.675961,56.3068409 184.866429,56.4638667 C183.175776,56.6522977 178.883939,57.6211469 176.521582,56.1749392 C174.844285,54.8362941 171.651529,45.0802803 171.104738,39.0811091 C171.103953,39.0811091 171.103167,39.0818942 171.102381,39.0818942 C171.019891,37.2564691 169.905883,36.8222927 169.148547,36.7382839 L168.450917,36.744565 L3.00345571,38.1593675 C2.71434787,38.1648634 0.544467824,38.3085421 0.351205517,41.2755448 C-0.794227177,55.316008 -2.17534561,121.976607 49.5914559,154.210081" id="Fill-1" fill="#6D1F37"></path>
                        <path d="M5.58835896,43.0881108 C5.58835896,43.0881108 4.27776902,58.5084654 9.51934255,78.8943513 C9.51934255,78.8943513 14.0753525,94.4762249 17.4504951,100.640603 C18.1305552,102.085649 18.805112,103.334676 19.428566,104.208917 C25.4854255,116.460051 37.8224244,135.835267 57.4765562,143.357659 C59.8131329,144.560426 93.1997628,158.647074 125.078467,133.130217 C127.0644,131.200614 160.204164,103.834915 162.447184,51.856394 L162.827703,43.0881108 L5.58835896,43.0881108 Z" id="Fill-3" fill="#FFFFFF"></path>
                        <path d="M28.5020489,75.1049354 C28.5020489,75.1049354 29.0745522,72.5345912 30.3605189,69.9650334 C31.5047378,65.9663706 34.3633166,54.542968 22.9266391,43.8345112 C19.2089118,39.6934884 10.0598848,31.4114428 11.4891742,22.8446774 C12.06089,18.5605081 12.3467478,10.421609 21.4965623,5.42406699 C22.7833165,5.13856058 30.9322346,2.42585638 37.3660055,15.1336446 C38.7952949,17.7039889 45.9433167,29.4121114 40.7970875,48.4034003 C39.9387264,52.686783 36.0792513,69.679527 31.2180925,73.9629098 C30.074661,75.2480819 29.7888031,75.5335883 28.5020489,75.1049354" id="Fill-5" fill="#404042"></path>
                        <g id="Group-9" transform="translate(83.908426, 0.000000)">
                            <mask id="mask-3" fill="white">
                                <use xlink:href="#path-2"></use>
                            </mask>
                            <g id="Clip-8"></g>
                            <path d="M95.8690786,2.97680309 L90.0763613,0.187999317 C89.3276962,-0.172479683 88.4272534,0.0678396506 87.957765,0.752671216 L43.7967493,65.2210812 C43.7967493,65.2210812 41.7733089,69.0025766 34.6830103,71.2746153 C27.4590215,73.5882779 13.5717563,72.170708 4.30230763,87.7710454 C2.62331611,90.6399556 -3.60900602,98.7299212 3.58509907,112.077854 C5.87670623,114.593353 24.145864,122.270221 38.4829574,104.286324 C39.7199848,102.504348 42.5746636,99.5034981 44.0562655,92.4470628 C44.097159,92.4305703 44.1404117,92.4219313 44.1789459,92.4022974 C44.3189274,91.6836955 45.1989234,84.8220287 45.6416739,80.8866033 C45.9625303,77.6705652 48.7755292,72.9859089 49.7231568,71.4835204 C51.9817346,68.5423573 54.8914623,65.1441162 58.1542893,61.1584279 C65.5025314,51.3610956 90.9610758,13.6875059 96.5343839,5.42633251 C97.1068925,4.57814662 96.7915409,3.42131532 95.8690786,2.97680309" id="Fill-7" fill="#B1B1B1" mask="url(#mask-3)"></path>
                        </g>
                        <path d="M130.653858,89.0776509 C124.504851,90.3952344 121.405966,92.8158928 116.966853,95.1942759 C116.984943,95.199756 117.003032,95.2044533 117.021122,95.2107163 C116.764717,95.3320624 116.513031,95.4471455 116.258985,95.5669258 C114.998982,96.2167144 113.617068,96.8586743 112.029086,97.4708848 C98.0597204,103.48417 87.5022748,105.241731 79.7212416,105.052274 C77.4403363,104.937191 74.9502169,104.350816 72.5474011,103.575767 C66.8459243,101.480785 61.6659096,98.7407128 61.0492787,98.4111212 L61.0492787,98.393115 C55.2266779,94.3785171 47.9710394,88.2830298 34.9604408,88.9476931 C32.7322322,89.3391321 25.5222118,89.730571 22.7693951,95.6021553 C22.2455734,96.7764721 20.9344461,99.1251058 26.0468201,107.083843 C26.0570448,107.0995 26.0712022,107.113592 26.0814269,107.128467 C27.4853635,109.629761 29.1677278,112.246922 30.9460474,114.797539 C31.2873967,115.283706 41.0071995,129.081929 50.0812701,134.609047 C72.7872894,147.716771 91.4120612,143.766369 93.752742,143.364753 C111.723916,142.05265 125.647664,127.281309 131.937457,119.27012 L131.938243,119.27012 C134.985218,115.942106 138.096688,110.750843 140.862089,105.388129 C140.862089,105.388129 143.106814,102.386575 143.762771,97.950789 C144.024682,95.8628536 141.009954,87.903334 130.653858,89.0776509" id="Fill-10" fill="#B51144"></path>
                    </g>
                </g>
            </g>
        </g>
    </g>
</svg>