<?xml version="1.0" encoding="UTF-8"?>
<svg width="204px" height="173px" viewBox="0 0 204 173" version="1.1" xmlns="http://www.w3.org/2000/svg" xmlns:xlink="http://www.w3.org/1999/xlink">
    <!-- Generator: Sketch 52.6 (67491) - http://www.bohemiancoding.com/sketch -->
    <title>Cappuccino Tab Mobile</title>
    <desc>Created with Sketch.</desc>
    <defs>
        <filter x="-6.0%" y="-10.4%" width="112.1%" height="120.9%" filterUnits="objectBoundingBox" id="filter-1">
            <feOffset dx="0" dy="2" in="SourceAlpha" result="shadowOffsetOuter1"></feOffset>
            <feGaussianBlur stdDeviation="2" in="shadowOffsetOuter1" result="shadowBlurOuter1"></feGaussianBlur>
            <feColorMatrix values="0 0 0 0 0   0 0 0 0 0   0 0 0 0 0  0 0 0 0.3 0" type="matrix" in="shadowBlurOuter1" result="shadowMatrixOuter1"></feColorMatrix>
            <feMerge>
                <feMergeNode in="shadowMatrixOuter1"></feMergeNode>
                <feMergeNode in="SourceGraphic"></feMergeNode>
            </feMerge>
        </filter>
        <polygon id="path-2" points="0 0.161953161 198.350916 0.161953161 198.350916 110.969179 0 110.969179"></polygon>
    </defs>
    <g id="Mobile" stroke="none" stroke-width="1" fill="none" fill-rule="evenodd">
        <g id="Core-Coffees-Mobile" transform="translate(-371.000000, -1400.000000)">
            <g id="Coffee" transform="translate(0.000000, 992.000000)">
                <g id="Cappuccino-Tab-Mobile">
                    <g transform="translate(371.000000, 408.000000)">
                        <g id="Page-1-Copy-17" filter="url(#filter-1)" transform="translate(104.358617, 108.409425) rotate(-5.000000) translate(-104.358617, -108.409425) translate(4.858617, 50.909425)">
                            <g id="Group-3" transform="translate(0.000000, 3.948210)">
                                <mask id="mask-3" fill="white">
                                    <use xlink:href="#path-2"></use>
                                </mask>
                                <g id="Clip-2"></g>
                                <path d="M43.6022251,57.1207493 C43.4337456,59.1820963 44.1076636,70.8630625 32.9880166,70.004168 C31.4717011,69.832389 17.8248616,69.4888312 9.90632506,56.2618548 C8.55848906,54.0287289 4.85194005,44.4091096 9.06392756,37.1943952 C9.73784556,35.648385 22.3738081,16.7527043 36.6945656,33.7588169 C36.6945656,33.7588169 44.2761431,48.1882458 43.6022251,57.1207493 M198.026155,4.44199661 C197.847567,1.64303097 195.840976,1.50801274 195.574441,1.50251581 L42.6061743,0.167450086 L41.9612348,0.161953161 C41.261034,0.24131502 40.2312873,0.650492395 40.1544606,2.3727478 C40.1537867,2.3727478 40.1534498,2.37240424 40.1527759,2.37240424 C39.6473374,8.03045814 36.6955765,17.2326546 35.1442173,18.4962603 C32.960386,19.8601849 28.9920198,18.9466646 27.429204,18.7683581 C-0.131683578,18.6206282 -0.226706016,46.2656961 0.0445459799,47.9099639 C3.72279043,72.0675763 27.0622556,77.7263173 29.0715422,77.9554704 C45.0939426,82.3183112 53.9718014,85.866233 56.8241594,86.6526368 C59.6765173,87.4390407 62.9736611,90.3503498 64.3615953,92.1217339 C65.7481816,95.9675203 83.8489452,110.915721 83.8489452,110.915721 C83.8489452,110.915721 91.4958927,110.751157 152.499961,110.969316 C200.362628,80.5647921 199.085891,17.6854638 198.026155,4.44199661" id="Fill-1" fill="#6D1F37" mask="url(#mask-3)"></path>
                            </g>
                            <path d="M167.851439,1.43303782 C148.306545,-3.9776234 135.305831,7.21816765 129.702651,13.6692092 L129.702651,13.6695509 C129.511307,13.8895854 129.32866,14.1041531 129.154376,14.3125709 C126.486928,17.2222192 124.492196,16.0526882 124.088098,15.7615867 C124.064682,15.7434783 124.041934,15.7267365 124.018853,15.7089698 C124.013835,15.7048697 124.011159,15.7024781 124.011159,15.7024781 L124.01049,15.7028197 C107.423071,2.89332868 94.6822773,9.15986932 93.3221264,9.87703136 C86.7431574,14.6258808 79.6788024,9.46361256 78.4233557,8.63267494 C70.8415012,4.09907657 63.9942486,5.15004865 61.7285569,5.34958301 C47.8370205,7.20005922 48.4200857,18.268408 48.8616497,20.3816272 C50.9182674,69.2070706 81.3142618,94.9131781 83.1353788,96.7257291 C112.374944,120.695136 142.996738,107.463001 145.139996,106.33242 C163.167181,99.2670589 174.482258,81.067065 180.037936,69.5593307 C183.022507,65.2751503 187.23476,51.4768708 187.23476,51.4768708 C187.23476,51.4768708 187.233088,51.4796042 187.233088,51.4796042 C200.17292,11.4449478 169.261767,2.02446587 167.851439,1.43303782" id="Fill-4" fill="#FEFEFE"></path>
                            <path d="M85.9832312,50.6686898 C85.9832312,52.2434173 84.7067749,53.5201745 83.1317464,53.5201745 C81.557019,53.5201745 80.2802617,52.2434173 80.2802617,50.6686898 C80.2802617,49.0939623 81.557019,47.8172051 83.1317464,47.8172051 C84.7067749,47.8172051 85.9832312,49.0939623 85.9832312,50.6686898" id="Fill-6" fill="#F3F2EE"></path>
                            <path d="M99.1439298,33.5597815 C99.1439298,35.134509 97.8674735,36.4112663 96.2924451,36.4112663 C94.7177176,36.4112663 93.4409604,35.134509 93.4409604,33.5597815 C93.4409604,31.9850541 94.7177176,30.7082968 96.2924451,30.7082968 C97.8674735,30.7082968 99.1439298,31.9850541 99.1439298,33.5597815" id="Fill-8" fill="#F3F2EE"></path>
                            <path d="M127.220087,39.262751 C127.220087,40.8374784 125.943397,42.1142357 124.368452,42.1142357 C122.793807,42.1142357 121.517117,40.8374784 121.517117,39.262751 C121.517117,37.6880235 122.793807,36.4112663 124.368452,36.4112663 C125.943397,36.4112663 127.220087,37.6880235 127.220087,39.262751" id="Fill-10" fill="#F3F2EE"></path>
                            <path d="M75.4546722,29.172882 C75.4546722,30.7476095 74.178216,32.0243667 72.6031875,32.0243667 C71.0284601,32.0243667 69.7517028,30.7476095 69.7517028,29.172882 C69.7517028,27.5981545 71.0284601,26.3213973 72.6031875,26.3213973 C74.178216,26.3213973 75.4546722,27.5981545 75.4546722,29.172882" id="Fill-12" fill="#F3F2EE"></path>
                            <path d="M109.233799,43.2109606 C109.233799,44.785688 107.957342,46.0624453 106.382314,46.0624453 C104.807587,46.0624453 103.530829,44.785688 103.530829,43.2109606 C103.530829,41.6362331 104.807587,40.3594758 106.382314,40.3594758 C107.957342,40.3594758 109.233799,41.6362331 109.233799,43.2109606" id="Fill-14" fill="#F3F2EE"></path>
                            <path d="M144.767685,48.47524 C144.767685,50.0499675 143.490928,51.3267247 141.915899,51.3267247 C140.341172,51.3267247 139.064716,50.0499675 139.064716,48.47524 C139.064716,46.9005125 140.341172,45.6237553 141.915899,45.6237553 C143.490928,45.6237553 144.767685,46.9005125 144.767685,48.47524" id="Fill-16" fill="#F3F2EE"></path>
                            <path d="M163.192663,40.1401309 C163.192663,41.7148583 161.916207,42.9916156 160.341179,42.9916156 C158.766451,42.9916156 157.489694,41.7148583 157.489694,40.1401309 C157.489694,38.5654034 158.766451,37.2886462 160.341179,37.2886462 C161.916207,37.2886462 163.192663,38.5654034 163.192663,40.1401309" id="Fill-18" fill="#F3F2EE"></path>
                            <path d="M178.108122,50.6686898 C178.108122,52.2434173 176.831665,53.5201745 175.256637,53.5201745 C173.68191,53.5201745 172.405152,52.2434173 172.405152,50.6686898 C172.405152,49.0939623 173.68191,47.8172051 175.256637,47.8172051 C176.831665,47.8172051 178.108122,49.0939623 178.108122,50.6686898" id="Fill-20" fill="#F3F2EE"></path>
                            <path d="M184.688471,34.4371615 C184.688471,36.0118889 183.412015,37.2886462 181.836986,37.2886462 C180.261958,37.2886462 178.985502,36.0118889 178.985502,34.4371615 C178.985502,32.862434 180.261958,31.5856768 181.836986,31.5856768 C183.412015,31.5856768 184.688471,32.862434 184.688471,34.4371615" id="Fill-22" fill="#F3F2EE"></path>
                            <path d="M68.435633,43.2109606 C68.435633,44.785688 67.1591767,46.0624453 65.5841483,46.0624453 C64.0094208,46.0624453 62.7326635,44.785688 62.7326635,43.2109606 C62.7326635,41.6362331 64.0094208,40.3594758 65.5841483,40.3594758 C67.1591767,40.3594758 68.435633,41.6362331 68.435633,43.2109606" id="Fill-24" fill="#F3F2EE"></path>
                            <path d="M150.470655,33.5597815 C150.470655,35.134509 149.193965,36.4112663 147.619019,36.4112663 C146.044375,36.4112663 144.767685,35.134509 144.767685,33.5597815 C144.767685,31.9850541 146.044375,30.7082968 147.619019,30.7082968 C149.193965,30.7082968 150.470655,31.9850541 150.470655,33.5597815" id="Fill-26" fill="#F3F2EE"></path>
                            <path d="M172.843842,26.1020523 C172.843842,27.6767798 171.567085,28.953537 169.992057,28.953537 C168.417329,28.953537 167.140873,27.6767798 167.140873,26.1020523 C167.140873,24.5273249 168.417329,23.2505676 169.992057,23.2505676 C171.567085,23.2505676 172.843842,24.5273249 172.843842,26.1020523" id="Fill-28" fill="#F3F2EE"></path>
                            <path d="M180.045831,53.5797461 C180.574598,51.9479495 181.000689,50.4956888 181.178951,49.5719649 L59.6618339,49.5719649 C59.6618339,49.5719649 68.2087314,73.5613533 76.2616448,82.7336542 C76.2616448,82.7336542 76.2616448,82.7340014 76.2619792,82.7340014 C82.0282504,90.3936175 94.7912384,104.518259 111.263958,105.772232 C113.408793,106.156654 130.481852,109.934199 151.294743,97.4007234 C159.611873,92.1153556 168.521984,78.921383 168.834362,78.4563956 C171.092241,75.0799416 173.192594,71.5760414 174.660834,68.4218367 C174.661503,68.4218367 174.662172,68.4221839 174.662841,68.4221839 C176.585266,64.8422328 178.75786,57.9639621 180.045831,53.5797461" id="Fill-30" fill="#B51144"></path>
                        </g>
                        <circle id="Oval-2-Copy-7" fill="#6D1F37" cx="71" cy="34" r="6"></circle>
                        <circle id="Oval-2-Copy-8" fill="#6D1F37" cx="121" cy="6" r="6"></circle>
                        <circle id="Oval-2-Copy-9" fill="#6D1F37" cx="170" cy="29" r="6"></circle>
                        <circle id="Oval-2-Copy-11" fill="#6D1F37" cx="86.5" cy="9.5" r="3.5"></circle>
                        <circle id="Oval-2-Copy-12" fill="#6D1F37" cx="143.5" cy="18.5" r="3.5"></circle>
                        <circle id="Oval-2-Copy-14" fill="#6D1F37" cx="126.5" cy="36.5" r="3.5"></circle>
                        <circle id="Oval-2-Copy-15" fill="#6D1F37" cx="102.5" cy="30.5" r="3.5"></circle>
                    </g>
                </g>
            </g>
        </g>
    </g>
</svg>