<?xml version="1.0" encoding="UTF-8"?>
<svg width="140px" height="149px" viewBox="0 0 140 149" version="1.1" xmlns="http://www.w3.org/2000/svg" xmlns:xlink="http://www.w3.org/1999/xlink">
    <!-- Generator: Sketch 52.6 (67491) - http://www.bohemiancoding.com/sketch -->
    <title>Cortado Tab Mobile</title>
    <desc>Created with Sketch.</desc>
    <defs>
        <filter x="-9.2%" y="-8.8%" width="118.5%" height="117.5%" filterUnits="objectBoundingBox" id="filter-1">
            <feOffset dx="0" dy="2" in="SourceAlpha" result="shadowOffsetOuter1"></feOffset>
            <feGaussianBlur stdDeviation="2" in="shadowOffsetOuter1" result="shadowBlurOuter1"></feGaussianBlur>
            <feColorMatrix values="0 0 0 0 0   0 0 0 0 0   0 0 0 0 0  0 0 0 0.3 0" type="matrix" in="shadowBlurOuter1" result="shadowMatrixOuter1"></feColorMatrix>
            <feMerge>
                <feMergeNode in="shadowMatrixOuter1"></feMergeNode>
                <feMergeNode in="SourceGraphic"></feMergeNode>
            </feMerge>
        </filter>
        <polygon id="path-2" points="0 0.251998303 129.264234 0.251998303 129.264234 136.877982 0 136.877982"></polygon>
    </defs>
    <g id="Mobile" stroke="none" stroke-width="1" fill="none" fill-rule="evenodd">
        <g id="Core-Coffees-Mobile" transform="translate(-88.000000, -1774.000000)">
            <g id="Coffee" transform="translate(0.000000, 992.000000)">
                <g id="Cortado-Tab-Mobile">
                    <g filter="url(#filter-1)" transform="translate(160.000000, 855.500000) rotate(-3.000000) translate(-160.000000, -855.500000) translate(95.000000, 787.000000)">
                        <g id="Group-3">
                            <mask id="mask-3" fill="white">
                                <use xlink:href="#path-2"></use>
                            </mask>
                            <g id="Clip-2"></g>
                            <path d="M6.38194002,0.315614313 L120.763714,0.315614313 C120.763714,0.315614313 127.275863,-1.09835754 128.125237,9.36350736 C128.974611,19.824524 130.673358,56.5801582 126.993021,81.1783487 C125.859957,86.2676295 121.896779,119.347955 102.644022,136.029769 C93.8674428,136.029769 41.2062663,136.877982 41.2062663,136.877982 C41.2062663,136.877982 16.8572673,119.631258 6.94762298,70.717332 C5.24887535,63.9316243 -0.130209006,26.8926869 0.152632474,7.66708042 C0.152632474,5.40489511 -1.54611515,0.0331592288 6.38194002,0.315614313" id="Fill-1" fill="#6D1F37" mask="url(#mask-3)"></path>
                        </g>
                        <path d="M9.86853722,10.8829656 C9.86853722,10.8829656 15.8081163,6.92499434 22.312804,6.92499434 C26.5553605,6.92499434 34.1919622,7.77325222 42.1119667,11.7312235 C45.2226091,13.7110574 46.9196317,15.972513 62.1928352,16.8207709 C69.8294369,16.538301 87.36562,13.1452694 96.41669,10.0347078 C100.09329,8.33819198 110.841382,1.55212888 120.457561,10.0347078 C121.023518,17.9523469 122.437138,67.9995622 113.66947,95.4262845 C109.992871,107.019425 106.032869,118.895035 95.850733,125.39778 C90.7596652,128.508342 80.5775296,132.467162 64.4558148,130.487328 C58.5162357,129.922388 42.960478,127.660084 31.6464283,108.150153 C21.1817384,85.5296597 14.6762023,70.2610178 12.4140711,53.5791781 C10.1510915,36.3307023 9.02002592,18.5172866 9.86853722,10.8829656" id="Fill-4" fill="#FFFFFF"></path>
                        <path d="M26.6299577,76.6846646 C26.6299577,76.6846646 32.2992242,73.2784609 37.6844746,73.5620274 C40.5195331,73.5620274 43.9209229,72.7104765 54.6914238,77.2517975 C58.9431611,78.3877664 62.9117327,80.3744346 72.2655548,80.6580011 C76.8004578,80.6580011 82.4697243,79.8064502 88.7053222,77.8197819 C94.091423,76.6846646 102.310882,72.9940429 110.248025,80.3744346 C109.680843,85.2001736 108.263314,100.243672 103.161229,107.340497 C99.1935077,113.301353 96.0752836,120.397327 83.036906,123.235546 C79.3515001,124.371515 65.7459408,126.926168 54.1250924,119.829343 C49.5893391,116.991123 32.8664059,106.772513 26.6299577,76.6846646" id="Fill-6" fill="#B51144"></path>
                        <path d="M50.5969196,54.8577128 C50.5969196,56.6225333 49.1661452,58.0533077 47.4013246,58.0533077 C45.6365041,58.0533077 44.2057297,56.6225333 44.2057297,54.8577128 C44.2057297,53.0928922 45.6365041,51.6621179 47.4013246,51.6621179 C49.1661452,51.6621179 50.5969196,53.0928922 50.5969196,54.8577128" id="Fill-8" fill="#F3F2EE"></path>
                        <path d="M21.8365653,43.6731306 C21.8365653,45.4379511 20.4057909,46.8687255 18.6409704,46.8687255 C16.8761498,46.8687255 15.4453754,45.4379511 15.4453754,43.6731306 C15.4453754,41.90831 16.8761498,40.4775356 18.6409704,40.4775356 C20.4057909,40.4775356 21.8365653,41.90831 21.8365653,43.6731306" id="Fill-10" fill="#F3F2EE"></path>
                        <path d="M27.695156,64.9770967 C27.695156,66.7419172 26.2643816,68.1726916 24.499561,68.1726916 C22.7347405,68.1726916 21.3039661,66.7419172 21.3039661,64.9770967 C21.3039661,63.2122761 22.7347405,61.7815018 24.499561,61.7815018 C26.2643816,61.7815018 27.695156,63.2122761 27.695156,64.9770967" id="Fill-12" fill="#F3F2EE"></path>
                        <path d="M39.4123373,31.42335 C39.4123373,33.1881706 37.981563,34.618945 36.2167424,34.618945 C34.4519219,34.618945 33.0211475,33.1881706 33.0211475,31.42335 C33.0211475,29.6585295 34.4519219,28.2277551 36.2167424,28.2277551 C37.981563,28.2277551 39.4123373,29.6585295 39.4123373,31.42335" id="Fill-14" fill="#F3F2EE"></path>
                        <path d="M87.3462611,68.7052908 C87.3462611,70.4701113 85.9154868,71.9008857 84.1506662,71.9008857 C82.3858457,71.9008857 80.9550713,70.4701113 80.9550713,68.7052908 C80.9550713,66.9404702 82.3858457,65.5096958 84.1506662,65.5096958 C85.9154868,65.5096958 87.3462611,66.9404702 87.3462611,68.7052908" id="Fill-16" fill="#F3F2EE"></path>
                        <path d="M67.6400925,62.3141009 C67.6400925,64.0789215 66.2093181,65.5096958 64.4444975,65.5096958 C62.679677,65.5096958 61.2489026,64.0789215 61.2489026,62.3141009 C61.2489026,60.5492804 62.679677,59.118506 64.4444975,59.118506 C66.2093181,59.118506 67.6400925,60.5492804 67.6400925,62.3141009" id="Fill-18" fill="#F3F2EE"></path>
                        <path d="M116.639215,27.695156 C116.639215,29.4599765 115.20844,30.8907509 113.44362,30.8907509 C111.678799,30.8907509 110.248025,29.4599765 110.248025,27.695156 C110.248025,25.9303354 111.678799,24.499561 113.44362,24.499561 C115.20844,24.499561 116.639215,25.9303354 116.639215,27.695156" id="Fill-20" fill="#F3F2EE"></path>
                        <path d="M112.378421,51.6621179 C112.378421,53.4269384 110.947647,54.8577128 109.182826,54.8577128 C107.418006,54.8577128 105.987231,53.4269384 105.987231,51.6621179 C105.987231,49.8972973 107.418006,48.4665229 109.182826,48.4665229 C110.947647,48.4665229 112.378421,49.8972973 112.378421,51.6621179" id="Fill-22" fill="#F3F2EE"></path>
                        <path d="M79.889873,27.1625568 C79.889873,28.9273774 78.4590986,30.3581517 76.6942781,30.3581517 C74.9294575,30.3581517 73.4986831,28.9273774 73.4986831,27.1625568 C73.4986831,25.3977363 74.9294575,23.9669619 76.6942781,23.9669619 C78.4590986,23.9669619 79.889873,25.3977363 79.889873,27.1625568" id="Fill-24" fill="#F3F2EE"></path>
                        <path d="M64.4444975,41.542734 C64.4444975,43.3075545 63.0137232,44.7383289 61.2489026,44.7383289 C59.4840821,44.7383289 58.0533077,43.3075545 58.0533077,41.542734 C58.0533077,39.7779134 59.4840821,38.347139 61.2489026,38.347139 C63.0137232,38.347139 64.4444975,39.7779134 64.4444975,41.542734" id="Fill-26" fill="#F3F2EE"></path>
                        <path d="M22.9017636,18.6409704 C22.9017636,20.4057909 21.4709892,21.8365653 19.7061687,21.8365653 C17.9413481,21.8365653 16.5105737,20.4057909 16.5105737,18.6409704 C16.5105737,16.8761498 17.9413481,15.4453754 19.7061687,15.4453754 C21.4709892,15.4453754 22.9017636,16.8761498 22.9017636,18.6409704" id="Fill-28" fill="#F3F2EE"></path>
                        <path d="M89.4766577,52.194717 C89.4766577,53.9595376 88.0458834,55.3903119 86.2810628,55.3903119 C84.5162423,55.3903119 83.0854679,53.9595376 83.0854679,52.194717 C83.0854679,50.4298965 84.5162423,48.9991221 86.2810628,48.9991221 C88.0458834,48.9991221 89.4766577,50.4298965 89.4766577,52.194717" id="Fill-30" fill="#F3F2EE"></path>
                        <path d="M95.3352484,36.7493416 C95.3352484,38.5141621 93.9044741,39.9449365 92.1396535,39.9449365 C90.374833,39.9449365 88.9440586,38.5141621 88.9440586,36.7493416 C88.9440586,34.984521 90.374833,33.5537467 92.1396535,33.5537467 C93.9044741,33.5537467 95.3352484,34.984521 95.3352484,36.7493416" id="Fill-32" fill="#F3F2EE"></path>
                    </g>
                </g>
            </g>
        </g>
    </g>
</svg>