<?xml version="1.0" encoding="UTF-8"?>
<svg width="409px" height="515px" viewBox="0 0 409 515" version="1.1" xmlns="http://www.w3.org/2000/svg" xmlns:xlink="http://www.w3.org/1999/xlink">
    <!-- Generator: Sketch 53.2 (72643) - https://sketchapp.com -->
    <title>Espresso Desktop</title>
    <desc>Created with Sketch.</desc>
    <defs>
        <filter x="-4.4%" y="-5.5%" width="108.9%" height="111.1%" filterUnits="objectBoundingBox" id="filter-1">
            <feOffset dx="0" dy="2" in="SourceAlpha" result="shadowOffsetOuter1"></feOffset>
            <feGaussianBlur stdDeviation="2" in="shadowOffsetOuter1" result="shadowBlurOuter1"></feGaussianBlur>
            <feColorMatrix values="0 0 0 0 0   0 0 0 0 0   0 0 0 0 0  0 0 0 0.3 0" type="matrix" in="shadowBlurOuter1" result="shadowMatrixOuter1"></feColorMatrix>
            <feMerge>
                <feMergeNode in="shadowMatrixOuter1"></feMergeNode>
                <feMergeNode in="SourceGraphic"></feMergeNode>
            </feMerge>
        </filter>
    </defs>
    <g id="Desktop" stroke="none" stroke-width="1" fill="none" fill-rule="evenodd">
        <g id="Core-Coffees-Espresso-Desktop" transform="translate(-917.000000, -631.000000)">
            <g id="Coffee" transform="translate(222.000000, 560.000000)">
                <g id="Espresso" transform="translate(177.000000, 68.000000)">
                    <g id="Espresso-Desktop" transform="translate(475.000000, 3.000000)">
                        <g id="Espresso" filter="url(#filter-1)" transform="translate(133.000000, 146.000000)">
                            <path d="M23.407024,31.180033 L175.587335,18.9789904 C175.587335,18.9789904 182.765652,16.8258652 184.919147,25.0795117 C187.790474,31.180033 192.815295,37.6394085 204.300602,37.6394085 C212.914582,37.6394085 240.910016,32.6154498 250.959659,62.759202 C253.830986,72.0894111 260.291471,102.950872 232.296036,115.869623 C222.964225,120.175873 191.379632,132.376916 186.35481,135.247749 C181.329989,138.118583 175.587335,140.989416 172.716009,152.472751 C166.973356,164.673793 159.795039,175.439419 156.923712,179.027961 C154.052386,182.616503 148.896919,187.640462 138.5544,188.35817 C126.774783,189.793587 71.501745,194.099837 71.501745,194.099837 C71.501745,194.099837 64.3234285,196.970671 55.7094486,186.205045 C46.377637,175.439419 19.100034,148.884209 16.9465391,44.8164923 C16.9465391,37.6394085 14.0780838,31.9278851 23.407024,31.180033 Z M200.723468,52.8949646 C183.956894,64.3867841 187.167514,93.1163329 188.594457,100.29872 C191.805078,113.586136 209.998595,113.586136 213.565951,112.867898 C222.127606,112.149659 234.970089,99.9396007 236.397032,97.4257652 C250.666457,72.28741 231.759469,57.5635162 227.478641,53.2540839 C214.279422,43.5578612 200.723468,52.8949646 200.723468,52.8949646 Z" id="Combined-Shape" fill="#6D1F37"></path>
                            <path d="M31.9591837,96.6676102 C31.9591837,96.6676102 35.5572212,143.962455 60.0238764,175.492352 C63.6219139,179.791884 71.5375965,186.957769 94.5650367,184.808004 C102.480719,184.091415 114.714047,181.225061 124.788552,181.225061 C130.545412,181.225061 152.133637,180.508472 157.890497,164.026935 C163.647357,151.128341 175.161077,121.74821 177.3199,96.6676102 C178.039507,93.8012559 178.759115,91.6514902 172.282647,88.785136 C167.965002,86.6353703 157.17089,81.6192503 130.545412,93.8012559 C117.80692,96.1330351 101.018477,98.1108196 84.4905316,93.8012559 C73.696419,88.785136 63.6219139,85.2021932 47.7905488,90.9349017 C40.5944737,93.0846674 31.9591837,96.6676102 31.9591837,96.6676102" id="Fill-3" fill="#B51144"></path>
                            <path d="M85.4957993,10.7857821 C85.4957993,12.4832496 84.1184546,13.8609044 82.4213691,13.8609044 C80.7242835,13.8609044 79.3469388,12.4832496 79.3469388,10.7857821 C79.3469388,9.08831466 80.7242835,7.7106599 82.4213691,7.7106599 C84.1184546,7.7106599 85.4957993,9.08831466 85.4957993,10.7857821" id="Fill-5" fill="#B51144"></path>
                            <path d="M13.8631463,19.5979649 C13.8631463,21.2954324 12.4858015,22.6730871 10.788716,22.6730871 C9.09163048,22.6730871 7.71428571,21.2954324 7.71428571,19.5979649 C7.71428571,17.9004974 9.09163048,16.5228426 10.788716,16.5228426 C12.4858015,16.5228426 13.8631463,17.9004974 13.8631463,19.5979649" id="Fill-7" fill="#B51144"></path>
                            <path d="M13.8631463,120.938066 C13.8631463,122.635534 12.4858015,124.013189 10.788716,124.013189 C9.09163048,124.013189 7.71428571,122.635534 7.71428571,120.938066 C7.71428571,119.240599 9.09163048,117.862944 10.788716,117.862944 C12.4858015,117.862944 13.8631463,119.240599 13.8631463,120.938066" id="Fill-9" fill="#B51144"></path>
                            <path d="M21.577432,153.983752 C21.577432,155.681219 20.2000872,157.058874 18.5030017,157.058874 C16.8059162,157.058874 15.4285714,155.681219 15.4285714,153.983752 C15.4285714,152.286284 16.8059162,150.908629 18.5030017,150.908629 C20.2000872,150.908629 21.577432,152.286284 21.577432,153.983752" id="Fill-11" fill="#B51144"></path>
                            <path d="M32.5978401,181.521823 C32.5978401,183.21929 31.2204954,184.596945 29.5234099,184.596945 C27.8263244,184.596945 26.4489796,183.21929 26.4489796,181.521823 C26.4489796,179.824355 27.8263244,178.446701 29.5234099,178.446701 C31.2204954,178.446701 32.5978401,179.824355 32.5978401,181.521823" id="Fill-13" fill="#B51144"></path>
                            <path d="M46.9243708,204.653802 C46.9243708,206.35127 45.547026,207.728925 43.8499405,207.728925 C42.152855,207.728925 40.7755102,206.35127 40.7755102,204.653802 C40.7755102,202.956335 42.152855,201.57868 43.8499405,201.57868 C45.547026,201.57868 46.9243708,202.956335 46.9243708,204.653802" id="Fill-15" fill="#B51144"></path>
                            <path d="M68.9651871,11.887305 C68.9651871,13.5847725 67.5878423,14.9624272 65.8907568,14.9624272 C64.1936713,14.9624272 62.8163265,13.5847725 62.8163265,11.887305 C62.8163265,10.1898375 64.1936713,8.81218274 65.8907568,8.81218274 C67.5878423,8.81218274 68.9651871,10.1898375 68.9651871,11.887305" id="Fill-17" fill="#B51144"></path>
                            <path d="M30.3937585,17.3949192 C30.3937585,19.0923867 29.0164137,20.4700414 27.3193282,20.4700414 C25.6222427,20.4700414 24.244898,19.0923867 24.244898,17.3949192 C24.244898,15.6974517 25.6222427,14.319797 27.3193282,14.319797 C29.0164137,14.319797 30.3937585,15.6974517 30.3937585,17.3949192" id="Fill-19" fill="#B51144"></path>
                            <path d="M6.14886055,46.0345131 C6.14886055,47.7319806 4.77151579,49.1096353 3.07443027,49.1096353 C1.37734476,49.1096353 0,47.7319806 0,46.0345131 C0,44.3370456 1.37734476,42.9593909 3.07443027,42.9593909 C4.77151579,42.9593909 6.14886055,44.3370456 6.14886055,46.0345131" id="Fill-21" fill="#B51144"></path>
                            <path d="M12.7611054,106.618269 C12.7611054,108.315737 11.3837607,109.693392 9.68667517,109.693392 C7.98958966,109.693392 6.6122449,108.315737 6.6122449,106.618269 C6.6122449,104.920802 7.98958966,103.543147 9.68667517,103.543147 C11.3837607,103.543147 12.7611054,104.920802 12.7611054,106.618269" id="Fill-23" fill="#B51144"></path>
                            <path d="M11.9205367,135.681838 C13.5114893,135.088345 15.2807516,135.898632 15.8725552,137.489993 C16.465896,139.079816 15.6573539,140.85107 14.0664013,141.443026 C12.4739115,142.036519 10.7046493,141.226232 10.1128456,139.634871 C9.51950487,138.045047 10.3295841,136.273793 11.9205367,135.681838" id="Fill-25" fill="#B51144"></path>
                            <path d="M33.961353,189.656457 C35.5523057,189.062964 37.3215679,189.873251 37.9133716,191.464612 C38.5067123,193.054436 37.6981702,194.82569 36.1072176,195.417645 C34.5147279,196.011138 32.7454656,195.200851 32.153662,193.60949 C31.5603212,192.019667 32.3704004,190.248413 33.961353,189.656457" id="Fill-27" fill="#B51144"></path>
                            <path d="M22.9409449,165.422955 C24.5318975,164.829462 26.3011598,165.639749 26.8929634,167.23111 C27.4863042,168.820933 26.6777621,170.592187 25.0868095,171.184143 C23.4943197,171.777636 21.7250574,170.967349 21.1332538,169.375988 C20.539913,167.786164 21.3499923,166.01491 22.9409449,165.422955" id="Fill-29" fill="#B51144"></path>
                            <path d="M6.14886055,77.9786755 C6.14886055,79.676143 4.77151579,81.0537978 3.07443027,81.0537978 C1.37734476,81.0537978 0,79.676143 0,77.9786755 C0,76.2812081 1.37734476,74.9035533 3.07443027,74.9035533 C4.77151579,74.9035533 6.14886055,76.2812081 6.14886055,77.9786755" id="Fill-31" fill="#B51144"></path>
                            <path d="M8.35294218,32.816239 C8.35294218,34.5137065 6.97559742,35.8913612 5.27851191,35.8913612 C3.5814264,35.8913612 2.20408163,34.5137065 2.20408163,32.816239 C2.20408163,31.1187715 3.5814264,29.7411168 5.27851191,29.7411168 C6.97559742,29.7411168 8.35294218,31.1187715 8.35294218,32.816239" id="Fill-33" fill="#B51144"></path>
                            <path d="M7.25090137,62.5573557 C7.25090137,64.2548232 5.8735566,65.632478 4.17647109,65.632478 C2.47938558,65.632478 1.10204082,64.2548232 1.10204082,62.5573557 C1.10204082,60.8598883 2.47938558,59.4822335 4.17647109,59.4822335 C5.8735566,59.4822335 7.25090137,60.8598883 7.25090137,62.5573557" id="Fill-35" fill="#B51144"></path>
                            <path d="M8.35294218,88.993904 C8.35294218,90.6913714 6.97559742,92.0690262 5.27851191,92.0690262 C3.5814264,92.0690262 2.20408163,90.6913714 2.20408163,88.993904 C2.20408163,87.2964365 3.5814264,85.9187817 5.27851191,85.9187817 C6.97559742,85.9187817 8.35294218,87.2964365 8.35294218,88.993904" id="Fill-37" fill="#B51144"></path>
                            <path d="M120.761105,8.58273645 C120.761105,10.2802039 119.383761,11.6578587 117.686675,11.6578587 C115.98959,11.6578587 114.612245,10.2802039 114.612245,8.58273645 C114.612245,6.88526898 115.98959,5.50761421 117.686675,5.50761421 C119.383761,5.50761421 120.761105,6.88526898 120.761105,8.58273645" id="Fill-39" fill="#B51144"></path>
                            <path d="M139.495799,7.48121361 C139.495799,9.17868108 138.118455,10.5563358 136.421369,10.5563358 C134.724284,10.5563358 133.346939,9.17868108 133.346939,7.48121361 C133.346939,5.78374613 134.724284,4.40609137 136.421369,4.40609137 C138.118455,4.40609137 139.495799,5.78374613 139.495799,7.48121361" id="Fill-41" fill="#B51144"></path>
                            <path d="M251.903963,36.1208075 C251.903963,37.818275 250.526618,39.1959298 248.829532,39.1959298 C247.132447,39.1959298 245.755102,37.818275 245.755102,36.1208075 C245.755102,34.42334 247.132447,33.0456853 248.829532,33.0456853 C250.526618,33.0456853 251.903963,34.42334 251.903963,36.1208075" id="Fill-43" fill="#B51144"></path>
                            <path d="M269.536616,94.5015182 C269.536616,96.1989857 268.159271,97.5766404 266.462185,97.5766404 C264.7651,97.5766404 263.387755,96.1989857 263.387755,94.5015182 C263.387755,92.8040507 264.7651,91.4263959 266.462185,91.4263959 C268.159271,91.4263959 269.536616,92.8040507 269.536616,94.5015182" id="Fill-45" fill="#B51144"></path>
                            <path d="M248.59784,126.445681 C248.59784,128.143148 247.220495,129.520803 245.52341,129.520803 C243.826324,129.520803 242.44898,128.143148 242.44898,126.445681 C242.44898,124.748213 243.826324,123.370558 245.52341,123.370558 C247.220495,123.370558 248.59784,124.748213 248.59784,126.445681" id="Fill-47" fill="#B51144"></path>
                            <path d="M221.04682,137.460909 C221.04682,139.158377 219.669475,140.536031 217.972389,140.536031 C216.275304,140.536031 214.897959,139.158377 214.897959,137.460909 C214.897959,135.763442 216.275304,134.385787 217.972389,134.385787 C219.669475,134.385787 221.04682,135.763442 221.04682,137.460909" id="Fill-49" fill="#B51144"></path>
                            <path d="M183.577432,176.014209 C183.577432,177.711676 182.200087,179.089331 180.503002,179.089331 C178.805916,179.089331 177.428571,177.711676 177.428571,176.014209 C177.428571,174.315203 178.805916,172.939086 180.503002,172.939086 C182.200087,172.939086 183.577432,174.315203 183.577432,176.014209" id="Fill-51" fill="#B51144"></path>
                            <path d="M259.618248,117.633498 C259.618248,119.330965 258.240904,120.70862 256.543818,120.70862 C254.846733,120.70862 253.469388,119.330965 253.469388,117.633498 C253.469388,115.93603 254.846733,114.558376 256.543818,114.558376 C258.240904,114.558376 259.618248,115.93603 259.618248,117.633498" id="Fill-53" fill="#B51144"></path>
                            <path d="M194.59784,149.57766 C194.59784,151.275128 193.220495,152.652783 191.52341,152.652783 C189.826324,152.652783 188.44898,151.275128 188.44898,149.57766 C188.44898,147.880193 189.826324,146.502538 191.52341,146.502538 C193.220495,146.502538 194.59784,147.880193 194.59784,149.57766" id="Fill-55" fill="#B51144"></path>
                            <path d="M172.557024,198.044665 C172.557024,199.742133 171.179679,201.119788 169.482594,201.119788 C167.785508,201.119788 166.408163,199.742133 166.408163,198.044665 C166.408163,196.347198 167.785508,194.969543 169.482594,194.969543 C171.179679,194.969543 172.557024,196.347198 172.557024,198.044665" id="Fill-57" fill="#B51144"></path>
                            <path d="M160.434575,203.55228 C160.434575,205.249747 159.05723,206.627402 157.360145,206.627402 C155.663059,206.627402 154.285714,205.249747 154.285714,203.55228 C154.285714,201.854812 155.663059,200.477157 157.360145,200.477157 C159.05723,200.477157 160.434575,201.854812 160.434575,203.55228" id="Fill-59" fill="#B51144"></path>
                            <path d="M206.720289,144.070046 C206.720289,145.767514 205.342944,147.145168 203.645859,147.145168 C201.948773,147.145168 200.571429,145.767514 200.571429,144.070046 C200.571429,142.372579 201.948773,140.994924 203.645859,140.994924 C205.342944,140.994924 206.720289,142.372579 206.720289,144.070046" id="Fill-61" fill="#B51144"></path>
                            <path d="M266.230493,57.0497415 C266.230493,58.747209 264.853148,60.1248638 263.156063,60.1248638 C261.458977,60.1248638 260.081633,58.747209 260.081633,57.0497415 C260.081633,55.3522741 261.458977,53.9746193 263.156063,53.9746193 C264.853148,53.9746193 266.230493,55.3522741 266.230493,57.0497415" id="Fill-63" fill="#B51144"></path>
                            <path d="M268.434575,71.3695385 C268.434575,73.067006 267.05723,74.4446607 265.360145,74.4446607 C263.663059,74.4446607 262.285714,73.067006 262.285714,71.3695385 C262.285714,69.6705334 263.663059,68.2944162 265.360145,68.2944162 C267.05723,68.2944162 268.434575,69.6705334 268.434575,71.3695385" id="Fill-65" fill="#B51144"></path>
                            <path d="M171.454983,5.27816792 C171.454983,6.9756354 170.077638,8.35329016 168.380553,8.35329016 C166.683467,8.35329016 165.306122,6.9756354 165.306122,5.27816792 C165.306122,3.58070045 166.683467,2.20304569 168.380553,2.20304569 C170.077638,2.20304569 171.454983,3.58070045 171.454983,5.27816792" id="Fill-67" fill="#B51144"></path>
                            <path d="M260.720289,44.9329903 C260.720289,46.6304577 259.342944,48.0081125 257.645859,48.0081125 C255.948773,48.0081125 254.571429,46.6304577 254.571429,44.9329903 C254.571429,43.2339852 255.948773,41.857868 257.645859,41.857868 C259.342944,41.857868 260.720289,43.2339852 260.720289,44.9329903" id="Fill-69" fill="#B51144"></path>
                            <path d="M239.781514,31.7147161 C239.781514,33.4121836 238.404169,34.7898384 236.707083,34.7898384 C235.009998,34.7898384 233.632653,33.4121836 233.632653,31.7147161 C233.632653,30.0172487 235.009998,28.6395939 236.707083,28.6395939 C238.404169,28.6395939 239.781514,30.0172487 239.781514,31.7147161" id="Fill-71" fill="#B51144"></path>
                            <path d="M266.230493,106.618269 C266.230493,108.315737 264.853148,109.693392 263.156063,109.693392 C261.458977,109.693392 260.081633,108.315737 260.081633,106.618269 C260.081633,104.920802 261.458977,103.543147 263.156063,103.543147 C264.853148,103.543147 266.230493,104.920802 266.230493,106.618269" id="Fill-73" fill="#B51144"></path>
                            <path d="M187.985595,162.795934 C187.985595,164.493402 186.60825,165.871057 184.911165,165.871057 C183.214079,165.871057 181.836735,164.493402 181.836735,162.795934 C181.836735,161.098467 183.214079,159.720812 184.911165,159.720812 C186.60825,159.720812 187.985595,161.098467 187.985595,162.795934" id="Fill-75" fill="#B51144"></path>
                            <path d="M176.965187,184.826391 C176.965187,186.523859 175.587842,187.901514 173.890757,187.901514 C172.193671,187.901514 170.816327,186.523859 170.816327,184.826391 C170.816327,183.127386 172.193671,181.751269 173.890757,181.751269 C175.587842,181.751269 176.965187,183.127386 176.965187,184.826391" id="Fill-77" fill="#B51144"></path>
                            <path d="M146.108044,204.653802 C146.108044,206.35127 144.730699,207.728925 143.033614,207.728925 C141.336528,207.728925 139.959184,206.35127 139.959184,204.653802 C139.959184,202.956335 141.336528,201.57868 143.033614,201.57868 C144.730699,201.57868 146.108044,202.956335 146.108044,204.653802" id="Fill-79" fill="#B51144"></path>
                            <path d="M118.557024,206.856848 C118.557024,208.554316 117.179679,209.93197 115.482594,209.93197 C113.785508,209.93197 112.408163,208.554316 112.408163,206.856848 C112.408163,205.159381 113.785508,203.781726 115.482594,203.781726 C117.179679,203.781726 118.557024,205.159381 118.557024,206.856848" id="Fill-81" fill="#B51144"></path>
                            <path d="M86.5978401,211.262939 C86.5978401,212.960407 85.2204954,214.338062 83.5234099,214.338062 C81.8263244,214.338062 80.4489796,212.960407 80.4489796,211.262939 C80.4489796,209.565472 81.8263244,208.187817 83.5234099,208.187817 C85.2204954,208.187817 86.5978401,209.565472 86.5978401,211.262939" id="Fill-83" fill="#B51144"></path>
                            <path d="M56.8427381,211.262939 C56.8427381,212.960407 55.4653933,214.338062 53.7683078,214.338062 C52.0712223,214.338062 50.6938776,212.960407 50.6938776,211.262939 C50.6938776,209.565472 52.0712223,208.187817 53.7683078,208.187817 C55.4653933,208.187817 56.8427381,209.565472 56.8427381,211.262939" id="Fill-85" fill="#B51144"></path>
                            <path d="M132.883554,205.755325 C132.883554,207.452793 131.50621,208.830448 129.809124,208.830448 C128.112039,208.830448 126.734694,207.452793 126.734694,205.755325 C126.734694,204.057858 128.112039,202.680203 129.809124,202.680203 C131.50621,202.680203 132.883554,204.057858 132.883554,205.755325" id="Fill-87" fill="#B51144"></path>
                            <path d="M103.128452,207.958371 C103.128452,209.655838 101.751108,211.033493 100.054022,211.033493 C98.3569366,211.033493 96.9795918,209.655838 96.9795918,207.958371 C96.9795918,206.260903 98.3569366,204.883249 100.054022,204.883249 C101.751108,204.883249 103.128452,206.260903 103.128452,207.958371" id="Fill-89" fill="#B51144"></path>
                            <path d="M70.0672279,213.465985 C70.0672279,215.163453 68.6898831,216.541107 66.9927976,216.541107 C65.2957121,216.541107 63.9183673,215.163453 63.9183673,213.465985 C63.9183673,211.768518 65.2957121,210.390863 66.9927976,210.390863 C68.6898831,210.390863 70.0672279,211.768518 70.0672279,213.465985" id="Fill-91" fill="#B51144"></path>
                            <path d="M234.27131,131.953295 C234.27131,133.650762 232.893965,135.028417 231.196879,135.028417 C229.499794,135.028417 228.122449,133.650762 228.122449,131.953295 C228.122449,130.255827 229.499794,128.878173 231.196879,128.878173 C232.893965,128.878173 234.27131,130.255827 234.27131,131.953295" id="Fill-93" fill="#B51144"></path>
                            <path d="M196.801922,7.48121361 C196.801922,9.17868108 195.424577,10.5563358 193.727491,10.5563358 C192.030406,10.5563358 190.653061,9.17868108 190.653061,7.48121361 C190.653061,5.78374613 192.030406,4.40609137 193.727491,4.40609137 C195.424577,4.40609137 196.801922,5.78374613 196.801922,7.48121361" id="Fill-95" fill="#B51144"></path>
                            <path d="M201.210085,19.5979649 C201.210085,21.2954324 199.83274,22.6730871 198.135655,22.6730871 C196.438569,22.6730871 195.061224,21.2954324 195.061224,19.5979649 C195.061224,17.8989598 196.438569,16.5228426 198.135655,16.5228426 C199.83274,16.5228426 201.210085,17.8989598 201.210085,19.5979649" id="Fill-97" fill="#B51144"></path>
                            <path d="M269.536616,82.3847669 C269.536616,84.0822344 268.159271,85.4598891 266.462185,85.4598891 C264.7651,85.4598891 263.387755,84.0822344 263.387755,82.3847669 C263.387755,80.6872994 264.7651,79.3096447 266.462185,79.3096447 C268.159271,79.3096447 269.536616,80.6872994 269.536616,82.3847669" id="Fill-99" fill="#B51144"></path>
                            <path d="M104.230493,9.68425929 C104.230493,11.3817268 102.853148,12.7593815 101.156063,12.7593815 C99.4589774,12.7593815 98.0816327,11.3817268 98.0816327,9.68425929 C98.0816327,7.98679182 99.4589774,6.60913706 101.156063,6.60913706 C102.853148,6.60913706 104.230493,7.98679182 104.230493,9.68425929" id="Fill-101" fill="#B51144"></path>
                            <path d="M49.1284524,15.1918735 C49.1284524,16.889341 47.7511076,18.2669957 46.0540221,18.2669957 C44.3569366,18.2669957 42.9795918,16.889341 42.9795918,15.1918735 C42.9795918,13.494406 44.3569366,12.1167513 46.0540221,12.1167513 C47.7511076,12.1167513 49.1284524,13.494406 49.1284524,15.1918735" id="Fill-103" fill="#B51144"></path>
                            <path d="M156.026412,7.48121361 C156.026412,9.17868108 154.649067,10.5563358 152.951981,10.5563358 C151.254896,10.5563358 149.877551,9.17868108 149.877551,7.48121361 C149.877551,5.78374613 151.254896,4.40609137 152.951981,4.40609137 C154.649067,4.40609137 156.026412,5.78374613 156.026412,7.48121361" id="Fill-105" fill="#B51144"></path>
                            <path d="M184.679473,3.07512224 C184.679473,4.77258971 183.302128,6.15024448 181.605043,6.15024448 C179.907957,6.15024448 178.530612,4.77258971 178.530612,3.07512224 C178.530612,1.37765476 179.907957,0 181.605043,0 C183.302128,0 184.679473,1.37765476 184.679473,3.07512224" id="Fill-107" fill="#B51144"></path>
                            <path d="M226.557024,27.3086248 C226.557024,29.0060923 225.179679,30.383747 223.482594,30.383747 C221.785508,30.383747 220.408163,29.0060923 220.408163,27.3086248 C220.408163,25.6111573 221.785508,24.2335025 223.482594,24.2335025 C225.179679,24.2335025 226.557024,25.6111573 226.557024,27.3086248" id="Fill-109" fill="#B51144"></path>
                            <path d="M212.230493,26.2071019 C212.230493,27.9045694 210.853148,29.2822242 209.156063,29.2822242 C207.458977,29.2822242 206.081633,27.9045694 206.081633,26.2071019 C206.081633,24.5096345 207.458977,23.1319797 209.156063,23.1319797 C210.853148,23.1319797 212.230493,24.5096345 212.230493,26.2071019" id="Fill-111" fill="#B51144"></path>
                        </g>
                        <g id="Arrows">
                            <path d="M68.6464906,437.88 C68.6464906,438.16 68.4464906,438.96 68.2864906,439.56 C68.2464906,439.68 68.2464906,439.76 68.2864906,439.84 C67.8064906,441.56 66.5264906,443.84 64.8064906,445.44 C62.7264906,447.24 60.1664906,448.92 58.6064906,449.52 C58.3264906,449.64 57.8064906,449.44 57.5264906,449.44 C57.2064906,449.44 56.6064906,449.8 56.4064906,449.8 C56.1264906,449.8 55.9664906,449.72 55.9264906,449.6 L55.9264906,449.52 C55.6064906,449.68 55.4864906,450 55.4464906,450.28 C55.1664906,450.92 55.0864906,452.04 54.7664906,453 C54.6064906,453.52 54.1264906,454.44 54.0064906,455.08 C53.8464906,456.04 53.9664906,456.76 53.2864906,458 L52.9264906,458.48 C52.8064906,458.48 52.7664906,458.56 52.4864906,458.56 C52.3264906,458.56 52.1264906,458.32 51.9264906,458.32 C51.6464906,458.32 51.6864906,458.48 51.5264906,458.48 C51.4064906,458.28 51.4864906,457.96 51.2064906,457.96 C50.9264906,457.96 51.0864906,458 50.9664906,458 C50.9664906,457.88 51.0464906,458.04 51.0464906,457.76 C51.0464906,457.48 50.6464906,457.16 50.3264906,456.64 C50.4464906,456.48 50.2864906,456.4 50.2864906,456.12 C50.2864906,455.36 51.1664906,454.12 51.2864906,453.52 C51.9264906,451.08 52.6864906,448.6 53.2864906,446.2 C54.2864906,442 55.4064906,437.64 56.4864906,433.44 C56.6064906,432.92 56.6064906,432.04 56.7264906,431.28 C55.4464906,430.76 55.0064906,429 55.1264906,428 C55.3264906,427.88 55.5664906,427.72 55.7664906,427.68 C56.1264906,427.56 56.6064906,427.48 57.2064906,427.48 C57.8064906,427.44 58.1264906,427.44 58.2464906,427.44 C58.5264906,427.44 58.2864906,427.52 58.4064906,427.56 C59.0464906,427.56 60.0864906,428.12 60.7664906,428.44 C60.8864906,428.56 61.4064906,428.64 61.5664906,428.76 C65.5264906,431.32 68.6464906,434.48 68.6464906,437.88 Z M65.6864906,435.44 C65.6864906,434 61.8064906,430.92 60.1264906,430.92 C60.0064906,430.92 60.2064906,430.84 60.0064906,430.84 C59.8064906,430.84 59.6064906,430.92 59.4464906,430.92 L59.4464906,431.4 C59.4464906,431.72 59.8064906,432.72 59.7664906,433.24 C59.6064906,434.52 59.3664906,435.88 59.1664906,436.96 C58.7264906,438.84 58.0864906,441.16 57.7664906,442.48 C57.6064906,443.4 57.0464906,444.8 57.0064906,445.72 C57.3664906,445.72 58.0064906,445.56 58.3264906,445.44 C58.0064906,444.92 58.7664906,444.88 59.0464906,444.6 C59.0864906,444.68 59.0864906,444.72 59.0864906,444.72 L59.0864906,444.76 C58.9264906,444.88 59.1264906,444.88 59.2864906,444.88 C59.4864906,444.72 60.2064906,444.16 60.3264906,444 C60.2864906,444 60.2864906,444.04 60.1664906,444.04 L60.0864906,444.04 C59.9664906,443.88 60.1264906,443.96 60.1264906,443.84 C62.9664906,442.48 65.6864906,438.28 65.6864906,435.44 Z M83.5264906,452.64 L83.8064906,452.88 C83.6864906,452.96 83.4464906,453.16 83.1664906,453.44 C83.3264906,453.64 83.4064906,453.88 83.6064906,454.08 C83.4064906,454.36 83.2064906,454.68 83.0064906,455.04 C82.9264906,455.16 82.9264906,455.28 83.0064906,455.32 C82.8864906,455.48 82.6864906,455.68 82.4064906,455.96 C82.5664906,456.12 82.6864906,456.08 82.8464906,455.92 C82.8464906,456.08 82.8064906,456.24 82.5264906,456.24 C82.2064906,456.24 82.4864906,456.16 82.3664906,456.04 C82.2464906,456.16 82.2864906,456.36 82.1264906,456.52 C82.0064906,456.68 81.8064906,456.96 81.4464906,457.16 C81.0064906,457.52 80.0064906,458.08 79.7264906,458.08 C78.7664906,458.08 77.6864906,457.72 76.8464906,457.4 C76.6864906,457.28 76.2464906,456.92 76.0864906,456.64 C75.6064906,455.68 75.2064906,454.6 74.8464906,453.76 C74.6864906,453.48 74.8064906,452.92 74.8064906,452.64 C74.8064906,452.44 74.7664906,452.2 74.6464906,452 C73.2064906,453.76 71.5264906,455.52 70.3664906,457.72 C70.2064906,457.84 69.9264906,458.04 69.5664906,458.2 L69.4864906,458.24 C69.4864906,458.28 69.5264906,458.32 69.6064906,458.36 C69.2464906,458.36 68.7664906,458.24 68.3264906,458.24 C68.1664906,457.88 67.6464906,457.64 67.2864906,457.28 C67.0864906,457.08 66.6864906,456.64 66.6464906,456.32 C66.4864906,455.96 66.3664906,455.2 66.3664906,454.88 C66.3664906,453 66.8464906,451.88 67.1664906,450.08 C67.5264906,449.72 67.7264906,449.2 67.8464906,448.72 C67.8464906,448.52 67.7264906,448.2 67.7664906,448 C67.9264906,447.64 68.2064906,447.36 68.3664906,447.24 C68.5664906,447.04 68.5264906,446.56 68.6464906,446.2 C68.6864906,446.04 68.8864906,446.04 69.0064906,445.88 C69.0064906,445.72 68.9264906,445.72 68.9664906,445.56 C69.8064906,444.08 70.3264906,441.56 72.1664906,441.56 C72.4464906,441.56 72.6464906,441.8 72.9664906,441.68 C73.0064906,442 73.4064906,442.36 73.6064906,442.68 C73.6064906,442.84 73.7264906,443 73.7264906,443.28 C73.7264906,444.28 72.6864906,446 72.0864906,447.4 C71.7664906,448.08 71.3264906,448.96 71.0064906,449.72 C70.6864906,450.52 70.2064906,451.4 69.7664906,452.4 C69.7664906,452.52 69.7264906,452.68 69.8464906,452.88 C69.5264906,453.36 69.4464906,453.92 69.2464906,454.52 L69.2464906,454.8 L69.3264906,454.8 C72.0064906,451.76 74.4864906,449.2 76.1264906,446 C76.4064906,445.48 76.8464906,444.64 77.2864906,444.04 C77.4464906,444.2 77.7264906,444.28 77.9264906,444.48 C78.0864906,444.48 77.9664906,444.28 77.9664906,444.16 C78.1264906,444.28 78.1264906,444.48 78.4064906,444.48 C78.6064906,444.48 78.3664906,444.36 78.5664906,444.36 C78.6864906,444.36 78.9664906,444.92 79.7264906,445.12 C80.0064906,445.48 80.2864906,446.32 80.2864906,446.64 C80.2864906,446.8 79.6864906,447.76 79.4864906,448.36 C79.1264906,449.2 78.7664906,450.32 78.5664906,451.32 L78.5264906,451.4 C78.4464906,451.44 78.4064906,451.52 78.4064906,451.56 C78.2464906,452.4 78.0864906,453.72 78.0864906,454.04 C78.0864906,454.24 78.1664906,454.36 78.3664906,454.4 C78.4464906,454.44 78.5264906,454.48 78.6464906,454.48 C78.7664906,454.48 79.1264906,454.4 79.7264906,454.28 L81.1664906,453.88 C81.9664906,453.68 82.7664906,453.08 83.5264906,452.64 Z M95.0464906,445.72 C94.8864906,446.08 94.2864906,446.4 94.4464906,446.76 C94.0064906,446.76 93.5264906,446.6 92.7664906,446.76 C92.7264906,446.48 92.6864906,446.12 92.5664906,445.6 C90.9664906,446.2 89.6464906,448.08 88.6464906,449.64 C88.6464906,449.52 88.6064906,449.44 88.4864906,449.44 C88.3664906,449.68 88.3264906,449.84 88.4064906,449.92 C88.3664906,449.92 88.3264906,449.92 88.2864906,449.96 C88.2064906,450.08 88.1664906,450.12 88.1664906,450.12 C88.1264906,450.24 88.2864906,450.28 88.2864906,450.44 C88.1664906,450.44 88.1664906,450.52 88.0064906,450.52 L87.9664906,450.52 C87.8864906,450.52 87.8464906,450.56 87.8464906,450.6 C87.7264906,450.76 88.0064906,450.84 88.0064906,450.88 C87.7664906,451.32 87.4464906,451.84 87.0464906,452.36 C87.0464906,452.52 87.1664906,452.6 87.1264906,452.64 C86.9664906,453 86.7264906,453.2 86.4464906,453.48 C86.2464906,453.76 86.2864906,454.16 86.1264906,454.48 C85.6064906,455.56 85.0864906,456.88 85.4464906,458 C85.2064906,458.16 84.9664906,458.24 84.6864906,458.24 C84.5264906,458.24 83.9264906,457.96 83.5664906,457.8 C83.4064906,457.64 83.5664906,457.12 83.1264906,457.24 C82.8464906,456.4 82.4464906,455.8 82.4464906,455.16 C82.4464906,454.92 83.0864906,452.72 83.1664906,451.64 C83.5264906,450.16 83.8064906,448.68 83.9264906,447.12 C84.0464906,446.2 84.2064906,445 84.3264906,443.84 C84.4464906,443.08 84.4864906,442.2 84.6864906,441.44 L85.1664906,441.44 C85.6064906,441.44 86.4064906,442.04 86.6064906,442.56 C86.8064906,443.16 86.9664906,443.72 87.0064906,444.32 C87.0464906,444.76 86.8864906,445.12 86.8864906,445.72 C87.2864906,444.72 89.4864906,443.04 90.7664906,443.04 C91.9264906,443.04 93.6864906,443.72 94.6064906,444.84 C94.7664906,445.04 94.8464906,445.4 95.0464906,445.72 Z M99.8389965,441.069196 C99.7860871,441.052394 99.7664906,441.015995 99.7664906,440.96 C99.7664906,440.92 99.8064906,440.92 99.8464906,440.88 C99.8649399,440.947647 99.8606975,441.010567 99.8389965,441.069196 L99.8389965,441.069196 Z M99.8389965,441.069196 C99.8616786,441.076399 99.8904831,441.08 99.9264906,441.08 C100.246491,441.08 99.8464906,440.96 100.166491,440.96 C100.366491,440.96 100.926491,441.32 101.286491,441.44 C101.406491,441.8 101.286491,442.2 101.566491,442.2 C101.886491,442.2 101.566491,442.08 101.846491,442.08 C102.046491,442.08 102.166491,442.28 102.326491,442.44 C102.326491,444.12 103.126491,443.24 103.126491,444.28 C103.126491,444.52 102.686491,446.52 102.366491,447.52 C102.046491,448.16 101.206491,449.36 100.526491,450.2 C99.3664906,451.6 97.0864906,453.88 97.0864906,454.24 C97.0864906,454.56 97.8064906,455.04 98.2864906,455.24 C98.5664906,455.4 99.1664906,455.36 99.4464906,455.36 C99.8864906,455.36 100.206491,454.96 100.846491,455.24 C101.926491,454.92 102.926491,454.56 103.726491,454.36 C103.846491,454.48 104.006491,454.52 104.126491,454.52 C103.686491,454.68 103.486491,454.96 103.126491,455.08 C103.126491,455.28 103.286491,455.4 103.566491,455.48 C103.406491,455.68 103.286491,456.08 103.126491,456.44 C102.446491,456.28 102.086491,457.16 102.086491,457.8 C101.606491,457.96 101.126491,458.04 100.526491,458.04 C100.329745,458.158048 100.520088,458.198677 100.678651,458.199968 C100.246293,458.240118 99.6464183,458.600007 99.2064906,458.64 L99.2064906,458.76 C99.2064906,458.8 99.1664906,458.84 99.0464906,458.84 C98.5664906,458.84 97.4064906,458.04 97.2864906,458.84 L96.8464906,458.24 C95.6864906,457.96 95.3664906,457.68 94.3664906,456.6 C93.6464906,455.96 94.0064906,456.96 93.2464906,453.76 C93.0464906,452.16 93.4064906,451.32 93.5664906,450.68 C93.7264906,449.92 94.3264906,448.36 94.9264906,447.12 C95.2464906,446.48 95.6464906,445.56 96.2464906,444.6 C96.5264906,444.24 97.0064906,443.64 97.2864906,443.12 C97.8864906,442.6 97.9664906,442.2 98.7664906,441.72 C99.0711429,441.584599 99.719547,441.391906 99.8389965,441.069196 L99.8389965,441.069196 Z M100.046491,444.96 C98.9664906,445.56 98.6064906,446.36 97.6064906,448.12 C97.1264906,449 96.8464906,449.52 96.8064906,449.68 L96.5664906,450.76 C97.1664906,450 97.7664906,449.28 98.2864906,448.52 C98.8864906,447.72 99.8464906,446.56 100.046491,444.96 Z M46.5921007,488.355499 C47.0573026,487.739603 47.5954325,486.689249 48.2064906,486.04 C48.3664906,485.76 48.8064906,485.8 49.1264906,485.64 C49.4064906,485.48 49.4864906,485.2 49.8064906,485.2 C50.0064906,485.2 51.0464906,485.4 51.4864906,485.6 C51.9264906,485.88 52.7664906,486.52 53.0464906,487.16 C53.2464906,487.6 53.4464906,488.36 53.4464906,488.68 C53.4464906,489.08 53.0064906,491.44 52.5664906,491.68 C52.4464906,491.76 52.2464906,491.8 51.9664906,491.8 C51.3264906,491.8 51.0064906,491.32 50.8464906,490.72 C50.6864906,490.28 50.3264906,489.92 50.4864906,489.48 L50.4864906,489.44 L50.3664906,489.44 C48.8864906,491.32 47.7264906,493.4 47.0464906,494.88 C46.6464906,495.8 45.9664906,498.12 45.9664906,498.32 L45.9664906,498.88 C46.3264906,499.04 46.9264906,499.16 47.1264906,499.16 C47.3264906,499.16 48.2464906,498.72 48.8864906,498.44 C50.3264906,497.84 52.1664906,497.24 54.0464906,496.28 C54.5264906,496 55.8064906,495.28 56.7664906,494.84 C56.5664906,495.04 56.4464906,495.64 56.1264906,495.64 C55.8464906,495.64 56.0064906,495.48 55.8864906,495.64 C55.8864906,495.8 55.7264906,495.84 55.9264906,495.84 C56.2064906,495.84 56.0464906,495.8 56.2064906,495.8 C56.0464906,495.96 55.8464906,496.4 55.9664906,496.56 C55.4864906,497 54.8464906,497.4 54.4064906,497.84 C54.4064906,497.96 54.4864906,498 54.6064906,498 L54.6064906,498.4 C53.6464906,498.92 52.6064906,499.64 51.1664906,500.48 C51.0064906,500.64 50.8864906,501 50.6864906,501.16 C50.2464906,501.4 48.1664906,502.12 47.2864906,502.12 C45.2064906,502.12 43.4064906,499.92 43.2864906,498.16 C43.2864906,497.84 43.2464906,497.44 43.2464906,497.16 C43.2464906,496.56 43.3264906,495.76 43.5264906,494.76 C43.7264906,493.72 44.0064906,492.84 44.4064906,492.16 C44.5264906,492.12 44.4864906,491.84 44.5264906,491.64 C44.8864906,490.84 45.2864906,490.08 45.8064906,489.44 C46.1664906,489.08 46.5264906,488.8 46.7264906,488.36 C46.7264906,488.32 46.7264906,488.28 46.6864906,488.24 C46.6218749,488.304616 46.5804547,488.346036 46.555985,488.376751 L46.5921007,488.355499 Z M59.0463551,488.385971 C59.0426283,488.19625 58.9617471,488.12 58.7664906,488.12 L58.8464906,488.08 C58.8864906,488.08 58.9264906,488.04 59.0064906,487.96 C58.8064906,486.44 61.5264906,485.92 61.9664906,485.48 C62.1664906,485.92 62.4864906,485.64 62.9264906,485.84 C63.1264906,486 63.8064906,486.68 64.1664906,487.04 C64.1664906,487.08 64.2064906,487.12 64.2464906,487.2 C64.2864906,487.32 64.3664906,487.44 64.4064906,487.48 C64.5264906,487.52 64.6864906,487.48 64.8064906,487.6 C66.0464906,489.32 66.8864906,490.88 66.8864906,492.6 C66.8864906,495.52 64.5664906,498.48 61.6464906,501.04 C61.4864906,501.16 61.4464906,501.48 61.3264906,501.64 C60.4064906,502.2 59.6064906,502.48 58.8464906,502.48 C57.6064906,502.48 56.9664906,501.72 56.1664906,501.08 C55.8864906,500.88 55.7264906,499.88 55.2464906,499.88 C55.1264906,499.4 54.9264906,498.48 54.9264906,498.28 C54.9264906,496.52 56.4864906,493.2 56.8464906,492.64 C56.9664906,492.52 56.8864906,492.16 57.0464906,492 C57.3264906,491.52 57.7664906,491.04 57.9664906,490.56 C58.1264906,490.44 58.1264906,490.48 58.2864906,490.44 C58.4464906,490.4 58.3664906,490.16 58.5264906,489.96 C58.7264906,489.6 59.2464906,489.4 59.5264906,489.04 C59.6864906,488.84 59.6064906,488.52 59.7664906,488.24 C59.6464906,488.24 59.4064906,488.04 59.2464906,488.32 C59.2464906,488.2 59.2064906,488.12 59.1664906,488.08 C59.0935873,488.116452 59.053902,488.21934 59.0474349,488.358392 L59.0463551,488.385971 Z M62.4464906,489.52 L62.6464906,489.52 L62.6464906,488.92 L62.4464906,488.92 L62.4464906,489.52 Z M63.5664906,491.32 C63.5664906,491 63.2864906,490.28 63.0864906,489.84 C62.6464906,490.68 61.7264906,491.72 61.3664906,492.32 C60.4864906,493.92 58.8464906,497.16 58.8464906,497.48 L58.8464906,497.84 C59.3664906,497.48 60.2464906,496.64 60.4464906,496.64 C60.7264906,496.64 60.2464906,496.88 60.5664906,496.88 C60.9264906,496.88 62.5664906,494.28 62.6464906,494.08 C62.8864906,493.72 63.5664906,491.4 63.5664906,491.32 Z M91.5064906,479.635 C91.4664906,479.69 91.4064906,479.76 91.3264906,479.84 C91.3864906,479.84 91.4564906,479.79 91.5064906,479.725 L91.5064906,479.635 Z M91.5064906,479.635 C91.5464906,479.58 91.5664906,479.54 91.5664906,479.52 C91.5864906,479.58 91.5564906,479.66 91.5064906,479.725 L91.5064906,479.635 Z M97.1264906,488.16 L96.6064906,488.16 L96.6064906,488.4 L97.1264906,488.4 L97.1264906,488.16 Z M96.3906067,488.442754 C96.2214204,488.421397 96.0139555,488.410845 95.8064906,488.48 C95.9264906,488.64 96.0464906,488.6 96.2064906,488.6 L95.4064906,489 L95.1264906,489.28 C95.2464906,489.44 95.3664906,489.32 95.5264906,489.32 C95.4864906,489.36 95.4464906,489.4 95.4464906,489.44 L95.4464906,489.52 C95.3264906,489.64 94.8464906,489.88 94.4064906,489.92 C94.2864906,489.96 94.3664906,490.12 94.2464906,490.28 C93.4464906,490.28 92.6464906,490.32 91.8464906,490.6 C91.5264906,490.76 90.9664906,491.04 90.7664906,491.04 C90.4864906,491.04 90.7264906,490.96 90.5264906,490.96 C90.3264906,490.96 88.3264906,491.56 87.3264906,491.8 C86.4064906,492.4 85.2464906,492.12 83.9264906,492.76 C83.6064906,493.88 83.4064906,495.2 82.8064906,496.64 C82.6864906,496.92 82.4464906,497.2 82.2864906,497.52 C81.8064906,499.32 81.4064906,501.32 80.9664906,503.2 L80.9664906,503.16 C80.9664906,503.12 80.9264906,503.08 80.8864906,503 C80.6864906,503.2 80.6064906,503.52 80.5664906,503.64 C80.1264906,506.2 79.7664906,511.04 79.7664906,511.36 C79.7664906,511.68 80.0864906,512.44 80.2064906,512.64 C80.3264906,512.96 80.7264906,513.44 80.7264906,513.72 C80.7264906,513.88 80.5264906,514.12 80.4064906,514.44 L79.9264906,514 C79.7664906,514.16 79.6464906,514.16 79.4864906,514.32 C79.1264906,514 78.6464906,513.2 78.3264906,512.88 L78.4064906,512.8 C78.2864906,512.64 78.0864906,512.64 78.2464906,512.64 C78.2864906,512.44 78.2464906,512.2 78.0864906,512 C77.9264906,511.32 77.9264906,510.24 77.9664906,509.28 C78.0064906,509.16 77.9664906,509.12 78.0864906,509 C77.9264906,508.16 77.8064906,508.4 77.8064906,508.36 C77.8064906,508.08 77.9664906,507.16 78.0064906,506.56 C78.4464906,502.08 80.1664906,496.12 80.8064906,493.2 C80.4864906,493.04 79.7664906,493.28 79.2864906,493.28 C79.2464906,493.28 79.1664906,493.32 79.1264906,493.44 C77.2464906,493.8 75.2464906,494.32 73.3264906,494.84 C73.1664906,495 73.0464906,495.2 73.0064906,495.4 C72.6464906,496.52 72.2864906,498.2 72.0864906,499.32 C71.7664906,501.24 71.2864906,503.32 71.0064906,505.28 C70.8864906,505.16 70.9664906,505 70.8464906,504.88 C70.7264906,505.16 70.6864906,505.36 70.6864906,505.52 C70.5264906,506.04 70.4064906,507.08 70.4064906,507.36 L70.4064906,509.76 C71.2064906,510.12 70.7664906,511 70.8864906,511.6 C71.3264906,511.92 70.9664906,512.6 70.8464906,512.96 C70.5664906,512.96 70.4064906,513 70.3664906,513.12 C69.8464906,512.76 69.0864906,512.32 68.8864906,511.72 C68.5664906,510.72 68.4864906,508.56 68.4864906,508.36 L69.4064906,499.84 C69.4064906,499.68 70.3264906,496.08 70.3264906,495.84 L70.3264906,495.44 C70.0864906,495.4 69.8864906,495.44 69.7664906,495.56 C69.4864906,495.4 69.2464906,495.44 69.0464906,495.44 C68.7664906,495.44 69.1264906,495.24 68.8464906,495.24 C68.5264906,495.24 68.9264906,495.36 68.6064906,495.36 C68.4064906,495.36 67.6864906,494.84 67.3664906,494.52 C67.2464906,494.4 66.4864906,492.6 66.4864906,492.12 C66.4864906,492 66.9664906,492.04 66.7664906,491.56 C66.9264906,491.68 66.8864906,491.76 67.0864906,491.76 C67.3664906,491.76 67.7264906,491.84 67.9264906,491.84 C68.2064906,491.84 68.4064906,491.56 68.6864906,491.56 C68.9664906,491.56 68.8064906,491.64 69.0864906,491.64 C69.2864906,491.64 69.6864906,491.36 69.9664906,491.36 C70.2464906,491.36 70.0064906,491.44 70.2064906,491.44 C70.4064906,491.44 70.8464906,491.28 71.1664906,491.12 C71.8464906,488.2 72.4864906,485.24 73.2864906,482.36 C73.6064906,480.8 74.8864906,478.12 75.5264906,475.92 C75.9664906,474.68 76.9664906,472.12 78.4864906,471.04 C78.5264906,471.04 78.5664906,471.04 78.5664906,471 C78.5664906,470.92 78.5264906,470.88 78.4864906,470.84 C79.6864906,470.96 82.7264906,472.28 83.0464906,473.96 C83.0864906,474.24 83.4464906,474.48 83.4464906,474.8 C83.4464906,475.08 83.1264906,476.28 82.7664906,476.8 C82.5664906,477.16 82.0064906,477.6 81.7264906,477.6 C81.5264906,477.6 81.4464906,477.48 80.9264906,477.6 L80.9264906,477.4 C80.9264906,477.24 80.6464906,477.28 80.4864906,477.12 C80.1664906,476.8 80.0864906,476.2 79.9264906,475.84 C80.0464906,475.72 80.0864906,475.6 80.0464906,475.56 C80.1664906,475.56 80.2864906,475.6 80.4064906,475.68 C80.5664906,475.56 80.6464906,475.32 80.6464906,475 C80.6464906,474.8 80.5664906,474.6 80.5664906,474.4 L80.4864906,474.4 C80.4464906,474.4 80.4464906,474.32 80.4064906,474.32 C79.6864906,474.32 78.7664906,477.44 78.4464906,478.12 C78.1664906,479.12 77.2464906,480.8 76.7664906,482.36 C75.9664906,484.64 75.4864906,487.12 74.8464906,489.4 C74.8064906,489.52 74.6464906,489.44 74.5264906,489.56 C74.4464906,489.68 74.4864906,489.8 74.6864906,489.92 C74.5664906,490.12 74.4464906,490.36 74.3264906,490.36 L74.3264906,490.48 C74.6064906,490.8 74.8064906,490.76 75.0064906,490.76 C75.2064906,490.76 79.5664906,490.36 81.7264906,489.96 C82.2064906,489.04 82.4464906,487.8 82.9264906,486.68 C82.9664906,486.56 82.9664906,486.48 82.9264906,486.44 C82.8864906,486.48 82.8464906,486.48 82.8064906,486.48 L82.6864906,486.48 C84.4464906,481.64 85.8464906,476.44 88.7264906,471.96 C88.9264906,471.6 89.7264906,471.48 90.0864906,471.32 C90.2464906,471.28 90.5664906,471.48 90.7664906,471.36 C90.8864906,471.32 90.8864906,471.24 91.1664906,471.24 C92.0464906,471.24 94.0064906,472.76 94.5664906,473.64 C94.8864906,474.24 95.1264906,475.36 95.1264906,475.56 C95.1264906,475.8 94.5664906,477.4 94.3264906,478.2 C94.1264906,478.64 93.8064906,479.4 93.4464906,479.92 C93.2712646,480.235407 92.9732219,480.458701 92.7675693,480.724387 C92.8298912,480.619839 92.8633734,480.496883 92.7664906,480.4 C92.5664906,480.4 92.2864906,480.8 92.0864906,480.92 C91.9264906,480.8 91.8064906,480.6 91.7664906,480.6 C91.7664906,480.44 91.6064906,480.2 91.6064906,479.92 C91.6064906,479.72 92.4864906,476 92.4864906,475.8 C92.4864906,475.56 92.4064906,475.16 92.2864906,474.6 C92.1664906,474.04 91.9664906,473.68 91.7664906,473.56 C91.2864906,473.88 90.6864906,474.96 90.5264906,475.44 C90.4064906,475.48 90.3264906,475.64 90.1664906,475.8 C89.3264906,477.56 88.0464906,480.64 87.1664906,482.72 C86.9664906,483.32 87.0064906,483.88 86.8064906,484.52 C86.2864906,486 85.6864906,487.48 85.2064906,488.92 C85.9264906,489.04 87.8064906,488.92 88.0464906,488.92 C88.2464906,488.92 88.4064906,488.84 88.5264906,488.68 C89.1264906,488.72 89.8064906,488.72 90.5264906,488.68 C91.1264906,488.64 91.9664906,488.48 92.7664906,488.6 C92.8864906,488.48 92.8464906,488.44 93.1264906,488.44 C93.3264906,488.44 93.4064906,488.64 93.6064906,488.64 C94.2464906,488.64 93.7664906,488.4 95.5664906,488.4 C95.784565,488.427259 96.0769464,488.398788 96.342357,488.415865 L96.3906067,488.442754 Z M92.7675693,480.724387 C92.7384935,480.761951 92.7112646,480.800362 92.6864906,480.84 C92.7096078,480.809177 92.7312405,480.778354 92.7502449,480.747817 L92.7675693,480.724387 Z M96.342357,488.415865 C96.4664069,488.423846 96.584565,488.441778 96.6864906,488.48 C96.6186972,488.48 96.5149981,488.458457 96.3906067,488.442754 L96.342357,488.415865 Z M70.0464906,507.2 L70.1664906,506.52 L70.0464906,506.52 L69.8864906,507.2 L70.0464906,507.2 Z M69.8864906,508.44 L70.0464906,508.44 L70.0464906,508.2 L69.8864906,508.2 L69.8864906,508.44 Z M113.766491,496.88 L113.766491,497.12 C113.166491,497.88 112.806491,498.56 112.166491,499.16 C112.166491,499.28 112.206491,499.32 112.326491,499.32 C112.166491,499.44 111.846491,499.76 111.686491,500.04 C111.246491,500.48 110.726491,500.68 110.206491,501.12 C110.206491,501.2 110.286491,501.32 110.406491,501.48 C110.246491,501.6 110.086491,501.6 109.966491,501.76 C109.686491,501.88 109.526491,502.12 109.406491,502.32 C109.046491,502.36 108.646491,502.52 108.326491,502.68 L108.046491,502.92 C107.686491,502.88 106.846491,502.88 106.486491,502.72 C106.286491,502.68 105.886491,502.44 105.526491,502.32 C105.326491,502.16 105.126491,502.36 104.966491,502.2 C103.846491,501.88 102.326491,500.48 102.166491,500.48 C101.966491,500.48 101.246491,501.24 100.646491,501.52 C99.5264906,502.04 98.3664906,502.8 97.2864906,502.92 C96.8064906,502.96 95.6864906,503.2 95.4864906,503.2 C95.2864906,503.2 95.4064906,503.12 95.2464906,503.12 C93.6864906,503.12 92.0064906,501.56 91.6864906,500.64 C91.5264906,500.32 91.4864906,499.88 91.2064906,499.52 C91.0864906,499.32 90.8864906,499.2 90.8464906,499.08 C90.6864906,498.6 90.6864906,497.72 90.6864906,497.52 C90.6864906,497.32 90.7664906,496.44 90.8864906,495.84 L90.8864906,495.88 C90.8864906,495.96 90.8864906,496 90.9264906,496 C91.0464906,495.72 90.9664906,495.52 91.0864906,495.36 C91.0864906,495.28 91.0864906,495.2 91.0464906,495.16 C91.0464906,495 91.1664906,494.96 91.2064906,494.84 C91.2464906,494.56 91.1664906,494.36 91.2864906,494.08 C91.6064906,492.76 92.5664906,490.4 93.6064906,488.92 C93.7264906,488.88 93.7264906,488.48 93.9264906,488.28 C93.9664906,488.08 94.2864906,487.8 94.3264906,487.48 C94.4464906,487.44 94.5264906,487.44 94.5664906,487.4 C94.6464906,487.04 94.8064906,486.76 95.0064906,486.6 C95.0064906,486.16 95.4864906,485.72 95.9664906,485.2 C96.2464906,484.88 96.8864906,485.04 96.8864906,484.6 C97.0064906,484.72 97.0064906,484.92 97.2064906,484.92 C97.4064906,484.92 97.2064906,484.84 97.4864906,484.84 C97.6464906,484.84 97.8464906,485 98.0464906,485 C98.2464906,485 98.1264906,485.2 98.1664906,485.2 L98.3664906,485 C98.4864906,485.16 98.6064906,485.52 98.6464906,485.64 C98.7664906,485.84 98.9664906,485.96 98.9664906,486.28 C99.1264906,486.88 99.2064906,488.04 99.2064906,488.2 C99.2064906,491.2 97.6864906,493.08 95.7264906,496.04 L95.2864906,496.6 C94.9264906,497.2 94.7264906,497.88 93.6464906,498.68 C93.9264906,499.36 94.2864906,499.8 94.8064906,499.96 C95.2464906,500.16 95.4864906,500.28 95.6864906,500.24 C96.7664906,500.28 98.0864906,499.48 99.2064906,499 C99.4864906,498.84 99.9264906,498.52 100.406491,498.24 C100.566491,498.12 100.926491,497.88 100.966491,497.52 C101.126491,496.92 101.086491,496.4 101.086491,495.56 C101.086491,493.8 101.686491,492.68 101.966491,491.44 C101.966491,491.4 102.166491,491.08 102.286491,490.88 C102.646491,489.96 103.126491,488.88 104.406491,487.72 C104.766491,487.4 105.006491,486.76 105.286491,486.4 C105.566491,486.12 106.286491,486.16 106.246491,485.72 C106.526491,485.92 106.886491,486.2 107.086491,486.2 C107.286491,486.2 107.126491,486.12 107.286491,486.12 C108.126491,486.12 108.686491,487.28 108.966491,487.68 C109.086491,487.8 109.246491,488.24 109.126491,488.52 L109.166491,488.52 C109.206491,488.52 109.246491,488.56 109.246491,488.64 C109.246491,489.4 108.686491,491 108.566491,491.4 C108.366491,491.92 107.846491,492.68 107.486491,493.28 C107.006491,494.12 106.486491,495.4 105.846491,496.24 C105.566491,496.68 104.686491,497.8 104.686491,497.88 C104.686491,498.04 104.726491,498.24 104.886491,498.36 C105.206491,499.04 106.446491,500 107.246491,500 L107.926491,500 C108.686491,500 111.006491,498.96 111.046491,498.92 C111.246491,498.92 111.006491,499 111.206491,499 C111.766491,498.88 113.326491,497.32 113.766491,496.88 Z M96.3264906,489.32 C96.2064906,489.52 95.8064906,490.28 95.1664906,491.6 C94.5664906,492.92 94.2464906,493.6 94.2464906,493.68 C94.2464906,493.88 94.4464906,493.96 94.4864906,493.96 C94.6064906,493.64 95.0064906,492.88 95.6064906,491.68 C96.2464906,490.44 96.4864906,489.68 96.3264906,489.32 Z M106.246491,489.28 L105.526491,490.44 C105.406491,490.68 105.126491,491.32 104.766491,492.32 C104.406491,493.32 104.166491,493.92 104.046491,494.2 C103.926491,494.44 103.886491,494.8 103.886491,495.32 C104.246491,494.72 104.726491,493.52 105.166491,492.6 C105.606491,491.68 106.046491,490.76 106.246491,489.28 Z" id="Purecofe" fill="#6D1F37" fill-rule="nonzero"></path>
                            <path d="M375.7,25.64 C375.54,25.76 375.26,25.88 374.94,26.2 C374.94,26.36 375.02,26.44 375.14,26.44 C374.54,26.64 373.62,27.28 373.42,27.28 C373.14,27.28 373.38,27.16 373.1,27.16 C372.94,27.16 371.46,27.64 370.82,27.76 C368.06,28.04 365.22,29 362.78,29 C362.58,29 361.02,28.8 360.14,28.48 C359.66,28.2 358.78,27.28 358.34,26.6 C358.02,26.08 357.94,25.36 357.82,24.76 C357.7,24.64 357.66,24.44 357.66,24.16 C357.66,22.24 359.42,18.44 360.06,16.68 C360.42,15.52 360.82,14.04 361.3,12.76 C361.34,12.64 361.5,12.4 361.54,12.2 C362.06,10.32 363.06,7.72 363.26,5.48 C363.54,5.04 363.62,4.48 363.66,4 C363.78,3.32 364.02,2.48 364.14,1.72 C364.18,1.52 364.18,1.04 364.18,0.72 L364.78,0.72 C364.98,0.72 365.14,0.72 365.26,0.76 C366.98,1.52 367.1,2.76 367.1,3.72 C367.1,3.92 366.98,4.4 366.98,4.68 C366.82,6 366.78,6.64 366.5,7.48 C365.46,11.16 365.1,13.68 363.82,17.16 C362.98,19.4 361.98,22.28 361.18,24.96 L361.18,25.2 L369.42,24.44 L372.94,24.44 C373.1,24.44 374.34,24.2 374.94,24.16 L374.94,24.2 C375.14,24.4 375.3,24.8 375.58,24.96 C375.62,25.16 375.58,25.44 375.7,25.64 Z M389.457803,27.5603162 C388.617631,27.6821596 387.259686,28.92 386.9,28.92 L385.22,28.92 C383.58,28.92 382.1,25.6 382.1,25.32 C382.1,24.84 382.1,24.04 381.98,23.28 C381.54,24.04 381.1,24.6 380.62,25.4 C380.18,26.04 378.14,29.04 376.94,29.04 C376.74,29.04 376.3,29.2 376.1,29.2 C374.78,29.2 374.34,28.36 373.58,27.72 C373.54,27.4 373.26,26.72 373.26,26.52 C373.26,24.08 376.5,18.6 377.86,16.8 C378.14,16.44 378.94,15.64 379.46,15.28 C379.82,15.12 380.26,14.6 380.62,14.28 C380.74,14.16 380.58,14.04 380.7,13.92 C381.06,13.76 381.34,13.84 381.54,13.68 C381.74,13.56 381.9,13.36 382.02,13.12 L382.34,13.12 C382.62,13.36 382.82,13.48 383.02,13.48 C383.22,13.48 383.46,13.56 383.66,13.56 C384.14,13.04 383.82,12.76 384.34,12.76 C384.62,12.76 384.42,13.08 384.7,13.08 C385.02,13.08 384.74,12.96 384.94,12.96 C385.42,12.96 386.38,13.4 386.7,13.76 C386.82,13.96 387.02,14.52 386.86,14.68 C386.86,14.84 386.98,14.52 386.98,14.84 C386.98,15.12 386.14,17.76 385.82,19.28 C385.38,21.4 384.94,25.4 384.94,25.64 C384.94,25.84 385.06,26.52 385.06,26.88 C385.5,27.04 385.94,26.84 386.26,26.84 C386.86,26.84 391.3,24.76 391.54,24.64 C391.42,24.96 390.94,25.12 390.82,25.4 C390.62,25.6 390.54,25.76 390.66,25.96 C390.34,26.32 389.74,26.84 389.14,27.28 C389.14,27.318503 389.32531,27.5423165 389.446206,27.5590147 L389.457803,27.5603162 Z M381.9,17.68 L381.66,17.92 C381.5,17.76 381.66,17.6 381.66,17.48 C380.34,19.08 379.1,21.24 378.14,23.12 L378.38,23.4 C379.66,21.84 380.74,19.6 381.9,17.68 Z M404.26,15.76 C404.3,15.96 404.22,17.28 403.9,17.96 C404.06,18.4 403.9,18.88 403.86,19.24 C403.74,19.84 403.38,20.48 403.26,21.16 C403.26,21.32 403.34,21.6 403.22,21.8 C402.86,23.6 402.3,25.6 401.94,27.36 L401.66,27.64 C401.14,30 400.54,32.28 400.18,34.64 C400.06,34.92 400.22,35.56 400.18,35.92 C400.02,36.2 399.9,36.48 399.86,36.68 C399.86,37.88 399.5,39.84 399.58,40.12 L399.62,40.72 C399.78,40.84 399.62,40.92 399.94,40.92 C400.58,40.8 401.06,40.32 401.66,39.96 L401.82,41.32 C400.94,41.64 401.54,42.56 401.14,42.68 C400.86,42.68 401.06,42.6 400.86,42.6 C400.54,42.64 400.26,43 399.98,43.04 C399.78,43.04 399.1,42.72 398.82,42.6 C398.54,42.48 398.26,41.96 398.1,41.68 C397.66,41.16 396.9,40 396.78,39.04 C396.3,33.68 399.62,20.48 400.1,18.68 L400.06,18.64 C400.06,18.6 400.06,18.56 400.02,18.52 C397.82,21.12 395.94,23.48 393.54,26.04 C393.34,26.24 392.98,26.52 392.46,26.84 C391.94,27.16 391.54,27.32 391.26,27.36 C389.58,27.56 388.86,25.6 388.74,24.4 C388.54,22.48 391.38,16.16 391.78,15.4 C392.26,14.72 392.78,13.72 393.3,12.92 C394.22,12.6 395.42,13.56 395.42,14.24 C395.46,14.52 395.46,14.68 395.46,14.72 C395.14,15.16 394.78,16.04 394.46,16.72 C393.86,18 393.18,19.84 392.42,21.56 C392.26,21.76 392.14,21.88 392.02,22.16 C391.9,22.44 391.94,22.68 391.98,23.12 L400.82,12.56 C403.42,13.48 404.14,13.88 404.26,15.76 Z M411.812506,12.0691955 C411.759597,12.0523935 411.74,12.015995 411.74,11.96 C411.74,11.92 411.78,11.92 411.82,11.88 C411.838449,11.9476472 411.834207,12.010567 411.812506,12.0691955 L411.812506,12.0691955 Z M411.812506,12.0691955 C411.835188,12.0763985 411.863993,12.08 411.9,12.08 C412.22,12.08 411.82,11.96 412.14,11.96 C412.34,11.96 412.9,12.32 413.26,12.44 C413.38,12.8 413.26,13.2 413.54,13.2 C413.86,13.2 413.54,13.08 413.82,13.08 C414.02,13.08 414.14,13.28 414.3,13.44 C414.3,15.12 415.1,14.24 415.1,15.28 C415.1,15.52 414.66,17.52 414.34,18.52 C414.02,19.16 413.18,20.36 412.5,21.2 C411.34,22.6 409.06,24.88 409.06,25.24 C409.06,25.56 409.78,26.04 410.26,26.24 C410.54,26.4 411.14,26.36 411.42,26.36 C411.86,26.36 412.18,25.96 412.82,26.24 C413.9,25.92 414.9,25.56 415.7,25.36 C415.82,25.48 415.98,25.52 416.1,25.52 C415.66,25.68 415.46,25.96 415.1,26.08 C415.1,26.28 415.26,26.4 415.54,26.48 C415.38,26.68 415.26,27.08 415.1,27.44 C414.42,27.28 414.06,28.16 414.06,28.8 C413.58,28.96 413.1,29.04 412.5,29.04 C412.303254,29.1580475 412.493598,29.1986772 412.65216,29.1999681 C412.219803,29.2401184 411.619928,29.6000066 411.18,29.64 L411.18,29.76 C411.18,29.8 411.14,29.84 411.02,29.84 C410.54,29.84 409.38,29.04 409.26,29.84 L408.82,29.24 C407.66,28.96 407.34,28.68 406.34,27.6 C405.62,26.96 405.98,27.96 405.22,24.76 C405.02,23.16 405.38,22.32 405.54,21.68 C405.7,20.92 406.3,19.36 406.9,18.12 C407.22,17.48 407.62,16.56 408.22,15.6 C408.5,15.24 408.98,14.64 409.26,14.12 C409.86,13.6 409.94,13.2 410.74,12.72 C411.044652,12.584599 411.693056,12.391906 411.812506,12.0691955 L411.812506,12.0691955 Z M412.02,15.96 C410.94,16.56 410.58,17.36 409.58,19.12 C409.1,20 408.82,20.52 408.78,20.68 L408.54,21.76 C409.14,21 409.74,20.28 410.26,19.52 C410.86,18.72 411.82,17.56 412.02,15.96 Z M428.38,16.72 C428.22,17.08 427.62,17.4 427.78,17.76 C427.34,17.76 426.86,17.6 426.1,17.76 C426.06,17.48 426.02,17.12 425.9,16.6 C424.3,17.2 422.98,19.08 421.98,20.64 C421.98,20.52 421.94,20.44 421.82,20.44 C421.7,20.68 421.66,20.84 421.74,20.92 C421.7,20.92 421.66,20.92 421.62,20.96 C421.54,21.08 421.5,21.12 421.5,21.12 C421.46,21.24 421.62,21.28 421.62,21.44 C421.5,21.44 421.5,21.52 421.34,21.52 L421.3,21.52 C421.22,21.52 421.18,21.56 421.18,21.6 C421.06,21.76 421.34,21.84 421.34,21.88 C421.1,22.32 420.78,22.84 420.38,23.36 C420.38,23.52 420.5,23.6 420.46,23.64 C420.3,24 420.06,24.2 419.78,24.48 C419.58,24.76 419.62,25.16 419.46,25.48 C418.94,26.56 418.42,27.88 418.78,29 C418.54,29.16 418.3,29.24 418.02,29.24 C417.86,29.24 417.26,28.96 416.9,28.8 C416.74,28.64 416.9,28.12 416.46,28.24 C416.18,27.4 415.78,26.8 415.78,26.16 C415.78,25.92 416.42,23.72 416.5,22.64 C416.86,21.16 417.14,19.68 417.26,18.12 C417.38,17.2 417.54,16 417.66,14.84 C417.78,14.08 417.82,13.2 418.02,12.44 L418.5,12.44 C418.94,12.44 419.74,13.04 419.94,13.56 C420.14,14.16 420.3,14.72 420.34,15.32 C420.38,15.76 420.22,16.12 420.22,16.72 C420.62,15.72 422.82,14.04 424.1,14.04 C425.26,14.04 427.02,14.72 427.94,15.84 C428.1,16.04 428.18,16.4 428.38,16.72 Z M337.759864,59.3859715 C337.756138,59.1962502 337.675257,59.12 337.48,59.12 L337.56,59.08 C337.6,59.08 337.64,59.04 337.72,58.96 C337.52,57.44 340.24,56.92 340.68,56.48 C340.88,56.92 341.2,56.64 341.64,56.84 C341.84,57 342.52,57.68 342.88,58.04 C342.88,58.08 342.92,58.12 342.96,58.2 C343,58.32 343.08,58.44 343.12,58.48 C343.24,58.52 343.4,58.48 343.52,58.6 C344.76,60.32 345.6,61.88 345.6,63.6 C345.6,66.52 343.28,69.48 340.36,72.04 C340.2,72.16 340.16,72.48 340.04,72.64 C339.12,73.2 338.32,73.48 337.56,73.48 C336.32,73.48 335.68,72.72 334.88,72.08 C334.6,71.88 334.44,70.88 333.96,70.88 C333.84,70.4 333.64,69.48 333.64,69.28 C333.64,67.52 335.2,64.2 335.56,63.64 C335.68,63.52 335.6,63.16 335.76,63 C336.04,62.52 336.48,62.04 336.68,61.56 C336.84,61.44 336.84,61.48 337,61.44 C337.16,61.4 337.08,61.16 337.24,60.96 C337.44,60.6 337.96,60.4 338.24,60.04 C338.4,59.84 338.32,59.52 338.48,59.24 C338.36,59.24 338.12,59.04 337.96,59.32 C337.96,59.2 337.92,59.12 337.88,59.08 C337.807097,59.1164517 337.767411,59.2193396 337.760944,59.3583924 L337.759864,59.3859715 Z M341.16,60.52 L341.36,60.52 L341.36,59.92 L341.16,59.92 L341.16,60.52 Z M342.28,62.32 C342.28,62 342,61.28 341.8,60.84 C341.36,61.68 340.44,62.72 340.08,63.32 C339.2,64.92 337.56,68.16 337.56,68.48 L337.56,68.84 C338.08,68.48 338.96,67.64 339.16,67.64 C339.44,67.64 338.96,67.88 339.28,67.88 C339.64,67.88 341.28,65.28 341.36,65.08 C341.6,64.72 342.28,62.4 342.28,62.32 Z M369.44,60.76 C369.08,60.76 368.72,61 368.12,61.36 L367.92,61.6 C368.08,61.72 368.24,61.8 368.24,62 C367.88,62.12 367.4,62.36 367.04,62.4 C366.96,63.08 365.76,62.8 365.16,62.92 C364.52,63.08 363.4,63.64 363.12,63.64 C362.8,63.64 363.08,63.52 362.8,63.52 C362.52,63.52 360.84,64.24 359.8,64.44 C357.6,65.08 355.04,65.52 352.76,66.16 C352.6,66.32 352.36,66.64 352.36,66.76 C351.6,69.6 350.76,74.36 350.24,77.52 C350.2,77.52 350.16,77.4 350.04,77.12 C349.92,77.28 349.84,77.52 349.76,77.84 C349.72,78.44 349.56,79.56 349.56,79.84 L349.56,82.48 C350.4,82.92 349.96,83.8 350.04,84.48 L350.24,84.28 C350.12,84.8 350.44,84.64 350.44,84.8 C350.44,85.12 350.2,85.6 350.04,85.96 L349.92,85.96 C349.88,85.96 349.84,85.92 349.76,85.84 C349.64,85.84 349.6,86 349.6,86.16 C349,85.8 348.28,85.2 347.84,84.6 C347.64,83.56 347.44,81.48 347.44,81.2 L348.16,73.36 C348.16,73.04 349.24,69.04 349.44,66.88 C349.24,66.8 349.04,66.84 348.84,67.04 C348.72,66.84 348.4,66.72 348.08,66.72 C347.8,66.72 348.04,66.8 348.04,66.92 C347.92,66.8 347.76,66.72 347.6,66.72 C347.32,66.72 347.12,66.6 346.92,66.44 L346.2,65.8 C346.08,65.68 345.28,63.72 345.28,63.2 C345.28,63.04 345.8,63.16 345.52,62.56 C346.56,63.28 346.48,62.76 347.36,62.76 C347.64,62.76 347.4,62.56 347.6,62.56 C347.96,62.56 348.44,62.64 349.08,62.44 C349.36,62.32 349.84,62.24 350.44,62.24 C350.88,60.2 351.28,57.92 351.76,56.04 C352.08,54.92 352.32,53.6 352.68,52.52 C353.76,49.16 355,44.72 356.92,41.64 C357.12,41.2 358.32,39.92 358.68,39.92 C358.96,39.92 359.08,40.04 359.28,40.2 C359.56,40.36 360,40.32 360.36,40.36 C360.72,40.52 361.2,40.76 361.4,40.92 C361.92,41.36 362.64,41.96 363,42.4 C363.28,43 363.8,43.96 363.8,44.24 C363.8,44.56 363.32,45.88 363.12,46.56 C362.76,46.56 362.4,47 362.08,47.44 C361.92,47.44 361.76,47.24 361.72,47.24 L361.4,47.44 C361.24,47.28 361.08,47.32 360.96,47.32 L361.16,47.12 C360.88,46.96 360.56,46.84 360.4,46.68 C360.2,46.32 359.96,45.68 359.96,45.4 C359.96,45.08 360.12,45.04 360.24,44.92 C360.4,45.04 360.32,45.08 360.48,45.24 C360.64,44.96 360.72,44.6 360.72,44.24 C360.72,44.04 360.76,43.76 360.48,43.76 C359.88,43.76 358.48,47.32 358.36,47.92 C358.24,48.28 357.96,48.96 357.52,49.88 C357.12,50.8 356.8,51.68 356.52,52.52 C356.16,53.8 355.56,55.8 355.24,57.44 C355.04,58.24 354.76,59.2 354.4,60.2 C354.28,60.32 354.2,60.24 354.04,60.4 C354.04,60.52 354.08,60.64 354.2,60.76 C354.24,60.92 354.08,61.16 353.92,61.36 L353.92,61.64 C354.72,61.92 356,61.56 356.84,61.44 C357.84,61.28 359.04,61.36 360.16,61.2 C360.4,61.2 360.6,61.12 360.72,61 C361.88,61.04 363.68,60.92 365.12,60.92 C365.24,60.88 365.44,60.92 365.48,60.76 C366.08,60.92 366.8,60.76 367.44,60.72 L367.48,60.68 C367.56,60.6 367.64,60.56 367.72,60.56 C368,60.56 367.56,60.76 367.88,60.76 C368.08,60.76 368.72,60.56 369,60.56 C369.28,60.56 369.28,60.76 369.44,60.76 Z M350,79.12 L350,79.8 L349.84,79.8 L349.84,79.12 L350,79.12 Z M368.6,60.88 L368.6,60.72 L369,60.72 L369,60.88 L368.6,60.88 Z M349.08,79.56 L349.28,79.56 L349.28,78.92 L349.08,78.92 L349.08,79.56 Z M378.84,66.4 L378.96,66.4 L378.12,67.48 L378,67.36 L378.84,66.4 Z M377.8,67.6 L377.88,67.68 L377.44,68.12 L377.4,68.04 L377.8,67.6 Z M383.92,60.64 C383.92,60.8 383.72,62.44 383.52,63.4 C382.12,70.12 381.76,72.76 380.68,76.76 C380.36,78.16 380.08,80.24 379.48,81.84 C379.04,83.24 378.16,85.12 377.72,86.68 C377.68,86.96 377.36,87.12 377.24,87.28 C376.92,87.76 376.72,88.88 376.28,89.36 C375.92,89.88 375.24,90.6 374.76,91.08 C374.56,91.4 373.84,91.8 373.64,91.8 C373.36,91.8 373.12,91.92 372.84,91.92 C372.68,91.92 371.92,91.88 371.44,91.76 C371.32,91.72 371.4,91.68 371.28,91.52 C370.72,91.32 370.24,91.08 369.84,90.76 C369.52,90.56 368.96,89.96 368.48,89.52 C368.36,89.4 368.36,89.08 368.16,88.8 C367.96,88.44 366.48,86.32 366.48,85.64 L366.32,82.28 C366.32,82.16 366.68,81.08 366.8,80.56 L367,80.84 C367.04,80.68 367.32,80.32 367.04,80.12 C367.52,79.6 367.96,78.56 368.48,77.88 C368.64,77.56 369.12,77.24 369.44,76.92 C369.12,77.24 369.08,77.64 368.76,78.16 L368.76,78.2 L368.92,78.2 C369.04,78.2 369.12,78.08 369.24,77.8 C369.28,77.92 369.44,77.8 369.44,78.08 C369.44,78.32 368.56,79.6 368.44,80.2 L368.44,80.24 C368.44,80.28 368.44,80.32 368.48,80.32 C368.64,80.2 368.76,79.92 368.76,79.8 C368.76,80.16 368.48,80.6 368.44,80.92 L368.2,80.76 L368.2,80.84 C368.16,80.96 368.24,81.08 368.44,81.16 C368.4,81.28 368.28,81.36 368.24,81.48 C368.24,82.12 368,83.24 368.04,83.52 C368.04,83.72 368.24,84.72 368.36,85.32 C368.36,85.6 370.08,89.32 370.72,89.32 C370.88,89.28 370.92,89.36 371.2,89.36 C371.36,89.36 371.88,89.32 372.2,89.12 C372.52,89.08 372.88,88.16 373.24,87.8 C374.56,86.32 374.8,85.44 375.24,84.32 C375.36,84.04 375.4,83.76 375.56,83.48 C377.8,78.28 378.8,70.28 379.44,66.28 C379.32,66.16 379.6,65.8 379.64,65.6 L379.64,65.52 C379.44,65.64 379.28,65.92 379,66.24 C379.12,66.08 379.2,65.84 379.16,65.64 C378.52,66.56 377.64,67.48 377.32,68 C377.2,68.12 377.24,68.48 377.24,68.6 C376.56,69.6 375.52,70.76 374.6,71.6 C374.32,72.04 373.6,72.68 373.16,73.16 C373.16,73.28 373.24,73.36 373.24,73.48 C372.92,73.64 372.44,73.76 372.28,73.8 C372.08,73.8 371.16,73.56 370.64,73.28 C370.52,73.12 370.36,72.88 370.16,72.68 C370.16,72.6 370.16,72.52 370.12,72.48 C369.52,71.8 369.68,71.52 369.56,70.84 C369.56,68.84 371.16,65.72 372.16,64.28 C375.16,60 376.56,56.56 380.04,56.36 C380.24,56.36 380.68,57.16 380.96,57.44 C380.84,57.6 380.92,57.96 381.08,58.12 C381.76,58.56 382.44,58.76 383.04,59.12 C383.04,59.28 383.88,59.96 383.92,60.64 Z M379.675,65.405 C379.79,65.31 379.86,65.18 379.84,64.96 C379.74,65.04 379.63,65.18 379.525,65.315 L379.675,65.405 Z M379.24,61.2 L379.24,60.88 C379.12,60.88 379.16,61.04 379,61.16 C378.88,61.04 378.8,61 378.68,61.04 L378.64,60.56 L378.48,60.76 C378.36,60.56 378.32,60.32 378.44,60.08 C378,60.52 377.28,61.56 376.96,62.2 C376.64,62.84 376.04,63.48 375.72,63.92 C374.92,65.48 374,67.6 373.32,69.08 C374.4,67.96 375.64,66.52 376.4,65.6 C376.56,65.44 379.24,61.92 379.24,61.2 Z M389.119864,59.3859715 C389.116138,59.1962502 389.035257,59.12 388.84,59.12 L388.92,59.08 C388.96,59.08 389,59.04 389.08,58.96 C388.88,57.44 391.6,56.92 392.04,56.48 C392.24,56.92 392.56,56.64 393,56.84 C393.2,57 393.88,57.68 394.24,58.04 C394.24,58.08 394.28,58.12 394.32,58.2 C394.36,58.32 394.44,58.44 394.48,58.48 C394.6,58.52 394.76,58.48 394.88,58.6 C396.12,60.32 396.96,61.88 396.96,63.6 C396.96,66.52 394.64,69.48 391.72,72.04 C391.56,72.16 391.52,72.48 391.4,72.64 C390.48,73.2 389.68,73.48 388.92,73.48 C387.68,73.48 387.04,72.72 386.24,72.08 C385.96,71.88 385.8,70.88 385.32,70.88 C385.2,70.4 385,69.48 385,69.28 C385,67.52 386.56,64.2 386.92,63.64 C387.04,63.52 386.96,63.16 387.12,63 C387.4,62.52 387.84,62.04 388.04,61.56 C388.2,61.44 388.2,61.48 388.36,61.44 C388.52,61.4 388.44,61.16 388.6,60.96 C388.8,60.6 389.32,60.4 389.6,60.04 C389.76,59.84 389.68,59.52 389.84,59.24 C389.72,59.24 389.48,59.04 389.32,59.32 C389.32,59.2 389.28,59.12 389.24,59.08 C389.167097,59.1164517 389.127411,59.2193396 389.120944,59.3583924 L389.119864,59.3859715 Z M392.52,60.52 L392.72,60.52 L392.72,59.92 L392.52,59.92 L392.52,60.52 Z M393.64,62.32 C393.64,62 393.36,61.28 393.16,60.84 C392.72,61.68 391.8,62.72 391.44,63.32 C390.56,64.92 388.92,68.16 388.92,68.48 L388.92,68.84 C389.44,68.48 390.32,67.64 390.52,67.64 C390.8,67.64 390.32,67.88 390.64,67.88 C391,67.88 392.64,65.28 392.72,65.08 C392.96,64.72 393.64,62.4 393.64,62.32 Z M406.717404,69.4813266 C406.64001,69.5217545 406.640875,69.6013123 406.72,69.72 C406.76,69.6 406.72,69.52 406.92,69.52 C407.2,69.52 407.96,69.16 408.32,68.96 C408.04,69.28 407.96,69.68 407.6,69.8 C407.6,69.84 407.6,69.88 407.64,69.96 L408.084836,69.7820658 C407.954299,69.8594606 407.966021,69.9660206 408.12,70.12 C407.68,70.32 407.2,71.24 407.8,71.28 C407.48,71.44 407.36,71.96 407.24,72.12 C406.8,72.44 406.12,72.76 405.68,73.12 C405.4,73.32 405.12,73.76 404.68,73.88 C404.32,74.04 403.8,74.16 403.36,74.28 L403.12,74.04 C402.64,74.4 402.52,74.2 402.24,74.2 C401.92,74.2 402.2,74.36 401.92,74.36 C401.76,74.36 400.76,73.92 400.4,73.8 C397.76,72.8 396.68,69.12 396.68,67.16 C396.68,63.84 397.56,61.08 398.32,58.16 C398.36,57.8 398.72,57.52 398.76,57.24 C398.92,56.32 399.2,55 399.52,53.88 C399.84,52.76 400.52,50.92 401.2,48.96 C401.36,48.6 401.76,48.24 401.88,47.8 C402.36,46.32 403.04,45.8 403,44.84 C403.12,44.84 403.32,44.76 403.52,44.76 C403.8,44.76 404.12,45.16 404.48,45.2 C404.52,45.2 404.56,45.2 404.56,45.16 L404.88,45.16 C405.04,45.52 405.32,46.12 405.44,46.48 C405.6,46.76 405.44,47.28 405.6,47.56 L401.68,60.28 C401.32,61.2 400.96,62.16 400.8,63.08 C400.48,64.4 399.92,67.6 399.92,68.8 C399.92,69 399.96,70 400,70.48 C400.04,70.68 400.28,70.96 400.44,71.12 C400.8,71.32 401.12,71.44 401.4,71.44 C401.72,71.44 401.76,71.24 401.92,71.24 C402.2,71.24 402.24,71.36 402.56,71.36 C402.72,71.36 403,71.2 403.96,70.88 C404.16,70.72 404.36,70.52 404.52,70.52 C404.84,70.52 404.6,70.64 404.88,70.64 C405.079812,70.64 405.79865,69.9612746 406.717413,69.4813507 L406.717404,69.4813266 Z M423.6,48.24 C423.6,48.44 423.48,48.96 423.36,49.24 C423.2,49.44 422.8,49.96 422.8,50.16 C422.76,51.64 421.84,52.88 420.88,55.6 C420.76,55.76 420.92,56.2 420.8,56.48 L420.28,58.4 C420.16,58.84 419.92,59.44 419.8,59.8 C419.6,60.64 419.4,61.44 419.16,62.28 C418.96,63.08 418.76,64.44 418.56,66.32 C418.68,66.52 418.84,66.76 418.72,66.92 C418.72,67.84 418.32,69.48 418.32,69.76 L418.4,70.44 C418.76,70.6 419.52,70.76 419.84,70.72 C421.44,70.52 424.96,68.6 425.32,68.24 C425.2,68.68 425.16,69.2 425.12,69.56 C425,70 424.4,70.56 424.08,70.84 C423.92,70.96 423.84,71.2 423.72,71.56 C423.24,71.76 422.52,72 422.4,72.36 C421.72,72.64 420.4,73 420.2,73 L419.2,73.12 C418.92,73.16 419.24,73 418.96,73.04 C418.6,73.04 417.44,72.4 416.88,72.08 C416.68,71.76 416.16,71.16 415.72,70.48 C415.52,70.12 415.32,69.48 415.12,68.56 C414.96,67.64 414.84,67.04 414.8,66.68 C414.44,67.16 414,67.88 413.64,68.72 C413.16,69.56 412.52,70.64 411.84,71.4 C411.56,71.68 411.08,72.16 410.96,72.48 C411.08,72.64 411.2,72.68 411.32,72.56 C409.96,73.52 410.04,74.24 409.12,74.32 C408.92,74.32 408.24,74.2 407.8,74.2 C406.4,72.96 405.92,72.24 405.8,71.08 C405.48,68.04 408.16,62.72 409.52,60.32 C409.84,59.8 410.28,59.2 410.8,58.68 C410.92,58.52 411.36,58.28 411.56,58.16 C411.72,58.04 412.12,58 412.44,58 C412.64,57.96 412.56,58.32 412.88,58.32 C413.16,58.28 413.04,58.2 413.04,58.04 C413.4,58.36 414.12,58.4 414.56,58.68 C414.76,58.88 415.04,59.32 415.48,59.64 C415.6,59.48 415.56,59.56 415.68,59.44 C417.24,54.6 418.32,51.16 420.68,46.68 C421.32,46.68 423.48,46.88 423.6,48.24 Z M413.56,62.52 C413.52,62.24 413.52,61.8 413.32,61.44 C413.12,61.64 412.72,62 412.56,61.96 C412.6,62.12 412.64,62.24 412.48,62.4 C412.16,62.92 411.52,63.68 411.24,64.28 C410.76,65.12 410.48,66.04 410.2,66.84 C410.2,66.96 410.32,67 410.32,67.16 C410.16,67.52 410,68.04 409.96,68.32 C410.32,67.68 411,66.8 411.36,66.64 C411.4,66.36 411.52,65.8 411.72,65.8 C411.88,65.76 412.04,65.96 412,65.8 L412,65.56 C412.48,65.36 412.36,65.08 412.56,64.48 C412.72,64.64 412.4,64.76 412.72,64.72 C412.92,64.72 413.04,64.24 412.92,64.04 C413.08,63.88 413.48,63.76 413.6,63.24 C413.44,63.04 413.56,62.72 413.56,62.52 Z M429.952506,56.0691955 C429.899597,56.0523935 429.88,56.015995 429.88,55.96 C429.88,55.92 429.92,55.92 429.96,55.88 C429.978449,55.9476472 429.974207,56.010567 429.952506,56.0691955 L429.952506,56.0691955 Z M429.952506,56.0691955 C429.975188,56.0763985 430.003993,56.08 430.04,56.08 C430.36,56.08 429.96,55.96 430.28,55.96 C430.48,55.96 431.04,56.32 431.4,56.44 C431.52,56.8 431.4,57.2 431.68,57.2 C432,57.2 431.68,57.08 431.96,57.08 C432.16,57.08 432.28,57.28 432.44,57.44 C432.44,59.12 433.24,58.24 433.24,59.28 C433.24,59.52 432.8,61.52 432.48,62.52 C432.16,63.16 431.32,64.36 430.64,65.2 C429.48,66.6 427.2,68.88 427.2,69.24 C427.2,69.56 427.92,70.04 428.4,70.24 C428.68,70.4 429.28,70.36 429.56,70.36 C430,70.36 430.32,69.96 430.96,70.24 C432.04,69.92 433.04,69.56 433.84,69.36 C433.96,69.48 434.12,69.52 434.24,69.52 C433.8,69.68 433.6,69.96 433.24,70.08 C433.24,70.28 433.4,70.4 433.68,70.48 C433.52,70.68 433.4,71.08 433.24,71.44 C432.56,71.28 432.2,72.16 432.2,72.8 C431.72,72.96 431.24,73.04 430.64,73.04 C430.443254,73.1580475 430.633598,73.1986772 430.79216,73.1999681 C430.359803,73.2401184 429.759928,73.6000066 429.32,73.64 L429.32,73.76 C429.32,73.8 429.28,73.84 429.16,73.84 C428.68,73.84 427.52,73.04 427.4,73.84 L426.96,73.24 C425.8,72.96 425.48,72.68 424.48,71.6 C423.76,70.96 424.12,71.96 423.36,68.76 C423.16,67.16 423.52,66.32 423.68,65.68 C423.84,64.92 424.44,63.36 425.04,62.12 C425.36,61.48 425.76,60.56 426.36,59.6 C426.64,59.24 427.12,58.64 427.4,58.12 C428,57.6 428.08,57.2 428.88,56.72 C429.184652,56.584599 429.833056,56.391906 429.952506,56.0691955 L429.952506,56.0691955 Z M430.16,59.96 C429.08,60.56 428.72,61.36 427.72,63.12 C427.24,64 426.96,64.52 426.92,64.68 L426.68,65.76 C427.28,65 427.88,64.28 428.4,63.52 C429,62.72 429.96,61.56 430.16,59.96 Z M449.946693,68.9807415 C449.934001,68.9480963 449.972952,68.92 450.04,68.92 L450.08,68.92 C450.038176,68.9372215 449.993629,68.9576207 449.946693,68.9807415 L449.946693,68.9807415 Z M449.946693,68.9807415 C449.949145,68.9870478 449.953524,68.9935239 449.96,69 L449.92,69.08 L450.08,69.08 C450.36,69.04 450.96,68.44 451.56,68.12 C451.4,68.4 451.32,68.68 451.28,68.96 C451.16,69.08 451.36,69.28 451.32,69.32 C451.2,69.44 451.08,69.52 450.96,69.68 C451.04,69.72 451.16,69.76 451.28,69.76 L451.24,69.8 C451.16,69.88 451.12,69.92 451.08,69.88 C450.92,70.04 451.04,70.36 450.76,70.56 C450.88,70.76 450.76,71 450.92,71.2 C450.72,71.4 450.4,71.56 450.36,71.88 C450.16,72.24 449.44,72.52 449.12,72.88 C448.84,73 448.52,73.56 448.4,73.76 C447.88,73.8 447.08,73.68 446.8,73.68 C446.36,73.68 444.48,72.72 444.36,72.32 C443.76,71.16 443.2,69.84 443.04,68.6 C442.84,67.8 442.84,66.24 442.8,65.08 C442.68,65.04 442.84,64.92 442.72,64.88 C441.64,66.12 440.36,67.96 439.24,69.28 C439.2,69.32 439.2,69.4 439.24,69.56 C438.88,70.24 438.48,70.96 437.96,71.6 C437.6,72.08 436.72,72.96 436.52,73 C436.24,73 436.04,72.6 435.84,72.64 C435.52,72.64 435.88,72.76 435.6,72.76 C434.6,72.88 434.44,70.88 434.28,70.72 C434.12,70.6 433.92,70.36 433.88,70 C433.88,69.8 434.2,68.48 434.24,67.68 C434.44,67.32 434.64,66.8 434.76,66.44 C434.92,65.84 434.88,65.12 435.04,64.52 C435.8,62.32 436.92,59.12 438,56.28 C438,56.12 437.96,55.76 437.96,55.44 C438.32,55.12 438.76,54.68 439.08,54.56 C439.28,54.84 439.52,55.08 439.8,55.44 C439.96,55.28 439.96,54.96 439.92,54.76 C440.2,54.96 440.48,55.2 440.92,55.32 C440.92,55.52 440.76,55.8 440.92,56 L440.96,56 C441.08,56 441.04,55.96 441.2,55.92 L441.24,56.36 C441.28,56.64 441.04,56.92 440.92,57.28 C440.8,57.96 440.72,59 440.56,59.8 C440.56,60.08 440.44,60.2 440.32,60.36 C440.12,60.96 440.04,61.56 440.08,62.12 C440.68,61.52 441.64,59.88 442.44,59.56 C442.8,59.4 443.24,59.52 443.72,59.24 C444,59.44 444.08,59.64 444.2,59.84 C444.4,59.72 444.48,59.6 444.76,59.56 C444.96,59.56 445.48,60.08 445.8,60.36 L445.8,60.4 C445.8,60.44 445.76,60.48 445.72,60.52 C445.72,60.64 445.92,60.68 445.96,60.68 C446.92,62.56 446.68,61.84 446.8,62.92 C446.92,63.2 446.6,66.4 446.72,68.04 C446.6,68.68 446.76,69.44 446.8,70.24 C446.92,70.32 447.12,70.36 447.32,70.32 C447.958176,70.32 449.230509,69.3335352 449.946693,68.9807415 L449.946693,68.9807415 Z M444.64,60.08 L444.92,60.04 L444.88,59.84 L444.6,59.88 L444.64,60.08 Z M358.96561,103.355499 C359.430812,102.739603 359.968942,101.689249 360.58,101.04 C360.74,100.76 361.18,100.8 361.5,100.64 C361.78,100.48 361.86,100.2 362.18,100.2 C362.38,100.2 363.42,100.4 363.86,100.6 C364.3,100.88 365.14,101.52 365.42,102.16 C365.62,102.6 365.82,103.36 365.82,103.68 C365.82,104.08 365.38,106.44 364.94,106.68 C364.82,106.76 364.62,106.8 364.34,106.8 C363.7,106.8 363.38,106.32 363.22,105.72 C363.06,105.28 362.7,104.92 362.86,104.48 L362.86,104.44 L362.74,104.44 C361.26,106.32 360.1,108.4 359.42,109.88 C359.02,110.8 358.34,113.12 358.34,113.32 L358.34,113.88 C358.7,114.04 359.3,114.16 359.5,114.16 C359.7,114.16 360.62,113.72 361.26,113.44 C362.7,112.84 364.54,112.24 366.42,111.28 C366.9,111 368.18,110.28 369.14,109.84 C368.94,110.04 368.82,110.64 368.5,110.64 C368.22,110.64 368.38,110.48 368.26,110.64 C368.26,110.8 368.1,110.84 368.3,110.84 C368.58,110.84 368.42,110.8 368.58,110.8 C368.42,110.96 368.22,111.4 368.34,111.56 C367.86,112 367.22,112.4 366.78,112.84 C366.78,112.96 366.86,113 366.98,113 L366.98,113.4 C366.02,113.92 364.98,114.64 363.54,115.48 C363.38,115.64 363.26,116 363.06,116.16 C362.62,116.4 360.54,117.12 359.66,117.12 C357.58,117.12 355.78,114.92 355.66,113.16 C355.66,112.84 355.62,112.44 355.62,112.16 C355.62,111.56 355.7,110.76 355.9,109.76 C356.1,108.72 356.38,107.84 356.78,107.16 C356.9,107.12 356.86,106.84 356.9,106.64 C357.26,105.84 357.66,105.08 358.18,104.44 C358.54,104.08 358.9,103.8 359.1,103.36 C359.1,103.32 359.1,103.28 359.06,103.24 C358.995384,103.304616 358.953964,103.346036 358.929494,103.376751 L358.96561,103.355499 Z M379.9,104.72 C379.74,105.08 379.14,105.4 379.3,105.76 C378.86,105.76 378.38,105.6 377.62,105.76 C377.58,105.48 377.54,105.12 377.42,104.6 C375.82,105.2 374.5,107.08 373.5,108.64 C373.5,108.52 373.46,108.44 373.34,108.44 C373.22,108.68 373.18,108.84 373.26,108.92 C373.22,108.92 373.18,108.92 373.14,108.96 C373.06,109.08 373.02,109.12 373.02,109.12 C372.98,109.24 373.14,109.28 373.14,109.44 C373.02,109.44 373.02,109.52 372.86,109.52 L372.82,109.52 C372.74,109.52 372.7,109.56 372.7,109.6 C372.58,109.76 372.86,109.84 372.86,109.88 C372.62,110.32 372.3,110.84 371.9,111.36 C371.9,111.52 372.02,111.6 371.98,111.64 C371.82,112 371.58,112.2 371.3,112.48 C371.1,112.76 371.14,113.16 370.98,113.48 C370.46,114.56 369.94,115.88 370.3,117 C370.06,117.16 369.82,117.24 369.54,117.24 C369.38,117.24 368.78,116.96 368.42,116.8 C368.26,116.64 368.42,116.12 367.98,116.24 C367.7,115.4 367.3,114.8 367.3,114.16 C367.3,113.92 367.94,111.72 368.02,110.64 C368.38,109.16 368.66,107.68 368.78,106.12 C368.9,105.2 369.06,104 369.18,102.84 C369.3,102.08 369.34,101.2 369.54,100.44 L370.02,100.44 C370.46,100.44 371.26,101.04 371.46,101.56 C371.66,102.16 371.82,102.72 371.86,103.32 C371.9,103.76 371.74,104.12 371.74,104.72 C372.14,103.72 374.34,102.04 375.62,102.04 C376.78,102.04 378.54,102.72 379.46,103.84 C379.62,104.04 379.7,104.4 379.9,104.72 Z M384.692506,100.069196 C384.639597,100.052394 384.62,100.015995 384.62,99.96 C384.62,99.92 384.66,99.92 384.7,99.88 C384.718449,99.9476472 384.714207,100.010567 384.692506,100.069196 L384.692506,100.069196 Z M384.692506,100.069196 C384.715188,100.076399 384.743993,100.08 384.78,100.08 C385.1,100.08 384.7,99.96 385.02,99.96 C385.22,99.96 385.78,100.32 386.14,100.44 C386.26,100.8 386.14,101.2 386.42,101.2 C386.74,101.2 386.42,101.08 386.7,101.08 C386.9,101.08 387.02,101.28 387.18,101.44 C387.18,103.12 387.98,102.24 387.98,103.28 C387.98,103.52 387.54,105.52 387.22,106.52 C386.9,107.16 386.06,108.36 385.38,109.2 C384.22,110.6 381.94,112.88 381.94,113.24 C381.94,113.56 382.66,114.04 383.14,114.24 C383.42,114.4 384.02,114.36 384.3,114.36 C384.74,114.36 385.06,113.96 385.7,114.24 C386.78,113.92 387.78,113.56 388.58,113.36 C388.7,113.48 388.86,113.52 388.98,113.52 C388.54,113.68 388.34,113.96 387.98,114.08 C387.98,114.28 388.14,114.4 388.42,114.48 C388.26,114.68 388.14,115.08 387.98,115.44 C387.3,115.28 386.94,116.16 386.94,116.8 C386.46,116.96 385.98,117.04 385.38,117.04 C385.183254,117.158048 385.373598,117.198677 385.53216,117.199968 C385.099803,117.240118 384.499928,117.600007 384.06,117.64 L384.06,117.76 C384.06,117.8 384.02,117.84 383.9,117.84 C383.42,117.84 382.26,117.04 382.14,117.84 L381.7,117.24 C380.54,116.96 380.22,116.68 379.22,115.6 C378.5,114.96 378.86,115.96 378.1,112.76 C377.9,111.16 378.26,110.32 378.42,109.68 C378.58,108.92 379.18,107.36 379.78,106.12 C380.1,105.48 380.5,104.56 381.1,103.6 C381.38,103.24 381.86,102.64 382.14,102.12 C382.74,101.6 382.82,101.2 383.62,100.72 C383.924652,100.584599 384.573056,100.391906 384.692506,100.069196 L384.692506,100.069196 Z M384.9,103.96 C383.82,104.56 383.46,105.36 382.46,107.12 C381.98,108 381.7,108.52 381.66,108.68 L381.42,109.76 C382.02,109 382.62,108.28 383.14,107.52 C383.74,106.72 384.7,105.56 384.9,103.96 Z M413.98,113.48 C414.18,113.84 413.86,114.24 413.82,114.52 C413.74,114.72 413.82,114.84 414.02,114.92 C413.9,115.12 413.7,115.24 413.54,115.4 C413.58,115.56 413.54,115.68 413.46,115.76 C412.86,116.04 412.18,116.44 411.86,116.48 C411.58,116.48 410.78,116.12 410.5,116.12 C410.3,116.16 410.66,116.28 410.38,116.32 C410.18,116.32 409.06,115.52 408.54,115 C407.7,114.08 407.58,112.52 407.26,111.04 C407.22,110.68 407.3,110.24 407.02,109.72 C406.7,110.08 406.58,110.44 406.26,110.88 C405.82,111.52 404.42,113 403.62,114.16 C403.1,114.8 402.58,115.6 401.82,116.04 C401.7,116.2 401.86,116.28 401.7,116.32 C401.26,116.6 400.58,116.96 400.3,116.96 C399.46,117.08 397.38,115.72 397.26,115 C397.06,113.16 398.1,110.12 398.18,108.92 C398.3,108.72 398.1,108.72 398.1,108.6 L398.22,108.44 C398.18,108.28 398.06,108.2 398.06,108 C396.78,109.32 395.34,111.36 394.06,113 C394.02,113.12 393.98,113.36 393.86,113.56 L392.98,114.6 L392.98,114.92 C392.46,115.4 392.02,116.28 391.54,116.76 C391.34,116.92 390.7,117.36 390.38,117.36 C390.18,117.4 389.5,116.92 389.18,116.6 C388.74,116.32 388.7,115.68 388.66,115.08 C388.5,113.8 389.14,111.48 389.78,109.44 C390.42,107.4 391.1,105.64 391.22,105 C391.34,104.56 391.62,103.76 391.74,103.16 C391.78,103.12 391.9,103.08 391.94,102.92 C391.94,101.76 392.14,101.16 392.82,99.6 C393.1,99.56 393.46,99.36 393.74,99.36 C394.02,99.32 394.26,99.4 394.46,99.56 C394.5,99.68 394.54,99.72 394.58,99.76 C395.18,99.88 395.58,100.96 395.58,101.16 C395.62,101.32 395.54,101.76 395.42,102.48 C395.3,103.16 395.18,103.76 395.02,104.2 C394.9,105 393.98,106.8 394.06,107.48 C394.1,107.48 394.18,107.24 394.5,107.2 C394.7,107.2 397.18,103.88 398.34,102.2 C398.62,102.08 399.22,102.08 399.86,102.2 C400.3,102.32 401.38,102.72 401.9,103.32 C402.1,103.68 402.46,104.56 402.5,104.92 C402.5,105.2 402.1,107.84 401.98,109.28 C401.54,109.4 401.58,110.08 401.54,110.56 L401.54,110.6 C401.54,110.64 401.54,110.68 401.58,110.72 C401.86,110.44 401.82,110.24 402.3,110.24 L407.5,103.92 C407.62,103.96 408.02,103.84 408.38,103.96 C408.58,104 408.94,104.36 409.1,104.48 C409.14,104.52 409.46,104.44 409.62,104.6 C409.82,104.72 410.02,104.88 410.3,105.2 C410.58,105.52 410.5,105.92 410.86,106.2 C410.74,106.24 410.9,106.44 410.94,106.64 C410.94,106.88 410.5,109.24 410.5,110.36 C410.46,110.64 410.46,111.08 410.46,111.64 C410.46,112.2 410.46,112.56 410.5,112.72 C410.62,113.8 410.74,114.28 412.14,114.12 C412.34,114.12 413.46,113.76 413.98,113.48 Z M405.9,111.4 L405.7,111.28 L405.94,110.92 L406.06,110.92 L405.9,111.4 Z M429.337803,115.560316 C428.497631,115.68216 427.139686,116.92 426.78,116.92 L425.1,116.92 C423.46,116.92 421.98,113.6 421.98,113.32 C421.98,112.84 421.98,112.04 421.86,111.28 C421.42,112.04 420.98,112.6 420.5,113.4 C420.06,114.04 418.02,117.04 416.82,117.04 C416.62,117.04 416.18,117.2 415.98,117.2 C414.66,117.2 414.22,116.36 413.46,115.72 C413.42,115.4 413.14,114.72 413.14,114.52 C413.14,112.08 416.38,106.6 417.74,104.8 C418.02,104.44 418.82,103.64 419.34,103.28 C419.7,103.12 420.14,102.6 420.5,102.28 C420.62,102.16 420.46,102.04 420.58,101.92 C420.94,101.76 421.22,101.84 421.42,101.68 C421.62,101.56 421.78,101.36 421.9,101.12 L422.22,101.12 C422.5,101.36 422.7,101.48 422.9,101.48 C423.1,101.48 423.34,101.56 423.54,101.56 C424.02,101.04 423.7,100.76 424.22,100.76 C424.5,100.76 424.3,101.08 424.58,101.08 C424.9,101.08 424.62,100.96 424.82,100.96 C425.3,100.96 426.26,101.4 426.58,101.76 C426.7,101.96 426.9,102.52 426.74,102.68 C426.74,102.84 426.86,102.52 426.86,102.84 C426.86,103.12 426.02,105.76 425.7,107.28 C425.26,109.4 424.82,113.4 424.82,113.64 C424.82,113.84 424.94,114.52 424.94,114.88 C425.38,115.04 425.82,114.84 426.14,114.84 C426.74,114.84 431.18,112.76 431.42,112.64 C431.3,112.96 430.82,113.12 430.7,113.4 C430.5,113.6 430.42,113.76 430.54,113.96 C430.22,114.32 429.62,114.84 429.02,115.28 C429.02,115.318503 429.20531,115.542317 429.326206,115.559015 L429.337803,115.560316 Z M421.78,105.68 L421.54,105.92 C421.38,105.76 421.54,105.6 421.54,105.48 C420.22,107.08 418.98,109.24 418.02,111.12 L418.26,111.4 C419.54,109.84 420.62,107.6 421.78,105.68 Z" id="Layerofgoldencrema" fill="#6D1F37" fill-rule="nonzero"></path>
                            <path d="M119.067118,387.573448 C119.783241,386.013681 120.260656,384.459896 121.094641,382.906111 C121.333349,382.30643 120.978271,381.830874 120.617226,381.708246 C120.617226,381.352326 120.377026,381.114547 120.021949,380.991919 C91.4948868,376.204945 68.341732,356.705616 59.7512387,330.267343 C65.3578858,340.671272 73.9528548,349.766672 82.4269781,357.424933 C88.6333783,363.046375 95.1963481,368.068137 102.357579,372.256926 C107.964226,375.487124 115.010579,378.478048 121.455687,376.44721 C121.094641,377.40281 122.52838,377.884349 123.005795,377.163537 C124.555903,375.132699 126.106011,373.214021 127.778457,371.420962 C129.450903,375.132699 131.241211,378.839949 132.552611,382.666837 C128.140994,384.34325 123.72341,386.492229 119.067118,387.573448 M135.05755,382.783483 C133.507442,378.000995 131.124841,373.456286 129.089857,368.911577 C128.85115,368.30741 127.900795,368.30741 127.539749,368.669312 C125.512226,370.819787 123.244503,372.974747 121.933102,375.609752 L121.810765,375.609752 C107.254071,376.684989 93.1673327,364.241249 83.1431012,355.145849 C71.5642859,344.74192 61.0626391,332.060402 56.8837625,316.866508 C56.6450548,314.950821 56.4063471,312.916993 56.4063471,310.88466 C56.4063471,309.926069 55.0949466,309.926069 54.9726089,310.88466 L54.9726089,311.959897 C54.4937016,311.959897 54.1386239,312.321799 54.1386239,312.916993 C54.2549939,314.231504 54.6160393,315.551997 54.854747,316.866508 C55.8110697,349.286629 88.0336252,380.510381 119.544533,382.545704 C118.471841,384.459896 117.515518,386.492229 116.321979,388.410906 C115.726702,389.243879 116.683025,390.087319 117.515518,389.964691 C123.48321,389.127233 128.85115,386.252955 134.347395,384.105471 C134.818842,383.982843 135.296258,383.501305 135.05755,382.783483" id="Fill-1" fill="#6D1F37" transform="translate(94.629852, 350.071172) scale(-1, 1) rotate(-159.000000) translate(-94.629852, -350.071172) "></path>
                            <g id="Page-1-Copy-4" transform="translate(294.256037, 89.537135) rotate(-283.000000) translate(-294.256037, -89.537135) translate(261.256037, 57.037135)"></g>
                            <path d="M313.838978,119.469412 C314.412828,118.219525 314.795395,116.974432 315.463691,115.729338 C315.654975,115.248797 315.370441,114.867719 315.081125,114.769454 C315.081125,114.484245 314.888646,114.293706 314.604111,114.195441 C291.744542,110.359499 273.191242,94.7341156 266.307428,73.548354 C270.800198,81.8853269 277.687599,89.173737 284.478161,95.3105256 C289.451532,99.8151513 294.710631,103.839236 300.449135,107.195835 C304.941905,109.784287 310.588354,112.181002 315.753008,110.553633 C315.463691,111.319383 316.612588,111.705254 316.995155,111.127646 C318.237302,109.500276 319.479449,107.962784 320.819628,106.525953 C322.159808,109.500276 323.594434,112.471005 324.645298,115.537601 C321.11014,116.88096 317.570201,118.603 313.838978,119.469412 M326.652578,115.631073 C325.410431,111.798726 323.501183,108.156918 321.870492,104.515109 C321.679208,104.030973 320.917661,104.030973 320.628345,104.320975 C319.003631,106.044213 317.186438,107.771047 316.135575,109.882552 L316.037542,109.882552 C304.372837,110.744171 293.084722,100.772639 285.052012,93.4842288 C275.773568,85.1472559 267.358292,74.9851846 264.009635,62.8098727 C263.818352,61.2747768 263.627069,59.6450106 263.627069,58.0164428 C263.627069,57.2482957 262.576205,57.2482957 262.478172,58.0164428 L262.478172,58.8780618 C262.09441,58.8780618 261.809876,59.1680643 261.809876,59.6450106 C261.903126,60.6983668 262.192443,61.7565165 262.383726,62.8098727 C263.150055,88.7890642 288.970932,113.80957 314.221544,115.440534 C313.361964,116.974432 312.595635,118.603 311.639218,120.140492 C311.162205,120.807977 311.928534,121.483851 312.595635,121.385586 C317.377722,120.714506 321.679208,118.411263 326.08351,116.690421 C326.461295,116.592156 326.843862,116.206285 326.652578,115.631073" id="Fill-1" fill="#6D1F37" transform="translate(294.256681, 89.417742) rotate(-283.000000) translate(-294.256681, -89.417742) "></path>
                        </g>
                    </g>
                </g>
            </g>
        </g>
    </g>
</svg>