<?xml version="1.0" encoding="UTF-8"?>
<svg width="202px" height="164px" viewBox="0 0 202 164" version="1.1" xmlns="http://www.w3.org/2000/svg" xmlns:xlink="http://www.w3.org/1999/xlink">
    <!-- Generator: Sketch 52.6 (67491) - http://www.bohemiancoding.com/sketch -->
    <title>Espresso Tab Mobile</title>
    <desc>Created with Sketch.</desc>
    <defs>
        <filter x="-6.2%" y="-7.7%" width="112.4%" height="115.4%" filterUnits="objectBoundingBox" id="filter-1">
            <feOffset dx="0" dy="2" in="SourceAlpha" result="shadowOffsetOuter1"></feOffset>
            <feGaussianBlur stdDeviation="2" in="shadowOffsetOuter1" result="shadowBlurOuter1"></feGaussianBlur>
            <feColorMatrix values="0 0 0 0 0   0 0 0 0 0   0 0 0 0 0  0 0 0 0.3 0" type="matrix" in="shadowBlurOuter1" result="shadowMatrixOuter1"></feColorMatrix>
            <feMerge>
                <feMergeNode in="shadowMatrixOuter1"></feMergeNode>
                <feMergeNode in="SourceGraphic"></feMergeNode>
            </feMerge>
        </filter>
        <path d="M16.9289048,22.0010524 L126.00938,13.1829258 C126.00938,13.1829258 131.154686,11.6267859 132.698277,17.5919891 C134.756399,22.0010524 138.358113,26.6694724 146.590602,26.6694724 C152.764968,26.6694724 172.83166,23.0384791 180.035087,44.8244389 C182.093209,51.5677122 186.723984,73.8723853 166.657293,83.2092252 C159.968396,86.3215052 137.329052,95.1396318 133.727338,97.2144851 C130.125625,99.2893384 126.00938,101.364192 123.951258,109.663605 C119.835014,118.481732 114.689708,126.262432 112.631586,128.855998 C110.573464,131.449565 106.878105,135.080558 99.4647494,135.599271 C91.0213031,136.636698 51.4024512,139.748978 51.4024512,139.748978 C51.4024512,139.748978 46.2571458,141.823831 40.0827793,134.043131 C33.3938822,126.262432 13.8417215,107.070038 12.2981299,31.8566057 C12.2981299,26.6694724 10.2420658,22.5415517 16.9289048,22.0010524 Z M144.026568,37.6952043 C132.008549,46.0007502 134.309872,66.7646149 135.332682,71.9555811 C137.634005,81.5588686 150.674835,81.5588686 153.23186,81.039772 C159.368721,80.5206753 168.574013,71.6960328 169.596823,69.8791947 C179.824924,51.710813 166.27269,41.0693323 163.204259,37.9547526 C153.743265,30.9469483 144.026568,37.6952043 144.026568,37.6952043 Z" id="path-2"></path>
        <filter x="-4.1%" y="-3.9%" width="108.2%" height="111.0%" filterUnits="objectBoundingBox" id="filter-3">
            <feOffset dx="0" dy="2" in="SourceAlpha" result="shadowOffsetOuter1"></feOffset>
            <feGaussianBlur stdDeviation="2" in="shadowOffsetOuter1" result="shadowBlurOuter1"></feGaussianBlur>
            <feColorMatrix values="0 0 0 0 0   0 0 0 0 0   0 0 0 0 0  0 0 0 0.3 0" type="matrix" in="shadowBlurOuter1"></feColorMatrix>
        </filter>
    </defs>
    <g id="Mobile" stroke="none" stroke-width="1" fill="none" fill-rule="evenodd">
        <g id="Core-Coffees-Mobile" transform="translate(-59.000000, -1057.000000)">
            <g id="Coffee" transform="translate(0.000000, 992.000000)">
                <g id="Espresso-Tab-Mobile">
                    <g filter="url(#filter-1)" transform="translate(63.000000, 67.000000)">
                        <g id="Combined-Shape">
                            <use fill="black" fill-opacity="1" filter="url(#filter-3)" xlink:href="#path-2"></use>
                            <use fill="#6D1F37" fill-rule="evenodd" xlink:href="#path-2"></use>
                        </g>
                        <path d="M23,68.7950848 C23,68.7950848 25.5908979,103.093458 43.2090035,125.95904 C45.7999014,129.077074 51.4998767,134.273797 68.0816232,132.71478 C73.7815985,132.195108 82.5906513,130.116419 89.8451654,130.116419 C93.990602,130.116419 109.535989,129.596747 113.681426,117.644283 C117.826863,108.290181 126.117736,86.9836161 127.672274,68.7950848 C128.190454,66.7163955 128.708634,65.1573786 124.045017,63.0786893 C120.93594,61.5196723 113.163246,57.8819661 93.990602,66.7163955 C84.8177871,68.4074093 72.7286576,69.8417049 60.8271091,66.7163955 C53.0544154,63.0786893 45.7999014,60.4803277 34.3999507,64.6377063 C29.2181549,66.1967232 23,68.7950848 23,68.7950848" id="Fill-3" fill="#B51144"></path>
                        <path d="M61,7 C61,8.104 60.104,9 59,9 C57.896,9 57,8.104 57,7 C57,5.896 57.896,5 59,5 C60.104,5 61,5.896 61,7" id="Fill-5" fill="#B51144"></path>
                        <path d="M9,14 C9,15.104 8.104,16 7,16 C5.896,16 5,15.104 5,14 C5,12.896 5.896,12 7,12 C8.104,12 9,12.896 9,14" id="Fill-7" fill="#B51144"></path>
                        <path d="M9,87 C9,88.104 8.104,89 7,89 C5.896,89 5,88.104 5,87 C5,85.896 5.896,85 7,85 C8.104,85 9,85.896 9,87" id="Fill-9" fill="#B51144"></path>
                        <path d="M16,111 C16,112.104 15.104,113 14,113 C12.896,113 12,112.104 12,111 C12,109.896 12.896,109 14,109 C15.104,109 16,109.896 16,111" id="Fill-11" fill="#B51144"></path>
                        <path d="M24,131 C24,132.104 23.104,133 22,133 C20.896,133 20,132.104 20,131 C20,129.896 20.896,129 22,129 C23.104,129 24,129.896 24,131" id="Fill-13" fill="#B51144"></path>
                        <path d="M34,147 C34,148.104 33.104,149 32,149 C30.896,149 30,148.104 30,147 C30,145.896 30.896,145 32,145 C33.104,145 34,145.896 34,147" id="Fill-15" fill="#B51144"></path>
                        <path d="M49,9 C49,10.104 48.104,11 47,11 C45.896,11 45,10.104 45,9 C45,7.896 45.896,7 47,7 C48.104,7 49,7.896 49,9" id="Fill-17" fill="#B51144"></path>
                        <path d="M21,12 C21,13.104 20.104,14 19,14 C17.896,14 17,13.104 17,12 C17,10.896 17.896,10 19,10 C20.104,10 21,10.896 21,12" id="Fill-19" fill="#B51144"></path>
                        <path d="M4,34 C4,35.104 3.104,36 2,36 C0.896,36 0,35.104 0,34 C0,32.896 0.896,32 2,32 C3.104,32 4,32.896 4,34" id="Fill-21" fill="#B51144"></path>
                        <path d="M8,76 C8,77.104 7.104,78 6,78 C4.896,78 4,77.104 4,76 C4,74.896 4.896,74 6,74 C7.104,74 8,74.896 8,76" id="Fill-23" fill="#B51144"></path>
                        <path d="M8.3024653,98.1265174 C9.33742298,97.740521 10.4883759,98.2675161 10.8733602,99.3025065 C11.2593444,100.336497 10.7333659,101.488486 9.69840821,101.873483 C8.66245058,102.259479 7.51149765,101.732484 7.12651339,100.697494 C6.74052917,99.6635031 7.26750762,98.5115138 8.3024653,98.1265174" id="Fill-25" fill="#B51144"></path>
                        <path d="M25.3024653,136.126517 C26.337423,135.740521 27.4883759,136.267516 27.8733602,137.302506 C28.2593444,138.336497 27.7333659,139.488486 26.6984082,139.873483 C25.6624506,140.259479 24.5114976,139.732484 24.1265134,138.697494 C23.7405292,137.663503 24.2675076,136.511514 25.3024653,136.126517" id="Fill-27" fill="#B51144"></path>
                        <path d="M16.3024653,119.126517 C17.337423,118.740521 18.4883759,119.267516 18.8733602,120.302506 C19.2593444,121.336497 18.7333659,122.488486 17.6984082,122.873483 C16.6624506,123.259479 15.5114976,122.732484 15.1265134,121.697494 C14.7405292,120.663503 15.2675076,119.511514 16.3024653,119.126517" id="Fill-29" fill="#B51144"></path>
                        <path d="M4,56 C4,57.104 3.104,58 2,58 C0.896,58 0,57.104 0,56 C0,54.896 0.896,54 2,54 C3.104,54 4,54.896 4,56" id="Fill-31" fill="#B51144"></path>
                        <path d="M5,22 C5,23.104 4.104,24 3,24 C1.896,24 1,23.104 1,22 C1,20.896 1.896,20 3,20 C4.104,20 5,20.896 5,22" id="Fill-33" fill="#B51144"></path>
                        <path d="M5,45 C5,46.104 4.104,47 3,47 C1.896,47 1,46.104 1,45 C1,43.896 1.896,43 3,43 C4.104,43 5,43.896 5,45" id="Fill-35" fill="#B51144"></path>
                        <path d="M6,64 C6,65.104 5.104,66 4,66 C2.896,66 2,65.104 2,64 C2,62.896 2.896,62 4,62 C5.104,62 6,62.896 6,64" id="Fill-37" fill="#B51144"></path>
                        <path d="M87,6 C87,7.104 86.104,8 85,8 C83.896,8 83,7.104 83,6 C83,4.896 83.896,4 85,4 C86.104,4 87,4.896 87,6" id="Fill-39" fill="#B51144"></path>
                        <path d="M100,5 C100,6.104 99.104,7 98,7 C96.896,7 96,6.104 96,5 C96,3.896 96.896,3 98,3 C99.104,3 100,3.896 100,5" id="Fill-41" fill="#B51144"></path>
                        <path d="M181,26 C181,27.104 180.104,28 179,28 C177.896,28 177,27.104 177,26 C177,24.896 177.896,24 179,24 C180.104,24 181,24.896 181,26" id="Fill-43" fill="#B51144"></path>
                        <path d="M194,68 C194,69.104 193.104,70 192,70 C190.896,70 190,69.104 190,68 C190,66.896 190.896,66 192,66 C193.104,66 194,66.896 194,68" id="Fill-45" fill="#B51144"></path>
                        <path d="M178,91 C178,92.104 177.104,93 176,93 C174.896,93 174,92.104 174,91 C174,89.896 174.896,89 176,89 C177.104,89 178,89.896 178,91" id="Fill-47" fill="#B51144"></path>
                        <path d="M159,99 C159,100.104 158.104,101 157,101 C155.896,101 155,100.104 155,99 C155,97.896 155.896,97 157,97 C158.104,97 159,97.896 159,99" id="Fill-49" fill="#B51144"></path>
                        <path d="M132,126 C132,127.104 131.104,128 130,128 C128.896,128 128,127.104 128,126 C128,124.895 128.896,124 130,124 C131.104,124 132,124.895 132,126" id="Fill-51" fill="#B51144"></path>
                        <path d="M186,85 C186,86.104 185.104,87 184,87 C182.896,87 182,86.104 182,85 C182,83.896 182.896,83 184,83 C185.104,83 186,83.896 186,85" id="Fill-53" fill="#B51144"></path>
                        <path d="M140,108 C140,109.104 139.104,110 138,110 C136.896,110 136,109.104 136,108 C136,106.896 136.896,106 138,106 C139.104,106 140,106.896 140,108" id="Fill-55" fill="#B51144"></path>
                        <path d="M123,143 C123,144.104 122.104,145 121,145 C119.896,145 119,144.104 119,143 C119,141.896 119.896,141 121,141 C122.104,141 123,141.896 123,143" id="Fill-57" fill="#B51144"></path>
                        <path d="M115,146 C115,147.104 114.104,148 113,148 C111.896,148 111,147.104 111,146 C111,144.896 111.896,144 113,144 C114.104,144 115,144.896 115,146" id="Fill-59" fill="#B51144"></path>
                        <path d="M148,103 C148,104.104 147.104,105 146,105 C144.896,105 144,104.104 144,103 C144,101.896 144.896,101 146,101 C147.104,101 148,101.896 148,103" id="Fill-61" fill="#B51144"></path>
                        <path d="M191,40 C191,41.104 190.104,42 189,42 C187.896,42 187,41.104 187,40 C187,38.896 187.896,38 189,38 C190.104,38 191,38.896 191,40" id="Fill-63" fill="#B51144"></path>
                        <path d="M193,51 C193,52.104 192.104,53 191,53 C189.896,53 189,52.104 189,51 C189,49.895 189.896,49 191,49 C192.104,49 193,49.895 193,51" id="Fill-65" fill="#B51144"></path>
                        <path d="M123,3 C123,4.104 122.104,5 121,5 C119.896,5 119,4.104 119,3 C119,1.896 119.896,1 121,1 C122.104,1 123,1.896 123,3" id="Fill-67" fill="#B51144"></path>
                        <path d="M187,32 C187,33.104 186.104,34 185,34 C183.896,34 183,33.104 183,32 C183,30.895 183.896,30 185,30 C186.104,30 187,30.895 187,32" id="Fill-69" fill="#B51144"></path>
                        <path d="M172,22 C172,23.104 171.104,24 170,24 C168.896,24 168,23.104 168,22 C168,20.896 168.896,20 170,20 C171.104,20 172,20.896 172,22" id="Fill-71" fill="#B51144"></path>
                        <path d="M191,77 C191,78.104 190.104,79 189,79 C187.896,79 187,78.104 187,77 C187,75.896 187.896,75 189,75 C190.104,75 191,75.896 191,77" id="Fill-73" fill="#B51144"></path>
                        <path d="M135,117 C135,118.104 134.104,119 133,119 C131.896,119 131,118.104 131,117 C131,115.896 131.896,115 133,115 C134.104,115 135,115.896 135,117" id="Fill-75" fill="#B51144"></path>
                        <path d="M127,133 C127,134.104 126.104,135 125,135 C123.896,135 123,134.104 123,133 C123,131.895 123.896,131 125,131 C126.104,131 127,131.895 127,133" id="Fill-77" fill="#B51144"></path>
                        <path d="M104,147 C104,148.104 103.104,149 102,149 C100.896,149 100,148.104 100,147 C100,145.896 100.896,145 102,145 C103.104,145 104,145.896 104,147" id="Fill-79" fill="#B51144"></path>
                        <path d="M85,149 C85,150.104 84.104,151 83,151 C81.896,151 81,150.104 81,149 C81,147.896 81.896,147 83,147 C84.104,147 85,147.896 85,149" id="Fill-81" fill="#B51144"></path>
                        <path d="M62,153 C62,154.104 61.104,155 60,155 C58.896,155 58,154.104 58,153 C58,151.896 58.896,151 60,151 C61.104,151 62,151.896 62,153" id="Fill-83" fill="#B51144"></path>
                        <path d="M41,153 C41,154.104 40.104,155 39,155 C37.896,155 37,154.104 37,153 C37,151.896 37.896,151 39,151 C40.104,151 41,151.896 41,153" id="Fill-85" fill="#B51144"></path>
                        <path d="M95,149 C95,150.104 94.104,151 93,151 C91.896,151 91,150.104 91,149 C91,147.896 91.896,147 93,147 C94.104,147 95,147.896 95,149" id="Fill-87" fill="#B51144"></path>
                        <path d="M74,149 C74,150.104 73.104,151 72,151 C70.896,151 70,150.104 70,149 C70,147.896 70.896,147 72,147 C73.104,147 74,147.896 74,149" id="Fill-89" fill="#B51144"></path>
                        <path d="M50,154 C50,155.104 49.104,156 48,156 C46.896,156 46,155.104 46,154 C46,152.896 46.896,152 48,152 C49.104,152 50,152.896 50,154" id="Fill-91" fill="#B51144"></path>
                        <path d="M168,95 C168,96.104 167.104,97 166,97 C164.896,97 164,96.104 164,95 C164,93.896 164.896,93 166,93 C167.104,93 168,93.896 168,95" id="Fill-93" fill="#B51144"></path>
                        <path d="M141,5 C141,6.104 140.104,7 139,7 C137.896,7 137,6.104 137,5 C137,3.896 137.896,3 139,3 C140.104,3 141,3.896 141,5" id="Fill-95" fill="#B51144"></path>
                        <path d="M144,14 C144,15.104 143.104,16 142,16 C140.896,16 140,15.104 140,14 C140,12.895 140.896,12 142,12 C143.104,12 144,12.895 144,14" id="Fill-97" fill="#B51144"></path>
                        <path d="M194,59 C194,60.104 193.104,61 192,61 C190.896,61 190,60.104 190,59 C190,57.896 190.896,57 192,57 C193.104,57 194,57.896 194,59" id="Fill-99" fill="#B51144"></path>
                        <path d="M75,6 C75,7.104 74.104,8 73,8 C71.896,8 71,7.104 71,6 C71,4.896 71.896,4 73,4 C74.104,4 75,4.896 75,6" id="Fill-101" fill="#B51144"></path>
                        <path d="M35,11 C35,12.104 34.104,13 33,13 C31.896,13 31,12.104 31,11 C31,9.896 31.896,9 33,9 C34.104,9 35,9.896 35,11" id="Fill-103" fill="#B51144"></path>
                        <path d="M112,5 C112,6.104 111.104,7 110,7 C108.896,7 108,6.104 108,5 C108,3.896 108.896,3 110,3 C111.104,3 112,3.896 112,5" id="Fill-105" fill="#B51144"></path>
                        <path d="M132,2 C132,3.104 131.104,4 130,4 C128.896,4 128,3.104 128,2 C128,0.896 128.896,0 130,0 C131.104,0 132,0.896 132,2" id="Fill-107" fill="#B51144"></path>
                        <path d="M162,19 C162,20.104 161.104,21 160,21 C158.896,21 158,20.104 158,19 C158,17.896 158.896,17 160,17 C161.104,17 162,17.896 162,19" id="Fill-109" fill="#B51144"></path>
                        <path d="M153,18 C153,19.104 152.104,20 151,20 C149.896,20 149,19.104 149,18 C149,16.896 149.896,16 151,16 C152.104,16 153,16.896 153,18" id="Fill-111" fill="#B51144"></path>
                    </g>
                </g>
            </g>
        </g>
    </g>
</svg>