<?xml version="1.0" encoding="UTF-8"?>
<svg width="227px" height="136px" viewBox="0 0 227 136" version="1.1" xmlns="http://www.w3.org/2000/svg" xmlns:xlink="http://www.w3.org/1999/xlink">
    <!-- Generator: Sketch 52.6 (67491) - http://www.bohemiancoding.com/sketch -->
    <title>Flat White Tab Mobile</title>
    <desc>Created with Sketch.</desc>
    <defs>
        <filter x="-5.4%" y="-9.8%" width="110.8%" height="119.7%" filterUnits="objectBoundingBox" id="filter-1">
            <feOffset dx="0" dy="2" in="SourceAlpha" result="shadowOffsetOuter1"></feOffset>
            <feGaussianBlur stdDeviation="2" in="shadowOffsetOuter1" result="shadowBlurOuter1"></feGaussianBlur>
            <feColorMatrix values="0 0 0 0 0   0 0 0 0 0   0 0 0 0 0  0 0 0 0.3 0" type="matrix" in="shadowBlurOuter1" result="shadowMatrixOuter1"></feColorMatrix>
            <feMerge>
                <feMergeNode in="shadowMatrixOuter1"></feMergeNode>
                <feMergeNode in="SourceGraphic"></feMergeNode>
            </feMerge>
        </filter>
        <polygon id="path-2" points="0 0.405355545 221.039414 0.405355545 221.039414 121.325984 0 121.325984"></polygon>
    </defs>
    <g id="Mobile" stroke="none" stroke-width="1" fill="none" fill-rule="evenodd">
        <g id="Core-Coffees-Mobile" transform="translate(-377.000000, -1776.000000)">
            <g id="Coffee" transform="translate(0.000000, 992.000000)">
                <g id="Flat-White-Tab-Mobile">
                    <g filter="url(#filter-1)" transform="translate(489.710018, 853.095556) rotate(4.000000) translate(-489.710018, -853.095556) translate(378.710018, 792.095556)">
                        <g id="Group-3">
                            <mask id="mask-3" fill="white">
                                <use xlink:href="#path-2"></use>
                            </mask>
                            <g id="Clip-2"></g>
                            <path d="M180.14857,37.0683657 C196.106138,18.5106812 210.189146,39.1301952 210.940191,40.8177008 C215.633306,48.6906948 211.50317,59.188833 209.999859,61.6262056 C201.176607,76.0602312 185.968863,76.4345551 184.278706,76.6211073 C171.887076,77.5599652 172.638121,64.812226 172.450054,62.5626249 C171.699009,52.815573 180.14857,37.0683657 180.14857,37.0683657 M51.0958464,121.326594 C119.078236,121.087612 127.599848,121.268067 127.599848,121.268067 C127.599848,121.268067 147.770595,104.955107 149.316649,100.75829 C150.863923,98.8244868 154.537327,95.6482208 157.71614,94.7898364 C160.893732,93.9326714 170.787985,90.0601874 188.643316,85.300056 C190.881796,85.0501003 216.891154,78.8743663 220.989539,52.5107491 C221.292399,50.7171647 221.186154,20.5481248 190.473911,20.7102911 C188.731243,20.9041592 184.309237,21.9027626 181.875363,20.4127829 C180.147349,19.0337592 176.858627,8.99285698 176.294427,2.81712295 C176.294427,2.81712295 176.293206,2.81712295 176.293206,2.81834225 C176.2065,0.938187879 175.059783,0.491925558 174.278207,0.405355545 L173.560135,0.412671321 L3.09491575,1.8685107 C2.7969402,1.87460718 0.560902342,2.02214199 0.361844903,5.07647836 C-0.819066407,19.5275741 -2.24177755,88.147112 51.0958464,121.326594" id="Fill-1" fill="#6D1F37" mask="url(#mask-3)"></path>
                        </g>
                        <path d="M166.974448,20.3123449 C166.974448,20.3123449 163.310064,3.2322452 142.747983,10.7560291 C135.623199,13.1960433 116.894531,21.1260896 91.6505885,21.532352 C66.406646,21.9386144 52.1570775,17.8723306 46.6605012,14.6185716 C41.227441,11.4026329 17.3136699,-0.130094419 9.09079185,22.7633392 C7.67389664,30.0577617 8.12583736,39.189515 11.8928243,50.5856015 L11.8903814,50.5831615 C11.8903814,50.5831615 16.6198799,65.7319899 19.9703484,70.4363373 C26.2083517,83.0707311 38.9127716,103.053228 59.1536083,110.811253 C61.5586658,112.052 95.9403609,126.579845 128.769579,100.263071 C130.763004,98.3220401 163.27342,71.402583 167.007427,20.3196649 L166.974448,20.3123449 Z" id="Fill-4" fill="#FFFFFF"></path>
                        <path d="M124.273174,49.3654307 C124.273174,51.3990221 125.922305,53.0494181 127.957161,53.0494181 C129.990753,53.0494181 131.641149,51.3990221 131.641149,49.3654307 C131.641149,47.3305747 129.990753,45.6814434 127.957161,45.6814434 C125.922305,45.6814434 124.273174,47.3305747 124.273174,49.3654307" id="Fill-6" fill="#F3F2EE"></path>
                        <path d="M110.519621,31.6829236 C110.519621,33.716166 112.168752,35.3662787 114.203608,35.3662787 C116.2372,35.3662787 117.887596,33.716166 117.887596,31.6829236 C117.887596,29.6484168 116.2372,27.998304 114.203608,27.998304 C112.168752,27.998304 110.519621,29.6484168 110.519621,31.6829236" id="Fill-8" fill="#F3F2EE"></path>
                        <path d="M78.1005322,38.5590678 C78.1005322,40.5926592 79.7496635,42.2430552 81.7845196,42.2430552 C83.818111,42.2430552 85.468507,40.5926592 85.468507,38.5590678 C85.468507,36.5242117 83.818111,34.8750804 81.7845196,34.8750804 C79.7496635,34.8750804 78.1005322,36.5242117 78.1005322,38.5590678" id="Fill-10" fill="#F3F2EE"></path>
                        <path d="M136.061934,27.7520726 C136.061934,29.7865795 137.711065,31.4366922 139.745921,31.4366922 C141.779512,31.4366922 143.429908,29.7865795 143.429908,27.7520726 C143.429908,25.7188302 141.779512,24.0687175 139.745921,24.0687175 C137.711065,24.0687175 136.061934,25.7188302 136.061934,27.7520726" id="Fill-12" fill="#F3F2EE"></path>
                        <path d="M99.2220598,43.9622493 C99.2220598,45.9971053 100.871191,47.6462366 102.906047,47.6462366 C104.939639,47.6462366 106.590035,45.9971053 106.590035,43.9622493 C106.590035,41.9286579 104.939639,40.2782619 102.906047,40.2782619 C100.871191,40.2782619 99.2220598,41.9286579 99.2220598,43.9622493" id="Fill-14" fill="#F3F2EE"></path>
                        <path d="M58.9437979,47.8918358 C58.9437979,49.9266919 60.5929292,51.5758232 62.6277853,51.5758232 C64.6613767,51.5758232 66.3117726,49.9266919 66.3117726,47.8918358 C66.3117726,45.8582444 64.6613767,44.2078484 62.6277853,44.2078484 C60.5929292,44.2078484 58.9437979,45.8582444 58.9437979,47.8918358" id="Fill-16" fill="#F3F2EE"></path>
                        <path d="M37.8222703,40.5238611 C37.8222703,42.5587171 39.4723831,44.2078484 41.5068899,44.2078484 C43.5401323,44.2078484 45.1902451,42.5587171 45.1902451,40.5238611 C45.1902451,38.4902697 43.5401323,36.8398737 41.5068899,36.8398737 C39.4723831,36.8398737 37.8222703,38.4902697 37.8222703,40.5238611" id="Fill-18" fill="#F3F2EE"></path>
                        <path d="M21.6127259,49.3654307 C21.6127259,51.3990221 23.2631219,53.0494181 25.2967133,53.0494181 C27.3315693,53.0494181 28.9807006,51.3990221 28.9807006,49.3654307 C28.9807006,47.3305747 27.3315693,45.6814434 25.2967133,45.6814434 C23.2631219,45.6814434 21.6127259,47.3305747 21.6127259,49.3654307" id="Fill-20" fill="#F3F2EE"></path>
                        <path d="M13.2623545,32.6640558 C13.2623545,34.6985626 14.9114858,36.3486754 16.9463419,36.3486754 C18.9799333,36.3486754 20.6303293,34.6985626 20.6303293,32.6640558 C20.6303293,30.6308134 18.9799333,28.9807006 16.9463419,28.9807006 C14.9114858,28.9807006 13.2623545,30.6308134 13.2623545,32.6640558" id="Fill-22" fill="#F3F2EE"></path>
                        <path d="M142.93871,43.9622493 C142.93871,45.9958407 144.587841,47.6462366 146.622697,47.6462366 C148.656289,47.6462366 150.306685,45.9958407 150.306685,43.9622493 C150.306685,41.9273932 148.656289,40.2782619 146.622697,40.2782619 C144.587841,40.2782619 142.93871,41.9273932 142.93871,43.9622493" id="Fill-24" fill="#F3F2EE"></path>
                        <path d="M53.0494181,30.6998947 C53.0494181,32.7334861 54.6995309,34.3838821 56.7327733,34.3838821 C58.7672801,34.3838821 60.4173929,32.7334861 60.4173929,30.6998947 C60.4173929,28.6650387 58.7672801,27.0159074 56.7327733,27.0159074 C54.6995309,27.0159074 53.0494181,28.6650387 53.0494181,30.6998947" id="Fill-26" fill="#F3F2EE"></path>
                        <path d="M27.998304,23.8231183 C27.998304,25.8567097 29.6474353,27.5071057 31.6822914,27.5071057 C33.7158828,27.5071057 35.3662787,25.8567097 35.3662787,23.8231183 C35.3662787,21.7882623 33.7158828,20.139131 31.6822914,20.139131 C29.6474353,20.139131 27.998304,21.7882623 27.998304,23.8231183" id="Fill-28" fill="#F3F2EE"></path>
                        <path d="M19.4467427,54.416305 C18.8527092,52.6605195 18.3735711,51.0968491 18.1743377,50.1022282 L154.72747,50.1022282 C154.72747,50.1022282 145.121484,75.9295409 136.072864,85.8040104 C129.593499,94.0515818 115.251136,109.259067 96.7395384,110.608736 C94.3304027,111.023364 75.1428781,115.089394 51.7555615,101.596353 C42.408702,95.9046407 32.3969161,81.7002874 32.0461186,81.1993293 C29.5074201,77.5649506 27.1483984,73.7931731 25.4983056,70.3971144 L25.495861,70.3971144 C23.3360727,66.5426545 20.8951575,59.1364984 19.4467427,54.416305" id="Fill-30" fill="#B51144"></path>
                    </g>
                </g>
            </g>
        </g>
    </g>
</svg>