<?xml version="1.0" encoding="UTF-8"?>
<svg width="71px" height="78px" viewBox="0 0 71 78" version="1.1" xmlns="http://www.w3.org/2000/svg" xmlns:xlink="http://www.w3.org/1999/xlink">
    <!-- Generator: Sketch 53.2 (72643) - https://sketchapp.com -->
    <title>China Cup</title>
    <desc>Created with Sketch.</desc>
    <defs>
        <polygon id="path-1" points="0.145523006 0.133556328 15.8097324 0.133556328 15.8097324 18.4007127 0.145523006 18.4007127"></polygon>
        <polygon id="path-3" points="0.0729845839 0.281369727 6.95279477 0.281369727 6.95279477 26.6935007 0.0729845839 26.6935007"></polygon>
    </defs>
    <g id="Page-1" stroke="none" stroke-width="1" fill="none" fill-rule="evenodd">
        <g id="iconography-on-dark-copy" transform="translate(-111.000000, -837.000000)">
            <g id="China-Cup" transform="translate(113.000000, 837.000000)">
                <g id="Group-6" transform="translate(55.552547, 42.197538)">
                    <mask id="mask-2" fill="white">
                        <use xlink:href="#path-1"></use>
                    </mask>
                    <g id="Clip-5"></g>
                </g>
                <path d="M32.2750375,22.7549658 C31.8515559,22.7549658 31.4258435,22.6090005 31.0767221,22.3102809 C30.2925933,21.6381618 30.1933223,20.4485638 30.8558721,19.6523553 C31.4782674,18.9044248 31.8601073,18.3884546 31.8601073,17.2607127 C31.8601073,16.0669658 31.4314205,15.5555216 30.7216519,14.708395 C29.8676244,13.6889012 28.6983095,12.2933677 28.6983095,9.71313945 C28.6983095,7.14498065 29.8903043,5.71512457 30.6026755,4.86120893 C31.2655971,4.06613201 32.4378864,3.96655881 33.2227589,4.63943226 C34.0065159,5.31192854 34.1042996,6.50190372 33.441378,7.29735782 C32.8059697,8.05924367 32.416322,8.58351166 32.416322,9.71313945 C32.416322,10.9068864 32.844637,11.4183305 33.5544056,12.2654571 C34.408433,13.2845737 35.5781197,14.6804844 35.5781197,17.2607127 C35.5781197,19.6267077 34.6066031,20.9916903 33.6964336,22.085864 C33.329094,22.5275315 32.8037389,22.7549658 32.2750375,22.7549658" id="Fill-7" fill="#CE4B27"></path>
                <g id="Group-11" transform="translate(38.449689, 0.000000)">
                    <mask id="mask-4" fill="white">
                        <use xlink:href="#path-3"></use>
                    </mask>
                    <g id="Clip-10"></g>
                    <path d="M1.9319908,26.6935007 C0.905075764,26.6935007 0.0729845839,25.8490144 0.0729845839,24.8076447 C0.0729845839,22.2277935 1.24267129,20.8318829 2.09632694,19.8127663 C2.80646732,18.9656397 3.23478235,18.4541955 3.23478235,17.2604486 C3.23478235,16.0667017 2.80646732,15.5552576 2.09632694,14.708131 C1.24267129,13.6890144 0.0729845839,12.2931037 0.0729845839,9.71325261 C0.0729845839,7.13340149 1.24267129,5.73786799 2.09632694,4.71875136 C2.80646732,3.87162481 3.23478235,3.36055782 3.23478235,2.16718809 C3.23478235,1.12581836 4.06687353,0.28133201 5.09378856,0.28133201 C6.12070359,0.28133201 6.95279477,1.12581836 6.95279477,2.16718809 C6.95279477,4.74703921 5.78310806,6.1425727 4.92945241,7.16168933 C4.21931204,8.00881588 3.79099701,8.51988288 3.79099701,9.71325261 C3.79099701,10.9069995 4.21931204,11.4180665 4.92945241,12.2655702 C5.78310806,13.2846868 6.95279477,14.6805975 6.95279477,17.2604486 C6.95279477,19.8406769 5.78310806,21.2362104 4.92945241,22.255327 C4.21931204,23.1024536 3.79099701,23.6138978 3.79099701,24.8076447 C3.79099701,25.8490144 2.95890583,26.6935007 1.9319908,26.6935007" id="Fill-9" fill="#CE4B27" mask="url(#mask-4)"></path>
                </g>
                <path d="M66.409122,38.1247423 C66.409122,38.1247423 71.1268799,75.3428192 38.342812,75.3428192 C24.2910352,75.3428192 14.375083,69.1333383 11.417492,58.3743577 C0.579223633,59.55234 -1.688198,51.0483962 1.625272,46.5249346 C2.612232,45.1781269 7.82794113,43.941425 9.22516113,43.941425 C9.22516113,46.5249346 10.6773193,57.4861716 11.417492,58.3743577 C8.19645996,47.501735 9.867702,38.1247423 9.867702,38.1247423 C10.029762,36.3022038 22.507652,35.0986269 38.127462,35.0986269 C53.746542,35.0986269 66.107632,36.2408192 66.409122,38.1247423 Z" id="Fill-9" stroke="#CE4B27" stroke-width="4.38461538"></path>
            </g>
        </g>
    </g>
</svg>